<svg width="64" height="64" viewBox="0 0 64 64" fill="none" xmlns="http://www.w3.org/2000/svg">
<g clip-path="url(#clip0_2_3759)">
<path d="M64 31.9718C64.0086 42.0145 59.3905 50.9807 52.1587 56.8525L48.7971 58.0443C37.9305 61.8972 26.0695 61.8972 15.2029 58.0443L11.8413 56.8525C4.61625 50.9862 0 42.0312 0 32C0 14.5265 14.0066 0.323075 31.4042 0.00532499C49.1657 -0.318925 63.9847 14.2074 64 31.9718Z" fill="#22D7FF"/>
<path d="M64 32C64 42.0312 59.3837 50.985 52.1587 56.8525L48.7971 58.0444C37.9305 61.8973 26.0695 61.8973 15.2029 58.0444L11.8413 56.8525C4.61625 50.985 0 42.0312 0 32C0 26.2225 1.53125 20.8038 4.21 16.125C9.725 25.7587 20.105 32.25 32 32.25C43.895 32.25 54.2763 25.7587 59.79 16.125C62.4688 20.8038 64 26.2225 64 32Z" fill="#00B3FE"/>
<path d="M52.1588 56.8524C46.6563 61.3211 39.6413 63.9999 32.0001 63.9999C28.5038 63.9999 25.1388 63.4386 21.9888 62.4024C18.2563 61.1736 14.8263 59.2774 11.8413 56.8524C12.2138 54.0849 13.1426 51.4936 14.5126 49.1961C16.4801 45.8949 17.0251 41.9399 16.1688 38.1936C15.9013 37.0274 15.7613 35.8124 15.7613 34.5636C15.7613 34.4311 15.7626 34.2999 15.7663 34.1686C15.9063 28.2924 20.7988 23.6399 26.6763 23.6399H37.3201C43.2726 23.6399 48.1651 28.4074 48.2376 34.3599C48.2388 34.4011 48.2388 34.4436 48.2388 34.4849C48.2451 35.8311 48.0876 37.1399 47.7851 38.3911C46.8988 42.0574 47.5251 45.9411 49.4638 49.1761C50.8451 51.4799 51.7826 54.0774 52.1588 56.8524Z" fill="#F4873D"/>
<path d="M52.1586 56.8524C46.6561 61.3211 39.6411 63.9999 31.9999 63.9999C28.5036 63.9999 25.1386 63.4386 21.9886 62.4024C21.8886 61.5574 21.8336 60.6799 21.8299 59.7799C21.8286 59.7174 21.8286 59.6549 21.8286 59.5936C21.8286 55.7936 22.3499 52.2386 23.2561 49.1961C24.2399 45.8949 24.5124 41.9399 24.0849 38.1936C23.9511 37.0274 23.8811 35.8124 23.8811 34.5636C23.8811 34.4311 23.8811 34.2999 23.8836 34.1686C23.9536 28.2924 26.3999 23.6399 29.3386 23.6399H37.3199C43.2724 23.6399 48.1649 28.4074 48.2374 34.3599C48.2386 34.4011 48.2386 34.4436 48.2386 34.4849C48.2449 35.8311 48.0874 37.1399 47.7849 38.3911C46.8986 42.0574 47.5249 45.9411 49.4636 49.1761C50.8449 51.4799 51.7824 54.0774 52.1586 56.8524Z" fill="#EC781B"/>
<path d="M52.1587 56.8524C46.6562 61.3211 39.6413 63.9999 32 63.9999V23.6399H37.32C43.2725 23.6399 48.165 28.4074 48.2375 34.3599C48.2387 34.4011 48.2388 34.4436 48.2388 34.4849C48.245 35.8311 48.0875 37.1399 47.785 38.3911C46.8988 42.0574 47.525 45.9411 49.4637 49.1761C50.845 51.4799 51.7825 54.0774 52.1587 56.8524Z" fill="#C55733"/>
<path d="M32.0002 55.4874C35.7557 55.4874 38.8002 52.443 38.8002 48.6875C38.8002 44.9319 35.7557 41.8875 32.0002 41.8875C28.2447 41.8875 25.2002 44.9319 25.2002 48.6875C25.2002 52.443 28.2447 55.4874 32.0002 55.4874Z" fill="white"/>
<path d="M38.8 48.6875C38.8 52.4425 35.7562 55.4874 32 55.4874V41.8875C35.7562 41.8875 38.8 44.9312 38.8 48.6875Z" fill="#D1F6FF"/>
<path d="M35.999 48.6875C35.999 50.8962 34.209 52.6862 32.0002 52.6862C29.7915 52.6862 28.0015 50.8962 28.0015 48.6875C28.0015 46.4787 29.7915 44.6875 32.0002 44.6875C34.209 44.6875 35.999 46.4787 35.999 48.6875Z" fill="#234177"/>
<path d="M35.9987 48.6875C35.9987 50.8962 34.2088 52.6862 32 52.6862V44.6875C34.2088 44.6875 35.9987 46.4787 35.9987 48.6875Z" fill="#16325B"/>
<path d="M38.8002 59.2512V61.0687C38.8002 61.7587 38.2414 62.3162 37.5527 62.3162H26.4477C25.7589 62.3162 25.2002 61.7587 25.2002 61.0687V59.2512C25.2002 58.5624 25.7589 58.0037 26.4477 58.0037H37.5527C38.2414 58.0037 38.8002 58.5624 38.8002 59.2512Z" fill="#234177"/>
<path d="M38.8 59.2512V61.0687C38.8 61.7587 38.2413 62.3162 37.5525 62.3162H32V58.0037H37.5525C38.2413 58.0037 38.8 58.5624 38.8 59.2512Z" fill="#16325B"/>
<path d="M36.6173 37.1237H27.3823L27.8711 0.265C28.4448 0.19 29.0248 0.13125 29.6086 0.08875C29.8611 0.06875 30.1148 0.05375 30.3698 0.04C30.7836 0.02 31.1998 0.0075 31.6186 0.0025C31.7461 0.00125 31.8723 0 31.9998 0C32.1273 0 32.2536 0.00125 32.3811 0.0025C32.7998 0.0075 33.2161 0.02 33.6298 0.04C33.8848 0.05375 34.1386 0.06875 34.3911 0.08875C34.9748 0.13125 35.5548 0.19 36.1286 0.265L36.6173 37.1237Z" fill="#374C81"/>
<path d="M36.6175 37.1237H32V0C32.1275 0 32.2537 0.00125 32.3812 0.0025C32.8 0.0075 33.2163 0.02 33.63 0.04C33.885 0.05375 34.1388 0.06875 34.3913 0.08875C34.975 0.13125 35.555 0.19 36.1287 0.265L36.6175 37.1237Z" fill="#234177"/>
<path d="M38.8002 36.3051V38.1226C38.8002 38.8126 38.2414 39.3701 37.5527 39.3701H26.4477C25.7589 39.3701 25.2002 38.8126 25.2002 38.1226V36.3051C25.2002 35.6164 25.7589 35.0576 26.4477 35.0576H37.5527C38.2414 35.0576 38.8002 35.6164 38.8002 36.3051Z" fill="#234177"/>
<path d="M38.8 36.3051V38.1226C38.8 38.8126 38.2413 39.3701 37.5525 39.3701H32V35.0576H37.5525C38.2413 35.0576 38.8 35.6164 38.8 36.3051Z" fill="#16325B"/>
<path d="M30.3701 0.0400391V59.78C30.3701 59.99 30.2001 60.16 29.9901 60.16C29.7789 60.16 29.6089 59.99 29.6089 59.78V0.0887891C29.8614 0.0687891 30.1151 0.0537891 30.3701 0.0400391Z" fill="#8FC8F5"/>
<path d="M32.3812 0.0025V59.78C32.3812 59.99 32.2099 60.16 31.9999 60.16C31.7899 60.16 31.6187 59.99 31.6187 59.78V0.0025C31.7462 0.00125 31.8724 0 31.9999 0C32.1274 0 32.2537 0.00125 32.3812 0.0025Z" fill="#8FC8F5"/>
<path d="M34.3916 0.0887891V59.7788C34.3916 59.99 34.2216 60.16 34.0104 60.16C33.8004 60.16 33.6304 59.99 33.6304 59.7788V0.0400391C33.8854 0.0537891 34.1391 0.0687891 34.3916 0.0887891Z" fill="#8FC8F5"/>
</g>
<defs>
<clipPath id="clip0_2_3759">
<rect width="64" height="64" fill="white"/>
</clipPath>
</defs>
</svg>
