<svg width="64" height="64" viewBox="0 0 64 64" fill="none" xmlns="http://www.w3.org/2000/svg">
<circle cx="32" cy="32" r="32" fill="#D0E0FF"/>
<path d="M39.6 35.6C39.5916 37.1684 37.2084 37.1684 37.2 35.6C37.2084 34.0316 39.5916 34.0316 39.6 35.6ZM26.0256 34.4H27.9756L27.0012 31.3364L26.0256 34.4ZM46.8 26V38C46.8 41.3132 44.1132 44 40.8 44H24C20.6868 44 18 41.3132 18 38V26C18 22.6868 20.6868 20 24 20H40.8C44.1132 20 46.8 22.6868 46.8 26ZM32.9148 38.054L28.7148 24.854C28.2516 23.2124 25.7472 23.2124 25.2852 24.854L21.0852 38.054C20.784 39.0008 21.3072 40.0136 22.2552 40.3148C23.1984 40.6172 24.2148 40.0928 24.516 39.1448L24.8808 37.9988H29.1216L29.4864 39.1448C29.7852 40.1 30.8256 40.616 31.7472 40.3148C32.6952 40.0136 33.2184 39.0008 32.9172 38.054H32.9148ZM43.2 25.4C43.1592 23.0336 39.6396 23.0348 39.6 25.4V30.9704C36.4632 30.074 33.2568 32.7812 33.624 36.08C33.8676 38.5736 36.1092 40.4 38.6148 40.4H41.4012C42.3948 40.4 43.2012 39.5936 43.2012 38.6L43.2 25.4Z" fill="#3D69C5"/>
</svg>
