<svg width="30" height="24" viewBox="0 0 30 24" fill="none" xmlns="http://www.w3.org/2000/svg">
<path d="M22.2963 15.6C22.2879 17.1684 19.9047 17.1684 19.8963 15.6C19.9047 14.0316 22.2879 14.0316 22.2963 15.6ZM8.72189 14.4H10.6719L9.69749 11.3364L8.72189 14.4ZM29.4963 6V18C29.4963 21.3132 26.8095 24 23.4963 24H6.69629C3.38309 24 0.696289 21.3132 0.696289 18V6C0.696289 2.6868 3.38309 0 6.69629 0H23.4963C26.8095 0 29.4963 2.6868 29.4963 6ZM15.6111 18.054L11.4111 4.854C10.9479 3.2124 8.44349 3.2124 7.98149 4.854L3.78149 18.054C3.48029 19.0008 4.00349 20.0136 4.95149 20.3148C5.89469 20.6172 6.91109 20.0928 7.21229 19.1448L7.57709 17.9988H11.8179L12.1827 19.1448C12.4815 20.1 13.5219 20.616 14.4435 20.3148C15.3915 20.0136 15.9147 19.0008 15.6135 18.054H15.6111ZM25.8963 5.4C25.8555 3.0336 22.3359 3.0348 22.2963 5.4V10.9704C19.1595 10.074 15.9531 12.7812 16.3203 16.08C16.5639 18.5736 18.8055 20.4 21.3111 20.4H24.0975C25.0911 20.4 25.8975 19.5936 25.8975 18.6L25.8963 5.4Z" fill="#D7DEF1"/>
</svg>
