<svg width="24" height="24" viewBox="0 0 24 24" fill="none" xmlns="http://www.w3.org/2000/svg">
<path d="M7 8C6.646 8 6.314 8.012 6 8.034V4.929L5.559 4.311C5.196 3.802 5 3.193 5 2.567V1.5C5 0.672 5.672 0 6.5 0H7.5C8.328 0 9 0.672 9 1.5V2.546C9 3.166 8.808 3.772 8.449 4.278L8 4.914V8.034C7.686 8.012 7.354 8 7 8ZM10.182 14.818C10.182 14.365 10.082 14.032 9.855 13.322C9.542 12.338 9.025 11.046 9.025 8.999C9.025 7.999 8.358 8.058 8 8.033V13.999C8 14.551 7.552 14.999 7 14.999C6.448 14.999 6 14.551 6 13.999V8.033C1.678 8.334 1 10.607 1 11.999C1 12.792 1.362 13.491 1.653 14.052C1.799 14.334 2 14.721 2 14.874C1.998 15.016 1.656 15.456 1.451 15.719C0.839 16.505 0 17.581 0 19.207C0 21.938 3.009 23.999 7 23.999C7.285 23.999 7.566 23.988 7.841 23.968C8.355 23.929 8.69 23.373 8.465 22.91C8.168 22.3 8 21.602 8 20.818C8 18.525 8.981 16.938 9.63 15.888C9.901 15.45 10.181 14.996 10.181 14.818H10.182ZM24 20.818C24 23.335 21.205 24 19.727 24H14.273C12.795 24 10 23.335 10 20.818C10 19.094 10.738 17.9 11.332 16.94C11.807 16.171 12.182 15.564 12.182 14.818C12.182 14.034 11.996 13.451 11.761 12.714C11.423 11.652 11.001 10.33 11.001 8C11.001 7.449 11.446 7.002 11.997 7H12.001C12.547 7 12.993 7.439 13.001 7.985C13.009 8.272 13.164 10.503 16.001 10.93V6.001C15.081 5.937 14.001 5.001 14.001 4.501C14.001 2.959 16.17 0.445 16.17 0.445C16.35 0.178 16.655 0.001 17.001 0.001C17.553 0.001 18.001 0.449 18.001 1.001V10.936C20.213 10.631 20.838 9.328 21.01 8.727C21.15 8.237 21.641 7.93 22.14 8.016C22.643 8.102 23.001 8.553 22.97 9.063C22.867 10.753 22.52 11.842 22.241 12.716C22.006 13.454 21.82 14.036 21.82 14.82C21.82 15.566 22.195 16.173 22.67 16.942C23.263 17.901 24.002 19.096 24.002 20.82L24 20.818ZM19 19C19 18.448 18.552 18 18 18H16C15.448 18 15 18.448 15 19C15 19.552 15.448 20 16 20H18C18.552 20 19 19.552 19 19Z" fill="#D7DEF1"/>
</svg>
