<svg width="64" height="64" viewBox="0 0 64 64" fill="none" xmlns="http://www.w3.org/2000/svg">
<circle cx="32" cy="32" r="32" fill="#D0E0FF"/>
<path d="M22.7935 22.7945C22.1728 22.7945 21.5907 22.8155 21.0402 22.8541V17.4097L20.267 16.3261C19.6305 15.4336 19.2869 14.3658 19.2869 13.2681V11.3972C19.2869 9.94539 20.4651 8.76709 21.9168 8.76709H23.6701C25.1218 8.76709 26.3 9.94539 26.3 11.3972V13.2313C26.3 14.3184 25.9634 15.381 25.334 16.2682L24.5467 17.3834V22.8541C23.9962 22.8155 23.4141 22.7945 22.7935 22.7945ZM28.3724 34.7493C28.3724 33.955 28.1971 33.3711 27.7991 32.1262C27.2503 30.4008 26.3438 28.1354 26.3438 24.5462C26.3438 22.7927 25.1744 22.8962 24.5467 22.8524V33.3133C24.5467 34.2812 23.7613 35.0667 22.7935 35.0667C21.8256 35.0667 21.0402 34.2812 21.0402 33.3133V22.8524C13.4625 23.3801 12.2738 27.3657 12.2738 29.8064C12.2738 31.1969 12.9085 32.4225 13.4187 33.4062C13.6747 33.9007 14.0271 34.5793 14.0271 34.8475C14.0236 35.0965 13.4239 35.868 13.0645 36.3292C11.9915 37.7074 10.5205 39.594 10.5205 42.4451C10.5205 47.2337 15.7961 50.8475 22.7935 50.8475C23.2931 50.8475 23.7858 50.8282 24.268 50.7932C25.1691 50.7248 25.7565 49.7499 25.362 48.938C24.8413 47.8685 24.5467 46.6446 24.5467 45.2699C24.5467 41.2493 26.2667 38.4666 27.4046 36.6255C27.8797 35.8575 28.3706 35.0614 28.3706 34.7493H28.3724ZM52.5992 45.2699C52.5992 49.6833 47.6988 50.8493 45.1074 50.8493H35.545C32.9537 50.8493 28.0533 49.6833 28.0533 45.2699C28.0533 42.247 29.3472 40.1534 30.3887 38.4701C31.2215 37.1217 31.8789 36.0574 31.8789 34.7493C31.8789 33.3747 31.5528 32.3524 31.1408 31.0601C30.5482 29.198 29.8083 26.88 29.8083 22.7945C29.8083 21.8284 30.5885 21.0446 31.5546 21.0411H31.5616C32.5189 21.0411 33.3009 21.8108 33.3149 22.7682C33.3289 23.2714 33.6007 27.1833 38.5747 27.932V19.2894C36.9617 19.1772 35.0682 17.536 35.0682 16.6593C35.0682 13.9555 38.871 9.54736 38.871 9.54736C39.1866 9.0792 39.7214 8.76884 40.328 8.76884C41.2958 8.76884 42.0813 9.55438 42.0813 10.5223V27.9425C45.9595 27.4077 47.0553 25.123 47.3569 24.0692C47.6023 23.21 48.4632 22.6717 49.3381 22.8225C50.22 22.9733 50.8477 23.7641 50.7933 24.6584C50.6127 27.6217 50.0043 29.5311 49.5152 31.0636C49.1032 32.3577 48.777 33.3782 48.777 34.7528C48.777 36.0609 49.4345 37.1252 50.2673 38.4736C51.307 40.1551 52.6027 42.2505 52.6027 45.2734L52.5992 45.2699ZM43.8328 42.0822C43.8328 41.1143 43.0473 40.3287 42.0795 40.3287H38.573C37.6052 40.3287 36.8197 41.1143 36.8197 42.0822C36.8197 43.05 37.6052 43.8356 38.573 43.8356H42.0795C43.0473 43.8356 43.8328 43.05 43.8328 42.0822Z" fill="#3D69C5"/>
</svg>
