<svg width="64" height="64" viewBox="0 0 64 64" fill="none" xmlns="http://www.w3.org/2000/svg">
<path d="M5 38H59V53H5V38Z" fill="#C19744"/>
<path d="M13 45H17V59H13V45Z" fill="#F7C23C"/>
<path d="M30 45H34V59H30V45Z" fill="#F7C23C"/>
<path d="M47 45H51V59H47V45Z" fill="#F7C23C"/>
<path d="M10 57H20V61H10V57Z" fill="#4AA345"/>
<path d="M27 57H37V61H27V57Z" fill="#4AA345"/>
<path d="M44 57H54V61H44V57Z" fill="#4AA345"/>
<path d="M9 42H21V46H9V42Z" fill="#4AA345"/>
<path d="M26 42H38V46H26V42Z" fill="#4AA345"/>
<path d="M43 42H55V46H43V42Z" fill="#4AA345"/>
<path d="M3 32H61V38H3V32Z" fill="#7E481C"/>
<path d="M5 19C5.53043 19 6.03914 19.2107 6.41421 19.5858C6.78929 19.9609 7 20.4696 7 21V23H3V21C3 20.4696 3.21071 19.9609 3.58579 19.5858C3.96086 19.2107 4.46957 19 5 19Z" fill="#D1D1D1"/>
<path d="M13 19C13.5304 19 14.0391 19.2107 14.4142 19.5858C14.7893 19.9609 15 20.4696 15 21V23H11V21C11 20.4696 11.2107 19.9609 11.5858 19.5858C11.9609 19.2107 12.4696 19 13 19Z" fill="#D1D1D1"/>
<path d="M21 19C21.5304 19 22.0391 19.2107 22.4142 19.5858C22.7893 19.9609 23 20.4696 23 21V23H19V21C19 20.4696 19.2107 19.9609 19.5858 19.5858C19.9609 19.2107 20.4696 19 21 19Z" fill="#D1D1D1"/>
<path d="M43 19C43.5304 19 44.0391 19.2107 44.4142 19.5858C44.7893 19.9609 45 20.4696 45 21V23H41V21C41 20.4696 41.2107 19.9609 41.5858 19.5858C41.9609 19.2107 42.4696 19 43 19Z" fill="#D1D1D1"/>
<path d="M51 19C51.5304 19 52.0391 19.2107 52.4142 19.5858C52.7893 19.9609 53 20.4696 53 21V23H49V21C49 20.4696 49.2107 19.9609 49.5858 19.5858C49.9609 19.2107 50.4696 19 51 19Z" fill="#D1D1D1"/>
<path d="M59 19C59.5304 19 60.0391 19.2107 60.4142 19.5858C60.7893 19.9609 61 20.4696 61 21V23H57V21C57 20.4696 57.2107 19.9609 57.5858 19.5858C57.9609 19.2107 58.4696 19 59 19Z" fill="#D1D1D1"/>
<path d="M3 5H61V15H3V5Z" fill="#C19744"/>
<path d="M32 17C35.866 17 39 13.866 39 10C39 6.13401 35.866 3 32 3C28.134 3 25 6.13401 25 10C25 13.866 28.134 17 32 17Z" fill="#73AAD8"/>
<path d="M32 6L33.24 8.63L36 9.06L34 11.11L34.47 14L32 12.63L29.53 14L30 11.11L28 9.06L30.76 8.63L32 6Z" fill="#C20000"/>
<path d="M61 31H3C2.73478 31 2.48043 31.1054 2.29289 31.2929C2.10536 31.4804 2 31.7348 2 32V38C2 38.2652 2.10536 38.5196 2.29289 38.7071C2.48043 38.8946 2.73478 39 3 39H4V62H6V54H12V56H10C9.73478 56 9.48043 56.1054 9.29289 56.2929C9.10536 56.4804 9 56.7348 9 57V61C9 61.2652 9.10536 61.5196 9.29289 61.7071C9.48043 61.8946 9.73478 62 10 62H20C20.2652 62 20.5196 61.8946 20.7071 61.7071C20.8946 61.5196 21 61.2652 21 61V57C21 56.7348 20.8946 56.4804 20.7071 56.2929C20.5196 56.1054 20.2652 56 20 56H18V54H29V56H27C26.7348 56 26.4804 56.1054 26.2929 56.2929C26.1054 56.4804 26 56.7348 26 57V61C26 61.2652 26.1054 61.5196 26.2929 61.7071C26.4804 61.8946 26.7348 62 27 62H37C37.2652 62 37.5196 61.8946 37.7071 61.7071C37.8946 61.5196 38 61.2652 38 61V57C38 56.7348 37.8946 56.4804 37.7071 56.2929C37.5196 56.1054 37.2652 56 37 56H35V54H46V56H44C43.7348 56 43.4804 56.1054 43.2929 56.2929C43.1054 56.4804 43 56.7348 43 57V61C43 61.2652 43.1054 61.5196 43.2929 61.7071C43.4804 61.8946 43.7348 62 44 62H54C54.2652 62 54.5196 61.8946 54.7071 61.7071C54.8946 61.5196 55 61.2652 55 61V57C55 56.7348 54.8946 56.4804 54.7071 56.2929C54.5196 56.1054 54.2652 56 54 56H52V54H58V62H60V39H61C61.2652 39 61.5196 38.8946 61.7071 38.7071C61.8946 38.5196 62 38.2652 62 38V32C62 31.7348 61.8946 31.4804 61.7071 31.2929C61.5196 31.1054 61.2652 31 61 31ZM10 45V43H20V45H10ZM19 60H11V58H19V60ZM14 56V47H16V56H14ZM27 45V43H37V45H27ZM36 60H28V58H36V60ZM31 56V47H33V56H31ZM44 45V43H54V45H44ZM53 60H45V58H53V60ZM48 56V47H50V56H48ZM58 52H52V47H55C55.2652 47 55.5196 46.8946 55.7071 46.7071C55.8946 46.5196 56 46.2652 56 46V42C56 41.7348 55.8946 41.4804 55.7071 41.2929C55.5196 41.1054 55.2652 41 55 41H43C42.7348 41 42.4804 41.1054 42.2929 41.2929C42.1054 41.4804 42 41.7348 42 42V46C42 46.2652 42.1054 46.5196 42.2929 46.7071C42.4804 46.8946 42.7348 47 43 47H46V52H35V47H38C38.2652 47 38.5196 46.8946 38.7071 46.7071C38.8946 46.5196 39 46.2652 39 46V42C39 41.7348 38.8946 41.4804 38.7071 41.2929C38.5196 41.1054 38.2652 41 38 41H26C25.7348 41 25.4804 41.1054 25.2929 41.2929C25.1054 41.4804 25 41.7348 25 42V46C25 46.2652 25.1054 46.5196 25.2929 46.7071C25.4804 46.8946 25.7348 47 26 47H29V52H18V47H21C21.2652 47 21.5196 46.8946 21.7071 46.7071C21.8946 46.5196 22 46.2652 22 46V42C22 41.7348 21.8946 41.4804 21.7071 41.2929C21.5196 41.1054 21.2652 41 21 41H9C8.73478 41 8.48043 41.1054 8.29289 41.2929C8.10536 41.4804 8 41.7348 8 42V46C8 46.2652 8.10536 46.5196 8.29289 46.7071C8.48043 46.8946 8.73478 47 9 47H12V52H6V39H58V52ZM60 37H4V33H60V37Z" fill="black"/>
<path d="M61 3.99999H37.27C35.8172 2.71083 33.9423 1.9989 32 1.9989C30.0577 1.9989 28.1828 2.71083 26.73 3.99999H3C2.73478 3.99999 2.48043 4.10534 2.29289 4.29288C2.10536 4.48042 2 4.73477 2 4.99999V15C2 15.2652 2.10536 15.5196 2.29289 15.7071C2.48043 15.8946 2.73478 16 3 16H4V18.18C3.41645 18.3863 2.911 18.7681 2.55294 19.2729C2.19488 19.7778 2.00174 20.381 2 21V23C2 23.2652 2.10536 23.5196 2.29289 23.7071C2.48043 23.8946 2.73478 24 3 24H7C7.26522 24 7.51957 23.8946 7.70711 23.7071C7.89464 23.5196 8 23.2652 8 23V21C7.99826 20.381 7.80512 19.7778 7.44706 19.2729C7.089 18.7681 6.58355 18.3863 6 18.18V16H12V18.18C11.4165 18.3863 10.911 18.7681 10.5529 19.2729C10.1949 19.7778 10.0017 20.381 10 21V23C10 23.2652 10.1054 23.5196 10.2929 23.7071C10.4804 23.8946 10.7348 24 11 24H15C15.2652 24 15.5196 23.8946 15.7071 23.7071C15.8946 23.5196 16 23.2652 16 23V21C15.9983 20.381 15.8051 19.7778 15.4471 19.2729C15.089 18.7681 14.5835 18.3863 14 18.18V16H20V18.18C19.4165 18.3863 18.911 18.7681 18.5529 19.2729C18.1949 19.7778 18.0017 20.381 18 21V23C18 23.2652 18.1054 23.5196 18.2929 23.7071C18.4804 23.8946 18.7348 24 19 24H23C23.2652 24 23.5196 23.8946 23.7071 23.7071C23.8946 23.5196 24 23.2652 24 23V21C23.9983 20.381 23.8051 19.7778 23.4471 19.2729C23.089 18.7681 22.5835 18.3863 22 18.18V16H26.73C28.1828 17.2891 30.0577 18.0011 32 18.0011C33.9423 18.0011 35.8172 17.2891 37.27 16H42V18.18C41.4165 18.3863 40.911 18.7681 40.5529 19.2729C40.1949 19.7778 40.0017 20.381 40 21V23C40 23.2652 40.1054 23.5196 40.2929 23.7071C40.4804 23.8946 40.7348 24 41 24H45C45.2652 24 45.5196 23.8946 45.7071 23.7071C45.8946 23.5196 46 23.2652 46 23V21C45.9983 20.381 45.8051 19.7778 45.4471 19.2729C45.089 18.7681 44.5835 18.3863 44 18.18V16H50V18.18C49.4165 18.3863 48.911 18.7681 48.5529 19.2729C48.1949 19.7778 48.0017 20.381 48 21V23C48 23.2652 48.1054 23.5196 48.2929 23.7071C48.4804 23.8946 48.7348 24 49 24H53C53.2652 24 53.5196 23.8946 53.7071 23.7071C53.8946 23.5196 54 23.2652 54 23V21C53.9983 20.381 53.8051 19.7778 53.4471 19.2729C53.089 18.7681 52.5835 18.3863 52 18.18V16H58V18.18C57.4165 18.3863 56.911 18.7681 56.5529 19.2729C56.1949 19.7778 56.0017 20.381 56 21V23C56 23.2652 56.1054 23.5196 56.2929 23.7071C56.4804 23.8946 56.7348 24 57 24H61C61.2652 24 61.5196 23.8946 61.7071 23.7071C61.8946 23.5196 62 23.2652 62 23V21C61.9983 20.381 61.8051 19.7778 61.4471 19.2729C61.089 18.7681 60.5835 18.3863 60 18.18V16H61C61.2652 16 61.5196 15.8946 61.7071 15.7071C61.8946 15.5196 62 15.2652 62 15V4.99999C62 4.73477 61.8946 4.48042 61.7071 4.29288C61.5196 4.10534 61.2652 3.99999 61 3.99999ZM6 22H4V21C4 20.7348 4.10536 20.4804 4.29289 20.2929C4.48043 20.1053 4.73478 20 5 20C5.26522 20 5.51957 20.1053 5.70711 20.2929C5.89464 20.4804 6 20.7348 6 21V22ZM14 22H12V21C12 20.7348 12.1054 20.4804 12.2929 20.2929C12.4804 20.1053 12.7348 20 13 20C13.2652 20 13.5196 20.1053 13.7071 20.2929C13.8946 20.4804 14 20.7348 14 21V22ZM22 22H20V21C20 20.7348 20.1054 20.4804 20.2929 20.2929C20.4804 20.1053 20.7348 20 21 20C21.2652 20 21.5196 20.1053 21.7071 20.2929C21.8946 20.4804 22 20.7348 22 21V22ZM44 22H42V21C42 20.7348 42.1054 20.4804 42.2929 20.2929C42.4804 20.1053 42.7348 20 43 20C43.2652 20 43.5196 20.1053 43.7071 20.2929C43.8946 20.4804 44 20.7348 44 21V22ZM52 22H50V21C50 20.7348 50.1054 20.4804 50.2929 20.2929C50.4804 20.1053 50.7348 20 51 20C51.2652 20 51.5196 20.1053 51.7071 20.2929C51.8946 20.4804 52 20.7348 52 21V22ZM60 22H58V21C58 20.7348 58.1054 20.4804 58.2929 20.2929C58.4804 20.1053 58.7348 20 59 20C59.2652 20 59.5196 20.1053 59.7071 20.2929C59.8946 20.4804 60 20.7348 60 21V22ZM4 5.99999H25.08C24.5523 6.92436 24.2125 7.94388 24.08 8.99999H10V11H24.07C24.2025 12.0561 24.5423 13.0756 25.07 14H4V5.99999ZM32 16C30.8133 16 29.6533 15.6481 28.6666 14.9888C27.6799 14.3295 26.9108 13.3924 26.4567 12.2961C26.0026 11.1997 25.8838 9.99333 26.1153 8.82945C26.3468 7.66556 26.9182 6.59646 27.7574 5.75735C28.5965 4.91823 29.6656 4.34679 30.8295 4.11528C31.9933 3.88376 33.1997 4.00258 34.2961 4.45671C35.3925 4.91084 36.3295 5.67987 36.9888 6.66657C37.6481 7.65326 38 8.8133 38 9.99999C38 11.5913 37.3679 13.1174 36.2426 14.2426C35.1174 15.3678 33.5913 16 32 16ZM60 14H38.92C39.4477 13.0756 39.7875 12.0561 39.92 11H54V8.99999H39.93C39.7975 7.94388 39.4577 6.92436 38.93 5.99999H60V14Z" fill="black"/>
<path d="M36.9995 8.73999C36.9408 8.56549 36.835 8.41059 36.6939 8.29237C36.5527 8.17415 36.3816 8.09719 36.1995 8.06999L33.9595 7.72999L32.9595 5.57999C32.88 5.4054 32.7519 5.25738 32.5905 5.15358C32.4292 5.04979 32.2414 4.9946 32.0495 4.9946C31.8577 4.9946 31.6699 5.04979 31.5085 5.15358C31.3472 5.25738 31.2191 5.4054 31.1395 5.57999L30.1395 7.72999L27.8995 8.06999C27.7187 8.09784 27.549 8.17476 27.4089 8.29237C27.2687 8.40999 27.1636 8.56379 27.1048 8.73704C27.046 8.91029 27.0359 9.09634 27.0755 9.27494C27.1151 9.45355 27.203 9.61786 27.3295 9.74999L28.9795 11.44L28.5895 13.84C28.5673 14.0223 28.5956 14.2072 28.6715 14.3744C28.7474 14.5417 28.8678 14.6848 29.0197 14.7881C29.1715 14.8914 29.3489 14.9509 29.5323 14.9601C29.7157 14.9692 29.8982 14.9277 30.0595 14.84L32.0595 13.74L34.0595 14.84C34.207 14.9196 34.372 14.9608 34.5395 14.96C34.6855 14.9619 34.8301 14.9318 34.9631 14.8718C35.0962 14.8119 35.2145 14.7236 35.3098 14.613C35.4051 14.5025 35.4751 14.3724 35.5148 14.2319C35.5544 14.0915 35.5629 13.9441 35.5395 13.8L35.1495 11.4L36.7995 9.70999C36.9142 9.57959 36.993 9.42157 37.028 9.25149C37.0631 9.08141 37.0533 8.90512 36.9995 8.73999ZM33.3295 10.41C33.2203 10.5222 33.139 10.6585 33.0921 10.8078C33.0452 10.9572 33.0341 11.1155 33.0595 11.27L33.1995 12.13L32.5295 11.76C32.3775 11.6722 32.2051 11.626 32.0295 11.626C31.854 11.626 31.6815 11.6722 31.5295 11.76L30.8595 12.13L30.9995 11.27C31.025 11.1155 31.0138 10.9572 30.9669 10.8078C30.92 10.6585 30.8387 10.5222 30.7295 10.41L30.0895 9.74999L30.9295 9.61999C31.0907 9.59491 31.2434 9.53077 31.3741 9.43316C31.5048 9.33555 31.6097 9.20743 31.6795 9.05999L31.9995 8.34999L32.3295 9.05999C32.3994 9.20743 32.5042 9.33555 32.635 9.43316C32.7657 9.53077 32.9183 9.59491 33.0795 9.61999L33.9195 9.74999L33.3295 10.41Z" fill="black"/>
<path d="M6 9H8V11H6V9Z" fill="black"/>
<path d="M56 9H58V11H56V9Z" fill="black"/>
</svg>
