<svg width="64" height="64" viewBox="0 0 64 64" fill="none" xmlns="http://www.w3.org/2000/svg">
<path d="M61.2986 44.888V44.8867L43.5574 61.848C39.9734 63.2386 36.076 64 32 64C14.3266 64 0 49.6734 0 32C0 14.3266 14.3266 0 32 0C49.6734 0 64 14.3266 64 32C64 36.5854 63.036 40.9454 61.2986 44.888Z" fill="#FED572"/>
<path d="M64 32.0001C64 36.5855 63.036 40.9441 61.2986 44.8867L43.556 61.8481C39.972 63.2387 36.0746 64.0001 32 64.0001C25.216 64.0001 18.9266 61.8895 13.7494 58.2895C11.6628 56.8375 9.756 55.1441 8.072 53.2481C3.05062 47.5975 0 40.1547 0 32.0001C0 26.2227 1.53062 20.8041 4.20937 16.1255C5.016 17.5349 5.928 18.8775 6.93337 20.1415C7.78675 21.2175 8.708 22.2361 9.692 23.1921C10.44 23.9201 11.224 24.6109 12.04 25.2641C12.7826 25.8561 13.552 26.4175 14.3466 26.9441C15.152 27.4787 15.984 27.9761 16.8386 28.4375C17.712 28.9081 18.6106 29.3401 19.532 29.7309C19.6694 29.7882 19.8094 29.8455 19.948 29.9029C20.764 30.2349 21.5986 30.5349 22.448 30.8002C23.1426 31.0176 23.848 31.2109 24.5626 31.3816C25.464 31.5962 26.38 31.7722 27.308 31.9082C28.8386 32.1349 30.4066 32.2509 32 32.2509C32.4946 32.2509 32.988 32.2402 33.4774 32.2175C35.9347 32.1055 38.3214 31.7161 40.6054 31.0775C41.0014 30.9695 41.3947 30.8509 41.784 30.7255C43.1026 30.3029 44.3854 29.7961 45.624 29.2122C51.5826 26.4056 56.5346 21.8136 59.7906 16.1255C62.4694 20.8041 64 26.2227 64 32.0001Z" fill="#F8BD57"/>
<path d="M58.887 49.3588C58.0004 50.7322 57.0096 52.0322 55.9284 53.2482C55.7057 53.4988 55.4804 53.7456 55.2484 53.9882C54.299 54.9922 53.2844 55.9362 52.211 56.811C51.5776 57.3283 50.923 57.8216 50.251 58.2896C49.8724 58.5522 49.4884 58.807 49.099 59.0536C48.0776 59.7002 47.0164 60.2922 45.9204 60.8202C45.1497 61.1936 44.3604 61.5376 43.5564 61.8482L5.29636 23.5896C4.79636 23.0896 4.79773 22.279 5.29636 21.779L6.93373 20.1416L17.3977 9.67896C17.8964 9.17896 18.7071 9.17896 19.2071 9.67896L40.6057 31.0776L58.887 49.3588Z" fill="white"/>
<path d="M58.8873 49.359C58.0007 50.7324 57.01 52.0324 55.9287 53.2484C55.7061 53.499 55.4807 53.7458 55.2487 53.9884C54.2993 54.9924 53.2847 55.9364 52.2113 56.8112C51.578 57.3285 50.9233 57.8218 50.2513 58.2898C49.8727 58.5524 49.4887 58.8072 49.0993 59.0538C48.078 59.7004 47.0167 60.2924 45.9207 60.8204C45.1501 61.1938 44.3607 61.5378 43.5567 61.8484L30.4341 48.727L44.3447 34.8164L58.8873 49.359Z" fill="#DFEBFF"/>
<path d="M55.2486 53.9882C54.2993 54.9922 53.2846 55.9362 52.2113 56.811C51.5779 57.3283 50.9233 57.8216 50.2513 58.2896C49.8726 58.5522 49.4886 58.807 49.0993 59.0536C48.0779 59.7002 47.0166 60.2922 45.9206 60.8202L45.086 59.9842L49.126 55.9442L47.1326 53.9508L43.0926 57.9908L41.0993 55.9975L45.1393 51.9588L43.1459 49.9655L39.1059 54.0055L37.1139 52.0121L41.1539 47.9721L39.1605 45.9787L35.1205 50.0187L33.1271 48.0253L37.1671 43.9853L35.1738 41.992L31.1338 46.032L29.1406 44.0402L33.1806 40.0002L31.1873 38.0068L27.1473 42.0468L25.1553 40.0535L29.1953 36.0135L27.2019 34.0201L23.1619 38.0601L21.1685 36.0667L25.2085 32.0267L23.2151 30.0333L19.1751 34.0733L17.1818 32.0813L21.2218 28.0413L19.2284 26.048L16.839 28.4373L15.1884 30.088L13.1964 28.0946L17.2364 24.0546L15.243 22.0612L12.0406 25.2642L11.2033 26.1016L10.0286 24.927C9.55926 24.4576 9.44864 23.767 9.69264 23.1923C9.77002 23.0123 9.88201 22.8443 10.0286 22.6977L15.9646 16.7617C16.5326 16.1937 17.454 16.1923 18.022 16.7617L33.478 32.2177L55.2486 53.9882Z" fill="#464D7F"/>
<path d="M55.2485 53.9883C54.2991 54.9923 53.2845 55.9363 52.2111 56.8111C51.5777 57.3285 50.9231 57.8217 50.2511 58.2897C49.8725 58.5523 49.4885 58.8071 49.0991 59.0537C48.0777 59.7003 47.0165 60.2923 45.9205 60.8203L45.0858 59.9843L49.1258 55.9443L47.1325 53.951L43.0925 57.991L41.0991 55.9976L45.1391 51.959L43.1457 49.9656L39.1057 54.0056L37.1137 52.0122L41.1537 47.9722L39.1603 45.9788L35.1203 50.0188L33.127 48.0255L37.167 43.9855L36.1696 42.9895L40.2096 38.9495L55.2485 53.9883Z" fill="#3B407A"/>
<path d="M61.2989 44.887C60.7629 46.1056 60.1535 47.283 59.4749 48.4164C58.4429 50.139 57.2549 51.7564 55.9283 53.2484C54.7869 54.5324 53.5443 55.7244 52.2109 56.811C51.5775 57.3284 50.9229 57.8216 50.2509 58.2896C49.8723 58.5522 49.4883 58.807 49.0989 59.0536L19.9483 29.903L9.08564 19.039C8.79502 18.7496 8.79502 18.2804 9.08564 17.9896L20.4443 6.63223C21.1616 5.91361 22.3256 5.91361 23.0443 6.63223L45.6243 29.2122L61.2989 44.887Z" fill="#E82E2E"/>
<path d="M61.299 44.8868C60.763 46.1054 60.1537 47.2828 59.475 48.4162C58.443 50.1388 57.255 51.7562 55.9284 53.2482C54.787 54.5322 53.5444 55.7242 52.211 56.8108C51.5777 57.3282 50.923 57.8214 50.251 58.2894C49.8724 58.552 49.4884 58.8068 49.099 59.0534L34.603 44.5575L47.7857 31.3735L61.299 44.8868Z" fill="#D32424"/>
<path d="M24.5125 13.4536C23.8871 14.079 22.8739 14.0802 22.2485 13.4549L16.6845 19.0189C17.3099 19.6442 17.3085 20.6575 16.6831 21.2829L52.2111 56.8109C53.5445 55.7241 54.7871 54.5322 55.9285 53.2482C57.2551 51.7562 58.4431 50.1389 59.4751 48.4162L24.5125 13.4536Z" fill="#FF3D3B"/>
<path d="M59.4749 48.4162C58.4429 50.1388 57.2549 51.7562 55.9283 53.2482C54.7869 54.5322 53.5443 55.7242 52.2109 56.8108L37.2803 41.8802L45.1096 34.0508L59.4749 48.4162Z" fill="#E82E2E"/>
<path d="M30.1242 52.0735V53.0669C30.1242 53.1762 30.0348 53.2655 29.9255 53.2682C29.8549 53.2696 29.7895 53.2296 29.7495 53.1709C29.3615 52.6015 28.7082 52.2282 27.9669 52.2282H25.1123C24.8163 52.2282 24.5763 52.4682 24.5763 52.7642V61.4082C24.5763 61.9869 24.1669 62.5069 23.5163 62.8629C21.7389 62.3762 20.0229 61.7389 18.3843 60.9655C18.7083 60.1069 19.9537 59.4669 21.4389 59.4669H21.4523C22.1443 59.4682 22.7083 58.9162 22.7083 58.2255V50.5455C22.7083 50.1989 22.9883 49.9175 23.3349 49.9175H27.9669C29.1575 49.9175 30.1242 50.8827 30.1242 52.0735Z" fill="#3B407A"/>
<path d="M16.7256 36.6467V47.244C16.7256 48.3174 15.3202 49.1867 13.5882 49.1867C11.8549 49.1867 10.4509 48.3173 10.4509 47.244C10.4509 46.172 11.8549 45.3027 13.5882 45.3027H13.6149C14.3002 45.3027 14.8562 44.7467 14.8562 44.0613V38.4467C14.8562 38.2347 14.6856 38.064 14.4736 38.064H8.93886C8.64286 38.064 8.40286 38.304 8.40286 38.6V47.244C8.40286 48.3174 6.99886 49.1867 5.26686 49.1867C5.17623 49.1867 5.08686 49.184 4.99748 49.1787C4.31086 48.1027 3.68686 46.9827 3.13086 45.8239C3.69086 45.4999 4.44148 45.3026 5.26686 45.3026H5.29348C5.97886 45.3026 6.53486 44.7466 6.53486 44.0612V36.3812C6.53486 36.0332 6.81623 35.7532 7.16286 35.7532H15.8322C16.3256 35.7534 16.7256 36.1534 16.7256 36.6467Z" fill="#3B407A"/>
<path d="M43.203 3.06689H39.8122H38.5716C38.2248 3.06689 37.9438 3.34789 37.9438 3.69464V11.3745C37.9438 12.0655 37.3797 12.6178 36.6887 12.6159C36.6842 12.6159 36.6797 12.6159 36.6752 12.6159C34.9426 12.6159 33.5381 13.4853 33.5381 14.5576C33.5381 15.63 34.9426 16.4994 36.6752 16.4994C38.4077 16.4994 39.8123 15.63 39.8123 14.5576V5.91389C39.8123 5.61777 40.0525 5.37764 40.3486 5.37764H43.2032C43.9438 5.37764 44.5973 5.75102 44.9856 6.31977C45.0257 6.37852 45.0906 6.41852 45.1617 6.41739C45.2715 6.41564 45.3598 6.32614 45.3598 6.21602V5.22352C45.3597 4.03239 44.3941 3.06689 43.203 3.06689Z" fill="#3B407A"/>
<path d="M49.2209 14.9751C48.874 14.9751 48.5929 15.2562 48.5929 15.6031V23.2831C48.5929 23.9687 48.0371 24.5245 47.3515 24.5245H47.3249C45.5915 24.5245 44.1875 25.3938 44.1875 26.4658C44.1875 27.5392 45.5915 28.4085 47.3249 28.4085C49.0569 28.4085 50.4609 27.5391 50.4609 26.4658V17.8218C50.4609 17.5258 50.7009 17.2858 50.9969 17.2858H56.531C56.7426 17.2858 56.9141 17.4573 56.9141 17.669V23.2831C56.9141 23.9687 56.3584 24.5245 55.6728 24.5245H55.6461C53.9128 24.5245 52.5088 25.3938 52.5088 26.4658C52.5088 27.5392 53.9128 28.4085 55.6461 28.4085C57.3781 28.4085 58.7835 27.5391 58.7835 26.4658V15.8693C58.7835 15.3755 58.3831 14.9752 57.8894 14.9752L49.2209 14.9751Z" fill="#3B407A"/>
</svg>
