<svg width="64" height="64" viewBox="0 0 64 64" fill="none" xmlns="http://www.w3.org/2000/svg">
<path d="M18.5 41.9975V42.86C17.9987 42.755 17.4988 42.6454 17 42.5312V39.9675C17.434 40.1014 17.8138 40.3707 18.0837 40.7359C18.3536 41.1012 18.4995 41.5433 18.5 41.9975Z" fill="#AEADAA"/>
<path d="M54.5154 43.3539L23.7425 43.01L20 48V53H27V52.5C27 51.5718 27.3687 50.6815 28.0251 50.0251C28.6815 49.3688 29.5717 49 30.5 49H47.5C48.4283 49 49.3185 49.3688 49.9749 50.0251C50.6313 50.6815 51 51.5718 51 52.5V53H58V48L54.5154 43.3539Z" fill="#5B3719"/>
<path d="M21 9.70913V43.3539C32.8997 45.548 45.1003 45.548 57 43.3539V9.70913C45.1003 7.51501 32.8997 7.51501 21 9.70913Z" fill="#5B3719"/>
<path d="M34 8.19V44.8725C32.665 44.805 31.3317 44.7108 30 44.59V8.4725C31.3312 8.35125 32.6646 8.25709 34 8.19Z" fill="#7A4922"/>
<path d="M48 8.4725V44.59C46.6688 44.7113 45.3354 44.8054 44 44.8725V8.19C45.335 8.2575 46.6683 8.35167 48 8.4725Z" fill="#7A4922"/>
<path d="M21 21C32.684 17.1054 45.316 17.1054 57 21V15C45.316 11.1054 32.684 11.1054 21 15V21Z" fill="#7A4922"/>
<path d="M57 37V43.3537C45.1003 45.5475 32.8997 45.5475 21 43.3537V37C32.6839 40.895 45.3161 40.895 57 37Z" fill="#5B3719"/>
<path d="M21 26H57V31C45.316 34.8946 32.684 34.8946 21 31V26Z" fill="#7A4922"/>
<path d="M57 37V43.3537C45.1003 45.5475 32.8997 45.5475 21 43.3537V37C32.6839 40.895 45.3161 40.895 57 37Z" fill="#7A4922"/>
<path d="M17 10.5315V42.5315C18.329 42.8335 19.6623 43.1076 21 43.3539V9.70914C19.6626 9.9558 18.3292 10.2299 17 10.5315Z" fill="#D6D5D0"/>
<path d="M61 10.5315C59.671 10.2293 58.3377 9.95522 57 9.70914V43.3539C58.3373 43.1072 59.6707 42.8331 61 42.5315V10.5315Z" fill="#D6D5D0"/>
<path d="M7 26C5.93913 26 4.92172 26.4214 4.17157 27.1716C3.42143 27.9217 3 28.9391 3 30V34H7V31H8C8.88841 31.5923 9.93226 31.9083 11 31.9083C12.0677 31.9083 13.1116 31.5923 14 31H17V26H7Z" fill="#D78E0C"/>
<path d="M8 23H12V26H8V23Z" fill="#ECAB2C"/>
<path d="M12 17.25H8C6.89543 17.25 6 18.1454 6 19.25C6 20.3546 6.89543 21.25 8 21.25H12C13.1046 21.25 14 20.3546 14 19.25C14 18.1454 13.1046 17.25 12 17.25Z" fill="#ECAB2C"/>
<path d="M34 8.19V44.8725C32.665 44.805 31.3317 44.7108 30 44.59V8.4725C31.3312 8.35125 32.6646 8.25709 34 8.19Z" fill="#D6D5D0"/>
<path d="M48 8.4725V44.59C46.6688 44.7113 45.3354 44.8054 44 44.8725V8.19C45.335 8.2575 46.6683 8.35167 48 8.4725Z" fill="#D6D5D0"/>
<path d="M3 53H61V57H3V53Z" fill="#7A4922"/>
<path d="M3 42H13V53H3V42Z" fill="#ECAB2C"/>
<path d="M3 38H13V42H3V38Z" fill="#D6D5D0"/>
<path d="M9 47C9.55228 47 10 46.5523 10 46C10 45.4477 9.55228 45 9 45C8.44772 45 8 45.4477 8 46C8 46.5523 8.44772 47 9 47Z" fill="black"/>
<path d="M7 50C7.55228 50 8 49.5523 8 49C8 48.4477 7.55228 48 7 48C6.44772 48 6 48.4477 6 49C6 49.5523 6.44772 50 7 50Z" fill="black"/>
<path d="M62 42.5315V10.5315C62 10.3048 61.9229 10.0849 61.7815 9.90773C61.6401 9.73058 61.4427 9.60674 61.2216 9.5565C55.5978 8.28012 49.8746 7.49045 44.1152 7.19625C44.077 7.19166 44.0385 7.18928 44 7.18913C43.9949 7.18913 43.99 7.18975 43.9849 7.18988C42.3243 7.10704 40.6627 7.06458 39 7.0625C37.3348 7.0625 35.6699 7.10496 34.0052 7.18988H34C33.9646 7.18992 33.9293 7.1918 33.8941 7.1955C32.5781 7.26275 31.2637 7.356 29.9509 7.47525C29.9211 7.47675 29.8917 7.47925 29.8627 7.48325C25.4604 7.8854 21.0894 8.57795 16.7784 9.55637C16.5573 9.60661 16.3599 9.73046 16.2185 9.90761C16.0771 10.0848 16 10.3047 16 10.5314V25H13V23C13 22.7348 12.8946 22.4804 12.7071 22.2929C12.5196 22.1054 12.2652 22 12 22H11V21.5H12C12.7956 21.5 13.5587 21.1839 14.1213 20.6213C14.6839 20.0587 15 19.2956 15 18.5C15 17.7044 14.6839 16.9413 14.1213 16.3787C13.5587 15.8161 12.7956 15.5 12 15.5H8C7.20435 15.5 6.44129 15.8161 5.87868 16.3787C5.31607 16.9413 5 17.7044 5 18.5C5 19.2956 5.31607 20.0587 5.87868 20.6213C6.44129 21.1839 7.20435 21.5 8 21.5H9V22H8C7.73478 22 7.48043 22.1054 7.29289 22.2929C7.10536 22.4804 7 22.7348 7 23V25C5.67437 25.0015 4.40347 25.5288 3.46611 26.4661C2.52875 27.4035 2.00149 28.6744 2 30V34C2 34.2652 2.10536 34.5196 2.29289 34.7071C2.48043 34.8946 2.73478 35 3 35H7C7.26522 35 7.51957 34.8946 7.70711 34.7071C7.89464 34.5196 8 34.2652 8 34V32.1632C8.9732 32.6812 10.0639 32.9384 11.166 32.9098C12.2681 32.8812 13.344 32.5677 14.289 32H16V40.0064C15.9584 40.0039 15.9171 40 15.875 40H14V38C14 37.7348 13.8946 37.4804 13.7071 37.2929C13.5196 37.1054 13.2652 37 13 37H3C2.73478 37 2.48043 37.1054 2.29289 37.2929C2.10536 37.4804 2 37.7348 2 38V57C2 57.2652 2.10536 57.5196 2.29289 57.7071C2.48043 57.8946 2.73478 58 3 58H61C61.2652 58 61.5196 57.8946 61.7071 57.7071C61.8946 57.5196 62 57.2652 62 57V53C62 52.7348 61.8946 52.4804 61.7071 52.2929C61.5196 52.1054 61.2652 52 61 52H59V48C58.9999 47.7836 58.9298 47.5731 58.8 47.4L56.5827 44.4436C58.1364 44.167 59.6827 43.8545 61.2216 43.5061C61.4426 43.4559 61.64 43.3321 61.7814 43.155C61.9228 42.978 61.9999 42.7581 62 42.5315ZM49 9.57625C51.344 9.81608 53.6773 10.1392 56 10.5457V13.6319C53.7036 12.9277 51.3658 12.3663 49 11.9511V9.57625ZM49 13.9815C51.3683 14.4123 53.7065 14.9949 56 15.7257V19.6301C53.7036 18.9261 51.3658 18.365 49 17.95V13.9815ZM49 19.9815C51.3684 20.4131 53.7065 20.9965 56 21.7281V25H49V19.9815ZM49 27H56V30.2716C53.7065 31.0034 51.3684 31.5869 49 32.0184V27ZM49 34.0494C51.3658 33.6347 53.7036 33.0738 56 32.3699V36.2743C53.7065 37.0052 51.3683 37.5878 49 38.0185V34.0494ZM49 40.0494C51.3658 39.6343 53.7036 39.0731 56 38.3688L55.9805 42.5213C53.6667 42.9268 51.3398 43.2488 49 43.4874V40.0494ZM45 9.24938C45.6667 9.29021 46.3333 9.33733 47 9.39075V43.6725C46.3338 43.727 45.6672 43.7741 45 43.8139V9.24938ZM35 9.14525C36.3329 9.09075 37.6662 9.06342 39 9.06325C40.3338 9.06308 41.6671 9.09042 43 9.14525V11.2203C40.3365 11.0366 37.6635 11.0366 35 11.2203V9.14525ZM35 13.2254C37.6633 13.0351 40.3367 13.0351 43 13.2254V17.2191C40.3365 17.0353 37.6635 17.0353 35 17.2191V13.2254ZM35 19.2254C37.6633 19.0351 40.3367 19.0351 43 19.2254V25H35V19.2254ZM35 27.0004H43V32.7754C40.3367 32.9657 37.6633 32.9657 35 32.7754V27.0004ZM35 34.7812C36.3298 34.8729 37.6631 34.9194 39 34.9207C40.3353 34.9207 41.6686 34.874 43 34.7805V38.775C40.3368 38.9656 37.6633 38.9659 35 38.7759V34.7812ZM35 40.7812C36.3297 40.8729 37.663 40.9194 39 40.9207C40.3353 40.9207 41.6686 40.874 43 40.7805V43.918C41.6672 43.9727 40.3338 44 39 44C37.6662 44 36.3328 43.9727 35 43.918V40.7812ZM31 9.3905C31.6662 9.336 32.3328 9.28887 33 9.24912V43.8139C32.3333 43.773 31.6667 43.7259 31 43.6725V9.3905ZM22 10.5457C24.3202 10.1385 26.6536 9.81533 29 9.57625V11.9513C26.6342 12.3663 24.2964 12.9276 22 13.6318V10.5457ZM22 15.7257C24.2935 14.9949 26.6317 14.4123 29 13.9816V17.95C26.6342 18.3651 24.2964 18.9263 22 19.6303V15.7257ZM22 21.7285C24.2934 20.9964 26.6316 20.4126 29 19.9807V25H22V21.7285ZM22 27H29V32.0179C26.6316 31.5865 24.2935 31.0032 22 30.2716V27ZM22 32.3699C24.2964 33.0737 26.6342 33.6345 29 34.0493V38.0192C26.6317 37.5882 24.2935 37.0053 22 36.2743V32.3699ZM22 38.368C24.2964 39.0722 26.6342 39.6335 29 40.0486V43.4861C26.656 43.2463 24.3227 42.9231 22 42.5166V38.368ZM18 11.333C18.665 11.1875 19.332 11.0513 20 10.9196V42.1432C19.332 42.0117 18.665 41.8754 18 41.73V11.333ZM8 19.5C7.73478 19.5 7.48043 19.3946 7.29289 19.2071C7.10536 19.0196 7 18.7652 7 18.5C7 18.2348 7.10536 17.9804 7.29289 17.7929C7.48043 17.6054 7.73478 17.5 8 17.5H12C12.2652 17.5 12.5196 17.6054 12.7071 17.7929C12.8946 17.9804 13 18.2348 13 18.5C13 18.7652 12.8946 19.0196 12.7071 19.2071C12.5196 19.3946 12.2652 19.5 12 19.5H8ZM9 24H11V25H9V24ZM14 30C13.8026 30 13.6095 30.0585 13.4452 30.168C12.7217 30.6523 11.8707 30.9109 11 30.9109C10.1293 30.9109 9.27828 30.6523 8.55475 30.168C8.39047 30.0585 8.19745 30 8 30H7C6.73478 30 6.48043 30.1054 6.29289 30.2929C6.10536 30.4804 6 30.7348 6 31V33H4V30C4.00093 29.2046 4.31729 28.4421 4.8797 27.8797C5.44211 27.3173 6.20463 27.0009 7 27H16V30H14ZM14 42H15.875C15.9082 42 15.9399 42.0132 15.9634 42.0366C15.9868 42.0601 16 42.0918 16 42.125V47.875C16 47.9082 15.9868 47.9399 15.9634 47.9634C15.9399 47.9868 15.9082 48 15.875 48H14V42ZM14 50H15.875C16.4384 49.9994 16.9785 49.7753 17.3769 49.3769C17.7753 48.9785 17.9994 48.4384 18 47.875V43.775C19.1349 44.018 20.274 44.2408 21.4172 44.4434L19.2 47.4C19.0702 47.5731 19.0001 47.7836 19 48V52H14V50ZM4 39H12V41H4V39ZM4 43H12V52H4V43ZM60 54V56H4V54H60ZM28.05 52C28.166 51.4357 28.473 50.9286 28.9193 50.5642C29.3656 50.1999 29.9239 50.0006 30.5 50H47.5C48.0761 50.0006 48.6344 50.1999 49.0807 50.5642C49.527 50.9286 49.834 51.4357 49.95 52H28.05ZM57 48.3334V52H51.9724C51.848 50.9005 51.3234 49.8852 50.4986 49.1475C49.6739 48.4098 48.6065 48.0014 47.5 48H30.5C29.3935 48.0014 28.3261 48.4098 27.5014 49.1475C26.6766 49.8852 26.152 50.9005 26.0276 52H21V48.3334L23.6384 44.8155C25.7044 45.1355 27.7792 45.3902 29.8627 45.5795C29.8917 45.5833 29.9211 45.586 29.9509 45.5875C32.96 45.8603 35.9764 45.9978 39 46C42.0192 46 45.0356 45.8625 48.0491 45.5875C48.0789 45.586 48.1082 45.5833 48.1372 45.5795C50.2192 45.3887 52.294 45.1341 54.3616 44.8155L57 48.3334ZM60 41.73C59.3311 41.8763 58.6601 42.0134 57.9883 42.1456C57.9951 42.098 58 10.9196 58 10.9196C58.668 11.0513 59.335 11.1875 60 11.333V41.73Z" fill="black"/>
</svg>
