<svg width="64" height="64" viewBox="0 0 64 64" fill="none" xmlns="http://www.w3.org/2000/svg">
<path d="M5 7H9V11H5V7Z" fill="#6A7073"/>
<path d="M17 7H21V11H17V7Z" fill="#6A7073"/>
<path d="M30 7H34V11H30V7Z" fill="#6A7073"/>
<path d="M43 7H47V11H43V7Z" fill="#6A7073"/>
<path d="M55 7H59V11H55V7Z" fill="#6A7073"/>
<path d="M13 41H21V53H13V41Z" fill="#6A7073"/>
<path d="M43 41H51V53H43V41Z" fill="#6A7073"/>
<path d="M37 49H27L25 53H39L37 49Z" fill="#6A7073"/>
<path d="M3 3H11V7H3V3Z" fill="#F7B030"/>
<path d="M15 3H23V7H15V3Z" fill="#F7B030"/>
<path d="M27 3H37V7H27V3Z" fill="#F7B030"/>
<path d="M41 3H49V7H41V3Z" fill="#F7B030"/>
<path d="M53 3H61V7H53V3Z" fill="#F7B030"/>
<path d="M13 23H21V27H13V23Z" fill="#F7B030"/>
<path d="M17 17C17.7956 17 18.5587 17.3161 19.1213 17.8787C19.6839 18.4413 20 19.2044 20 20V23H14V20C14 19.2044 14.3161 18.4413 14.8787 17.8787C15.4413 17.3161 16.2044 17 17 17Z" fill="#DADCDE"/>
<path d="M43 23H51V27H43V23Z" fill="#F7B030"/>
<path d="M47 17C47.7956 17 48.5587 17.3161 49.1213 17.8787C49.6839 18.4413 50 19.2044 50 20V23H44V20C44 19.2044 44.3161 18.4413 44.8787 17.8787C45.4413 17.3161 46.2044 17 47 17Z" fill="#DADCDE"/>
<path d="M2 53H62V61H2V53Z" fill="#4F5659"/>
<path d="M17 51C18.1046 51 19 50.1046 19 49C19 47.8954 18.1046 47 17 47C15.8954 47 15 47.8954 15 49C15 50.1046 15.8954 51 17 51Z" fill="#7E8589"/>
<path d="M47 51C48.1046 51 49 50.1046 49 49C49 47.8954 48.1046 47 47 47C45.8954 47 45 47.8954 45 49C45 50.1046 45.8954 51 47 51Z" fill="#7E8589"/>
<path d="M17 46C16.4067 46 15.8266 46.1759 15.3333 46.5056C14.8399 46.8352 14.4554 47.3038 14.2284 47.852C14.0013 48.4001 13.9419 49.0033 14.0576 49.5853C14.1734 50.1672 14.4591 50.7018 14.8787 51.1213C15.2982 51.5409 15.8328 51.8266 16.4147 51.9424C16.9967 52.0581 17.5999 51.9987 18.1481 51.7716C18.6962 51.5446 19.1648 51.1601 19.4944 50.6667C19.8241 50.1734 20 49.5933 20 49C19.9991 48.2046 19.6828 47.4421 19.1203 46.8797C18.5579 46.3172 17.7954 46.0009 17 46ZM17 50C16.8022 50 16.6089 49.9414 16.4444 49.8315C16.28 49.7216 16.1518 49.5654 16.0761 49.3827C16.0004 49.2 15.9806 48.9989 16.0192 48.8049C16.0578 48.6109 16.153 48.4327 16.2929 48.2929C16.4327 48.153 16.6109 48.0578 16.8049 48.0192C16.9989 47.9806 17.2 48.0004 17.3827 48.0761C17.5654 48.1518 17.7216 48.28 17.8315 48.4444C17.9414 48.6089 18 48.8022 18 49C17.9997 49.2651 17.8943 49.5193 17.7068 49.7068C17.5193 49.8943 17.2651 49.9997 17 50Z" fill="black"/>
<path d="M47 46C46.4067 46 45.8266 46.1759 45.3333 46.5056C44.8399 46.8352 44.4554 47.3038 44.2284 47.852C44.0013 48.4001 43.9419 49.0033 44.0576 49.5853C44.1734 50.1672 44.4591 50.7018 44.8787 51.1213C45.2982 51.5409 45.8328 51.8266 46.4147 51.9424C46.9967 52.0581 47.5999 51.9987 48.148 51.7716C48.6962 51.5446 49.1648 51.1601 49.4944 50.6667C49.8241 50.1734 50 49.5933 50 49C49.9991 48.2046 49.6827 47.4421 49.1203 46.8797C48.5579 46.3173 47.7954 46.0009 47 46ZM47 50C46.8022 50 46.6089 49.9414 46.4444 49.8315C46.28 49.7216 46.1518 49.5654 46.0761 49.3827C46.0004 49.2 45.9806 48.9989 46.0192 48.8049C46.0578 48.6109 46.153 48.4327 46.2929 48.2929C46.4327 48.153 46.6109 48.0578 46.8049 48.0192C46.9989 47.9806 47.2 48.0004 47.3827 48.0761C47.5654 48.1518 47.7216 48.28 47.8315 48.4444C47.9414 48.6089 48 48.8022 48 49C47.9997 49.2651 47.8943 49.5193 47.7068 49.7068C47.5193 49.8943 47.2651 49.9997 47 50Z" fill="black"/>
<path d="M61 8C61.2652 8 61.5196 7.89464 61.7071 7.70711C61.8946 7.51957 62 7.26522 62 7V3C62 2.73478 61.8946 2.48043 61.7071 2.29289C61.5196 2.10536 61.2652 2 61 2H53C52.7348 2 52.4804 2.10536 52.2929 2.29289C52.1054 2.48043 52 2.73478 52 3V7C52 7.26522 52.1054 7.51957 52.2929 7.70711C52.4804 7.89464 52.7348 8 53 8H54V10H48V8H49C49.2652 8 49.5196 7.89464 49.7071 7.70711C49.8946 7.51957 50 7.26522 50 7V3C50 2.73478 49.8946 2.48043 49.7071 2.29289C49.5196 2.10536 49.2652 2 49 2H41C40.7348 2 40.4804 2.10536 40.2929 2.29289C40.1054 2.48043 40 2.73478 40 3V7C40 7.26522 40.1054 7.51957 40.2929 7.70711C40.4804 7.89464 40.7348 8 41 8H42V10H35V8H37C37.2652 8 37.5196 7.89464 37.7071 7.70711C37.8946 7.51957 38 7.26522 38 7V3C38 2.73478 37.8946 2.48043 37.7071 2.29289C37.5196 2.10536 37.2652 2 37 2H27C26.7348 2 26.4804 2.10536 26.2929 2.29289C26.1054 2.48043 26 2.73478 26 3V7C26 7.26522 26.1054 7.51957 26.2929 7.70711C26.4804 7.89464 26.7348 8 27 8H29V10H22V8H23C23.2652 8 23.5196 7.89464 23.7071 7.70711C23.8946 7.51957 24 7.26522 24 7V3C24 2.73478 23.8946 2.48043 23.7071 2.29289C23.5196 2.10536 23.2652 2 23 2H15C14.7348 2 14.4804 2.10536 14.2929 2.29289C14.1054 2.48043 14 2.73478 14 3V7C14 7.26522 14.1054 7.51957 14.2929 7.70711C14.4804 7.89464 14.7348 8 15 8H16V10H10V8H11C11.2652 8 11.5196 7.89464 11.7071 7.70711C11.8946 7.51957 12 7.26522 12 7V3C12 2.73478 11.8946 2.48043 11.7071 2.29289C11.5196 2.10536 11.2652 2 11 2H3C2.73478 2 2.48043 2.10536 2.29289 2.29289C2.10536 2.48043 2 2.73478 2 3V7C2 7.26522 2.10536 7.51957 2.29289 7.70711C2.48043 7.89464 2.73478 8 3 8H4V10H3C2.73478 10 2.48043 10.1054 2.29289 10.2929C2.10536 10.4804 2 10.7348 2 11V61C2 61.2652 2.10536 61.5196 2.29289 61.7071C2.48043 61.8946 2.73478 62 3 62H61C61.2652 62 61.5196 61.8946 61.7071 61.7071C61.8946 61.5196 62 61.2652 62 61V11C62 10.7348 61.8946 10.4804 61.7071 10.2929C61.5196 10.1054 61.2652 10 61 10H60V8H61ZM54 4H60V6H54V4ZM60 12V14.5857L57.4142 12H60ZM50 49V52H44V42H50V49ZM51 40H43C42.7348 40 42.4804 40.1054 42.2929 40.2929C42.1054 40.4804 42 40.7348 42 41V52H39.618L37.8944 48.5527C37.8113 48.3867 37.6837 48.247 37.5257 48.1493C37.3677 48.0517 37.1857 48 37 48H27C26.8143 48 26.6323 48.0517 26.4743 48.1493C26.3163 48.247 26.1887 48.3867 26.1056 48.5527L24.382 52H22V41C22 40.7348 21.8946 40.4804 21.7071 40.2929C21.5196 40.1054 21.2652 40 21 40H13C12.7348 40 12.4804 40.1054 12.2929 40.2929C12.1054 40.4804 12 40.7348 12 41V52H10V18H13.5381C13.1852 18.6074 12.9995 19.2975 13 20V22C12.7348 22 12.4804 22.1054 12.2929 22.2929C12.1054 22.4804 12 22.7348 12 23V27C12 27.2652 12.1054 27.5196 12.2929 27.7071C12.4804 27.8946 12.7348 28 13 28H21C21.2652 28 21.5196 27.8946 21.7071 27.7071C21.8946 27.5196 22 27.2652 22 27V23C22 22.7348 21.8946 22.4804 21.7071 22.2929C21.5196 22.1054 21.2652 22 21 22V20C21.0005 19.2975 20.8148 18.6074 20.4619 18H43.5381C43.1852 18.6074 42.9995 19.2975 43 20V22C42.7348 22 42.4804 22.1054 42.2929 22.2929C42.1054 22.4804 42 22.7348 42 23V27C42 27.2652 42.1054 27.5196 42.2929 27.7071C42.4804 27.8946 42.7348 28 43 28H51C51.2652 28 51.5196 27.8946 51.7071 27.7071C51.8946 27.5196 52 27.2652 52 27V23C52 22.7348 51.8946 22.4804 51.7071 22.2929C51.5196 22.1054 51.2652 22 51 22V20C51.0005 19.2975 50.8148 18.6074 50.4619 18H54V52H52V41C52 40.7348 51.8946 40.4804 51.7071 40.2929C51.5196 40.1054 51.2652 40 51 40ZM37.382 52H26.618L27.618 50H36.382L37.382 52ZM20 49V52H14V42H20V49ZM49 20V22H45V20C45 19.4696 45.2107 18.9609 45.5858 18.5858C45.9609 18.2107 46.4696 18 47 18C47.5304 18 48.0391 18.2107 48.4142 18.5858C48.7893 18.9609 49 19.4696 49 20ZM44 24H50V26H44V24ZM19 20V22H15V20C15 19.4696 15.2107 18.9609 15.5858 18.5858C15.9609 18.2107 16.4696 18 17 18C17.5304 18 18.0391 18.2107 18.4142 18.5858C18.7893 18.9609 19 19.4696 19 20ZM14 24H20V26H14V24ZM18 16V13.4143L20.5858 16H18ZM42 16V13.4143L44.5858 16H42ZM43.4142 12H46V14.5857L43.4142 12ZM40 14.5857L37.4142 12H40V14.5857ZM38.5858 16H36V13.4143L38.5858 16ZM34 12V14.5857L31.4142 12H34ZM32.5858 16H30V13.4143L32.5858 16ZM28 14.5857L25.4142 12H28V14.5857ZM26.5858 16H24V13.4143L26.5858 16ZM22 14.5857L19.4142 12H22V14.5857ZM16 16H10V12H16V16ZM8 26.5858L5.41425 24H8V26.5858ZM8 32.5858L5.41425 30H8V32.5858ZM8 38.5858L5.41425 36H8V38.5858ZM8 44.5858L5.41425 42H8V44.5858ZM8 50.5858L5.41425 48H8V50.5858ZM8 20.5858L5.41425 18H8V20.5858ZM8 14.5857L5.41425 12H8V14.5857ZM6.58575 16H4V13.4143L6.58575 16ZM6.58575 22H4V19.4142L6.58575 22ZM6.58575 28H4V25.4142L6.58575 28ZM6.58575 34H4V31.4142L6.58575 34ZM6.58575 40H4V37.4142L6.58575 40ZM6.58575 46H4V43.4142L6.58575 46ZM4 49.4142L6.58575 52H4V49.4142ZM56 37.4142L58.5858 40H56V37.4142ZM56 31.4142L58.5858 34H56V31.4142ZM56 25.4142L58.5858 28H56V25.4142ZM56 19.4142L58.5858 22H56V19.4142ZM56 43.4142L58.5858 46H56V43.4142ZM57.4142 42H60V44.5858L57.4142 42ZM57.4142 36H60V38.5858L57.4142 36ZM57.4142 30H60V32.5858L57.4142 30ZM57.4142 24H60V26.5858L57.4142 24ZM57.4142 18H60V20.5858L57.4142 18ZM56 16V13.4143L58.5858 16H56ZM56 49.4142L58.5858 52H56V49.4142ZM57.4142 48H60V50.5858L57.4142 48ZM54 16H48V12H54V16ZM42 4H48V6H42V4ZM44 8H46V10H44V8ZM28 4H36V6H28V4ZM31 8H33V10H31V8ZM16 4H22V6H16V4ZM18 8H20V10H18V8ZM4 4H10V6H4V4ZM6 8H8V10H6V8ZM60 60H4V54H60V60ZM58 10H56V8H58V10Z" fill="black"/>
</svg>
