<svg width="64" height="64" viewBox="0 0 64 64" fill="none" xmlns="http://www.w3.org/2000/svg">
<path d="M59.7885 16.125C54.2735 6.49125 43.8935 0 31.9985 0C20.1035 0 9.7235 6.49125 4.2085 16.125C4.2085 27.6554 13.5556 37.0025 25.086 37.0025H38.911C50.4414 37.0025 59.7885 27.6554 59.7885 16.125Z" fill="#FFE400"/>
<path d="M63.9985 32C63.9985 44.85 56.4235 55.9313 45.496 61.0213C41.3948 62.9325 36.821 64 31.9985 64C28.141 64 24.4435 63.3175 21.0198 62.0662L21.021 62.065L14.5798 49.4188L1.93354 42.9775L1.93229 42.98C0.681035 39.555 -0.00146484 35.8575 -0.00146484 32C-0.00146484 26.2225 1.52979 20.8038 4.20854 16.125C8.00104 22.7488 14.0935 27.8875 21.3973 30.4513C24.7148 31.6163 28.2823 32.25 31.9985 32.25C35.716 32.25 39.2848 31.6163 42.6035 30.45C49.906 27.8863 55.9973 22.7488 59.7885 16.125C62.4673 20.8038 63.9985 26.2225 63.9985 32Z" fill="#FFC800"/>
<path d="M34.3074 29.6913L9.37122 54.6275C5.96122 51.2175 3.48185 47.2285 1.93335 42.977C2.2356 39.9558 3.46685 37.1248 5.65972 34.9318C8.06397 32.5277 11.2317 31.2796 14.5772 31.1443C15.6255 31.102 16.5554 30.4637 16.9876 29.5065C17.6505 28.0392 18.5962 26.6657 19.8249 25.4707C19.8433 25.4521 19.8637 25.4336 19.8824 25.4151C21.4662 23.8931 23.562 23.2275 25.5976 23.4087C27.2602 23.5546 28.8812 24.2652 30.1505 25.5345L34.3074 29.6913Z" fill="#C94D31"/>
<path d="M29.0667 58.339C26.8738 60.5319 24.0427 61.7632 21.0216 62.0655C16.7701 60.5169 12.7811 58.0377 9.37109 54.6277L34.3073 29.6914L38.4642 33.8483C39.7326 35.1167 40.4467 36.7395 40.5935 38.4029C40.7738 40.427 40.118 42.5094 38.611 44.0872C38.5402 44.1614 38.4687 44.2348 38.3953 44.3082C37.249 45.4545 35.9443 46.3455 34.5531 46.9837C33.5622 47.437 32.9002 48.396 32.8516 49.4842C32.704 52.805 31.4558 55.9499 29.0667 58.339Z" fill="#903D32"/>
<path d="M32.1153 31.8835L25.0664 45.6409L9.38767 54.6111C4.1428 49.3664 3.4538 41.5214 7.85142 37.1239C9.62742 35.3479 11.9967 34.3511 14.704 34.242C16.9319 34.1507 18.8904 32.8256 19.8129 30.783C20.3345 29.6279 21.0655 28.5891 21.9862 27.6935L21.9987 27.681C22.013 27.6666 22.0273 27.6541 22.0417 27.6399C23.6879 26.0687 26.339 26.1072 27.9584 27.7266L32.1153 31.8835Z" fill="#D85F39"/>
<path d="M29.754 49.3456C29.8551 47.0953 31.1981 45.1099 33.2622 44.1642C34.3547 43.6641 35.3451 42.9742 36.2032 42.1162C36.2587 42.0607 36.3123 42.0052 36.3652 41.9507C37.9346 40.3079 37.8907 37.6587 36.2722 36.0402L32.1153 31.8833L9.38745 54.6109C14.6323 59.8558 22.4772 60.5447 26.8747 56.1472C28.6391 54.3828 29.635 52.0306 29.754 49.3456Z" fill="#C94D31"/>
<path d="M39.9554 24.0434L35.0666 31.271L28.0659 35.9329L26.8721 32.4493L36.2447 23.0767L39.9554 24.0434Z" fill="#721570"/>
<path d="M40.9222 27.7542L31.5495 37.1268L28.0659 35.933L39.9554 24.0435L40.9222 27.7542Z" fill="#600A5A"/>
<path d="M29.2108 34.788L27.5055 38.909L22.7955 41.2032L20.4568 38.8645L26.872 32.4492L29.2108 34.788Z" fill="#600A5A"/>
<path d="M22.7891 41.2017L29.2033 34.7874L31.5417 37.1258L25.1275 43.5401L22.7891 41.2017Z" fill="#350231"/>
<path d="M44.9986 18.9999L43.3746 23.0396L38.5835 25.415L36.2446 23.0764L42.6599 16.6611L44.9986 18.9999Z" fill="#600A5A"/>
<path d="M38.5771 25.417L44.9914 19.0027L47.3298 21.3411L40.9156 27.7554L38.5771 25.417Z" fill="#350231"/>
<path d="M27.5244 36.4743L24.3435 42.751L18.0659 45.9328C15.454 43.3209 15.4549 39.0861 18.0668 36.4744C20.6788 33.8624 24.9125 33.8624 27.5244 36.4743Z" fill="white"/>
<path d="M27.5243 45.9316C24.9124 48.5435 20.6778 48.5444 18.0659 45.9325L27.5243 36.4741C30.1362 39.086 30.1362 43.3197 27.5243 45.9316Z" fill="#D0F6FF"/>
<path d="M25.1334 38.8653L23.5822 41.9899L20.4567 43.542C19.1644 42.2498 19.1653 40.1559 20.4567 38.8645C21.7482 37.573 23.8412 37.573 25.1334 38.8653Z" fill="#600A5A"/>
<path d="M25.1343 43.5419C23.8429 44.8332 21.749 44.8341 20.4568 43.5419L25.1334 38.8652C26.4257 40.1575 26.4257 42.2505 25.1343 43.5419Z" fill="#350231"/>
<path d="M16.7267 47.2718L17.0737 49.3406L14.5797 49.4188L11.6929 46.5321C11.1749 46.0141 11.1749 45.1745 11.6929 44.6565L11.9643 44.3851C12.4823 43.8671 13.3219 43.8671 13.8399 44.3851L16.7267 47.2718Z" fill="#FF9D00"/>
<path d="M52.6881 11.3104L47.9841 19.7218L40.8119 23.1867C38.7144 21.0892 36.6187 19.7837 38.7152 17.6872C39.2552 17.1472 39.8802 16.7467 40.5466 16.4851C41.762 16.0087 42.629 14.9329 42.8261 13.6434C43.0321 12.3026 43.6499 11.0131 44.6822 9.98055L44.6896 9.97318C46.542 8.1208 49.549 8.13155 51.3887 9.99655C52.0082 10.6244 52.6881 11.3104 52.6881 11.3104Z" fill="#D85F39"/>
<path d="M47.5134 23.452C47.2518 24.1185 46.8514 24.7434 46.3113 25.2834C44.2146 27.38 42.9091 25.2843 40.8118 23.1868L52.688 11.3105L54.0179 12.6403C55.8614 14.4838 55.8614 17.4728 54.0179 19.3163C52.9855 20.3487 51.6959 20.9665 50.355 21.1724C49.0655 21.3695 47.9899 22.2367 47.5134 23.452Z" fill="#C94D31"/>
<path d="M19.6136 52.0341L19.3422 52.3055C18.8242 52.8235 17.9846 52.8235 17.4666 52.3055L14.5798 49.4187L16.7268 47.2717L19.6136 50.1585C20.1316 50.6765 20.1316 51.5161 19.6136 52.0341Z" fill="#FF8500"/>
<path d="M47.9045 13.9848C47.4631 14.4262 46.7476 14.4262 46.3064 13.9848C45.865 13.5436 45.865 12.8281 46.3064 12.3867C46.7476 11.9453 47.4632 11.9453 47.9045 12.3867C48.3459 12.8281 48.3459 13.5436 47.9045 13.9848Z" fill="#82240B"/>
<path d="M44.2767 17.1445C44.9008 17.1445 45.4067 16.6386 45.4067 16.0145C45.4067 15.3904 44.9008 14.8845 44.2767 14.8845C43.6526 14.8845 43.1467 15.3904 43.1467 16.0145C43.1467 16.6386 43.6526 17.1445 44.2767 17.1445Z" fill="#82240B"/>
<path d="M42.247 19.6423C41.8058 20.0837 41.0902 20.0837 40.6489 19.6423C40.2075 19.201 40.2075 18.4854 40.6489 18.0442C41.0902 17.6028 41.8058 17.6028 42.247 18.0442C42.6883 18.4854 42.6883 19.2009 42.247 19.6423Z" fill="#82240B"/>
<path d="M51.6118 17.6922C51.1704 18.1336 50.4549 18.1336 50.0136 17.6922C49.5723 17.2509 49.5723 16.5354 50.0136 16.0941C50.4549 15.6529 51.1704 15.6529 51.6118 16.0941C52.053 16.5354 52.053 17.2509 51.6118 17.6922Z" fill="#82240B"/>
<path d="M47.984 20.8518C48.6081 20.8518 49.114 20.3459 49.114 19.7218C49.114 19.0977 48.6081 18.5918 47.984 18.5918C47.3599 18.5918 46.854 19.0977 46.854 19.7218C46.854 20.3459 47.3599 20.8518 47.984 20.8518Z" fill="#82240B"/>
<path d="M45.9543 23.3496C45.5129 23.7909 44.7974 23.7909 44.3562 23.3496C43.9148 22.9083 43.9148 22.1927 44.3562 21.7514C44.7974 21.3101 45.5129 21.3101 45.9543 21.7514C46.3957 22.1928 46.3957 22.9083 45.9543 23.3496Z" fill="#82240B"/>
<path d="M30.0356 12.2013C30.2769 11.3466 29.8989 10.4175 29.1289 9.97776C29.1263 9.97626 29.1237 9.97476 29.1209 9.97326C28.6957 9.73138 28.5024 9.22301 28.6851 8.76913L30.1273 5.18351H30.1272L24.1639 4.20801L21.6599 10.4338C21.2858 11.3639 21.6941 12.5291 22.5939 12.9695C23.6939 13.5084 25.0107 12.9273 25.3478 11.7389C25.5892 10.8843 25.2112 9.95513 24.4412 9.51538C24.4386 9.51388 24.4358 9.51238 24.4332 9.51088C24.0079 9.26901 23.8147 8.76063 23.9973 8.30676L24.7341 6.47526L27.9092 7.01751L26.3488 10.8966C25.9747 11.8268 26.3819 12.9916 27.2818 13.432C28.3818 13.9708 29.6986 13.3898 30.0356 12.2013Z" fill="#490041"/>
<path d="M45.3218 57.4118C45.5632 56.5572 45.1852 55.6281 44.4152 55.1883C44.4126 55.1868 44.4099 55.1853 44.4072 55.1838C43.9819 54.942 43.7887 54.4336 43.9713 53.9797L45.4137 50.3941L39.4503 49.4187L36.9461 55.6443C36.5719 56.5745 36.9802 57.7398 37.8801 58.1801C38.9801 58.719 40.2968 58.1378 40.6339 56.9495C40.8753 56.0948 40.4973 55.1657 39.7273 54.726C39.7247 54.7245 39.7221 54.723 39.7193 54.7215C39.2941 54.4796 39.1008 53.9712 39.2834 53.5173L40.0202 51.6858L43.1953 52.2281L41.6349 56.1072C41.2608 57.0373 41.6681 58.2022 42.5679 58.6426C43.6681 59.1813 44.9848 58.6002 45.3218 57.4118Z" fill="#490041"/>
<path d="M10.069 28.7888C10.6703 28.1353 10.7527 27.1357 10.2643 26.3954C10.2627 26.3929 10.2609 26.3903 10.2593 26.3878C9.98916 25.9799 10.0463 25.4392 10.4142 25.1167L13.3202 22.5688L10.5549 20.5498L8.89529 22.0049L10.5129 23.2036L7.36891 25.9601C6.61504 26.6209 6.45241 27.8443 7.05641 28.6434C7.79441 29.6207 9.23166 29.6968 10.069 28.7888Z" fill="#490041"/>
<path d="M59.6716 34.1635C59.2016 33.41 58.2599 33.0647 57.4165 33.3386C57.4136 33.3396 57.4108 33.3405 57.4078 33.3415C56.9428 33.4934 56.4366 33.2945 56.2235 32.8541L54.5405 29.375L51.8586 31.5036L52.8198 33.4905L54.4055 32.25L56.2263 36.014C56.6629 36.9165 57.7988 37.3987 58.7299 37.029C59.8685 36.5775 60.3243 35.2122 59.6716 34.1635Z" fill="#490041"/>
</svg>
