<svg width="64" height="64" viewBox="0 0 64 64" fill="none" xmlns="http://www.w3.org/2000/svg">
<g clip-path="url(#clip0_2_3882)">
<path d="M63.9988 32C63.9988 49.6731 49.6719 64 31.9988 64C24.8614 64 18.2697 61.6632 12.9472 57.7131C12.7608 57.5747 12.9348 56.8732 12.7515 56.731C12.0378 56.1769 11.348 55.5933 10.6843 54.9819C10.5244 54.8346 10.0073 55.247 9.8504 55.0966C3.77865 49.2726 -0.0012207 41.0778 -0.0012207 32C-0.0012207 14.3269 14.3257 0 31.9988 0C49.6719 0 63.9988 14.3269 63.9988 32Z" fill="#005F80"/>
<path d="M63.9988 22.625C63.9988 35.1204 53.8693 45.25 41.3738 45.25C28.8783 45.25 18.7488 35.1204 18.7488 22.625C18.7488 10.1296 28.8783 0 41.3738 0C53.8693 0 63.9988 10.1296 63.9988 22.625Z" fill="#007298"/>
<path d="M37.4796 1.05609L42.0318 10.2801C42.3078 10.8392 42.8412 11.2268 43.4583 11.3165L53.6375 12.7956C55.1915 13.0213 55.812 14.9311 54.6875 16.0272L47.3218 23.2071C46.8753 23.6423 46.6716 24.2695 46.7769 24.8841L48.5158 35.0222C48.7813 36.57 47.1568 37.7502 45.7668 37.0195L36.6622 32.2328C36.1102 31.9427 35.4508 31.9427 34.8989 32.2328L25.7943 37.0195C24.4043 37.7502 22.7798 36.57 23.0453 35.0222L24.7842 24.8841C24.8896 24.2695 24.6858 23.6423 24.2393 23.2071L16.8736 16.0272C15.7491 14.9311 16.3695 13.0213 17.9235 12.7956L28.1028 11.3165C28.7199 11.2268 29.2533 10.8392 29.5293 10.2801L34.0815 1.05609C34.7765 -0.352031 36.7846 -0.352031 37.4796 1.05609Z" fill="#FFEF31"/>
<path d="M37.5104 1.11894L32.2938 12.9068C32.0437 13.4554 31.5397 13.8458 30.9461 13.9507L23.7418 15.0266C22.2468 15.2909 21.7038 17.1548 22.8229 18.1807L30.1541 24.9006C30.5984 25.3079 30.8141 25.9079 30.7304 26.5049L29.5331 35.0537L25.7941 37.0194C24.4041 37.7502 22.7796 36.5698 23.0451 35.0221L24.7839 24.8841C24.8893 24.2694 24.6856 23.6423 24.2391 23.2071L16.8733 16.0272C15.7488 14.9311 16.3693 13.0214 17.9233 12.7956L28.1026 11.3164C28.7197 11.2268 29.2531 10.8392 29.5291 10.2799L34.0813 1.05594C34.7763 -0.352307 36.7843 -0.352307 37.4793 1.05594L37.5104 1.11894Z" fill="#FFEA00"/>
<path d="M37.7774 17.3375L32.1164 21.0569C32.1163 21.0569 32.1163 21.0569 32.1162 21.057L24.8294 25.8446C24.1518 26.2899 23.2337 26.0894 22.7788 25.3971C22.3239 24.7049 22.5044 23.7826 23.1821 23.3374L30.4688 18.5497C30.4689 18.5497 30.4689 18.5497 30.4691 18.5496L36.1299 14.8302C36.8076 14.385 37.7257 14.5855 38.1806 15.2777C38.6356 15.97 38.4551 16.8922 37.7774 17.3375Z" fill="#C57A44"/>
<path d="M28.5249 23.582C28.6008 23.6974 28.5687 23.8524 28.4533 23.9283L23.5413 27.1555C22.6758 27.7242 21.5133 27.4835 20.9447 26.6182C20.376 25.7527 20.6167 24.5902 21.4822 24.0215L26.394 20.7943C26.5094 20.7184 26.6644 20.7505 26.7403 20.8659L28.5249 23.582Z" fill="#FF3980"/>
<path d="M32.1525 51.1367L32.0642 61.6131C32.0642 62.6596 31.216 62.8361 30.1695 62.8361C29.1231 62.8361 28.2747 61.9878 28.2747 60.9413L28.3582 51.6585L22.8645 45.1132C22.3895 44.5473 21.6885 44.2205 20.9496 44.2205H19.4636C18.4026 44.2205 17.4572 44.8901 17.1052 45.891L14.7622 52.5525C14.7621 52.5527 14.762 52.553 14.762 52.5532L12.9471 57.7128C11.8598 56.906 10.8255 56.0317 9.85034 55.0963L11.1871 51.2958C11.1871 51.2958 11.1871 51.2957 11.1872 51.2957L13.9175 43.5335C14.3128 42.4096 14.5147 41.2267 14.5147 40.0353V38.6472C14.5147 37.8707 15.1442 37.2412 15.9207 37.2412H23.6088C24.3853 37.2412 25.0147 37.8707 25.0147 38.6472V40.41C25.0147 41.2953 25.3267 42.1525 25.896 42.8306L31.6703 49.7102C31.9125 49.9987 32.0538 50.338 32.0985 50.6857C32.1337 50.8301 32.1525 50.9812 32.1525 51.1367Z" fill="#4BCD5C"/>
<path d="M11.9023 56.9036C11.1927 56.3302 10.5081 55.7272 9.85034 55.0963L11.1871 51.2958L11.1872 51.2957L13.9173 43.5336C14.3127 42.4096 14.5146 41.2268 14.5146 40.0353V38.6472C14.5146 37.8707 15.1441 37.2412 15.9205 37.2412H18.0527C17.4412 37.4687 17.0056 38.0577 17.0056 38.7485V40.3358C17.0056 41.6983 16.7746 43.051 16.3226 44.3362L13.2005 53.2126L13.2003 53.2127L11.9023 56.9036Z" fill="#00C53B"/>
<path d="M35.3283 62.863C35.3283 63.4909 34.8083 63.9999 34.1668 63.9999H29.4364C28.7949 63.9999 28.2749 63.4909 28.2749 62.863V60.9414L34.3214 61.7363C34.8979 61.8122 35.3283 62.2938 35.3283 62.863Z" fill="#D9E7EC"/>
<path d="M25.0149 27.1082V38.7153H14.5149V27.1082C14.5149 24.2087 16.8654 21.8582 19.7649 21.8582C22.6644 21.8582 25.0149 24.2087 25.0149 27.1082Z" fill="#FF73C6"/>
<path d="M21.0078 22.0062C18.7083 22.5644 17.0008 24.6369 17.0008 27.1082V38.7153H14.5149V27.1082C14.5149 24.2087 16.8654 21.8582 19.7649 21.8582C20.1931 21.8582 20.6093 21.9094 21.0078 22.0062Z" fill="#FF4FB8"/>
<path d="M15.616 25.0413C15.616 25.8697 14.9588 26.5413 14.1479 26.5413H5.42915C5.37378 26.5413 5.31915 26.5381 5.2654 26.532C4.82803 26.5812 4.36903 26.4351 4.02928 26.0953C3.44353 25.5096 3.4334 24.5698 4.00665 23.9966L10.1718 17.8315C10.7452 17.2581 11.6848 17.2682 12.2705 17.854C12.8563 18.4397 12.8664 19.3793 12.2932 19.9527L8.70453 23.5412H14.148C14.9588 23.5413 15.616 24.213 15.616 25.0413Z" fill="#C57A44"/>
<path d="M16.8928 25.1187C16.8453 26.1272 15.9766 26.9031 14.9669 26.9031H10.5491C10.4109 26.9031 10.2991 26.7912 10.2991 26.6531V23.4031C10.2991 23.265 10.4109 23.1531 10.5491 23.1531H15.0199C16.0854 23.1531 16.9434 24.042 16.8928 25.1187Z" fill="#FF3980"/>
<path d="M24.3661 15.1784V16.6201C24.3661 18.6361 23.0695 20.3493 21.2647 20.9714V22.5345C21.2647 23.3629 20.5931 24.0345 19.7647 24.0345C18.9363 24.0345 18.2647 23.3629 18.2647 22.5345V20.9715C16.46 20.3494 15.1633 18.6363 15.1633 16.6203V15.1785C15.1633 12.6373 17.2235 10.5771 19.7647 10.5771C22.3061 10.577 24.3661 12.6371 24.3661 15.1784Z" fill="#C57A44"/>
<path d="M12.2704 17.8541C12.8561 18.4399 12.8662 19.3796 12.293 19.9529L11.4056 20.8402C10.8322 21.4136 9.89261 21.4034 9.30686 20.8176C8.72111 20.2319 8.71099 19.2922 9.28424 18.7189L10.1716 17.8314C10.745 17.2581 11.6846 17.2682 12.2704 17.8541ZM21.3154 10.8394C19.5371 11.4622 18.2647 13.1259 18.2647 15.0806V16.7182C18.2647 18.6729 19.5371 20.3366 21.3154 20.9595C23.0937 20.3366 24.3661 18.673 24.3661 16.7182V15.0806C24.366 13.1259 23.0937 11.4622 21.3154 10.8394ZM38.1806 15.2777C37.7257 14.5854 36.8076 14.385 36.13 14.8302L35.0811 15.5194C34.4035 15.9646 34.223 16.8867 34.6779 17.5791C35.1327 18.2715 36.0509 18.4719 36.7285 18.0266L37.7774 17.3375C38.455 16.8922 38.6355 15.97 38.1806 15.2777Z" fill="#D88A55"/>
<path d="M42.9185 22.9473L30.4882 31.375C30.0597 31.6655 29.4767 31.5538 29.186 31.1251C28.8955 30.6966 29.0073 30.1136 29.4359 29.823L41.8663 21.3953C42.2948 21.1048 42.8778 21.2165 43.1684 21.6451C43.4589 22.0738 43.347 22.6566 42.9185 22.9473ZM39.6412 28.5394C39.9317 28.9679 40.5147 29.0798 40.9433 28.7893L48.0948 23.9405C48.5233 23.65 48.6352 23.067 48.3447 22.6384C48.0542 22.2099 47.4712 22.098 47.0425 22.3885L39.891 27.2373C39.4624 27.5279 39.3505 28.1109 39.6412 28.5394Z" fill="#FFF9BF"/>
<path d="M40.7996 12.829L38.83 10.8593C38.6835 10.7128 38.6835 10.4755 38.83 10.329L40.7996 8.35933C40.9461 8.21283 41.1835 8.21283 41.33 8.35933L43.2996 10.329C43.4461 10.4755 43.4461 10.7128 43.2996 10.8593L41.33 12.829C41.1835 12.9755 40.9461 12.9755 40.7996 12.829ZM36.1642 41.5261L34.1946 39.5565C34.0481 39.41 34.0481 39.1726 34.1946 39.0261L36.1642 37.0565C36.3107 36.91 36.5481 36.91 36.6946 37.0565L38.6642 39.0261C38.8107 39.1726 38.8107 39.41 38.6642 39.5565L36.6946 41.5261C36.5481 41.6725 36.3106 41.6725 36.1642 41.5261ZM53.3609 23.6381L54.1087 22.8902C54.2552 22.7437 54.2552 22.5063 54.1087 22.3598L53.3609 21.612C53.2144 21.4655 52.977 21.4655 52.8305 21.612L52.0826 22.3598C51.9361 22.5063 51.9361 22.7437 52.0826 22.8902L52.8305 23.6381C52.9769 23.7845 53.2144 23.7845 53.3609 23.6381ZM38.1555 15.7513L38.9034 15.0035C39.0499 14.857 39.0499 14.6196 38.9034 14.4731L38.1555 13.7252C38.009 13.5787 37.7716 13.5787 37.6251 13.7252L36.8772 14.4731C36.7307 14.6196 36.7307 14.857 36.8772 15.0035L37.6251 15.7513C37.7716 15.8977 38.0091 15.8977 38.1555 15.7513ZM27.1701 6.0442L27.918 5.29633C28.0645 5.14983 28.0645 4.91245 27.918 4.76595L27.1701 4.01808C27.0236 3.87158 26.7862 3.87158 26.6397 4.01808L25.8919 4.76595C25.7454 4.91245 25.7454 5.14983 25.8919 5.29633L26.6397 6.0442C26.7862 6.19058 27.0237 6.19058 27.1701 6.0442Z" fill="white"/>
</g>
<defs>
<clipPath id="clip0_2_3882">
<rect width="64" height="64" fill="white" transform="translate(-0.0012207)"/>
</clipPath>
</defs>
</svg>
