<svg width="20" height="20" viewBox="0 0 20 20" fill="none" xmlns="http://www.w3.org/2000/svg">
<path d="M10.2779 8.51893H13.6113L13.2409 10.0004H10.2779V16.6671H8.79646V10.0004H5.8335V8.51893H8.79646V7.13209C8.79646 5.81132 8.93401 5.33238 9.19224 4.84953C9.45046 4.36667 9.82942 3.98773 10.3122 3.7295C10.7951 3.47126 11.274 3.33374 12.5948 3.33374C12.9815 3.33374 13.3203 3.37078 13.6113 3.44485V4.81522H12.5948C11.6143 4.81522 11.3157 4.87288 11.0109 5.03588C10.7862 5.15604 10.6188 5.32351 10.4986 5.54819C10.3356 5.85297 10.2779 6.15157 10.2779 7.13209V8.51893Z" fill="#0E3386"/>
<rect opacity="0.1" width="20" height="20" rx="4" fill="#0031A1"/>
</svg>
