<svg width="18" height="22" viewBox="0 0 18 22" fill="none" xmlns="http://www.w3.org/2000/svg">
<path d="M1.50285 21.0271C1.41783 21.0271 1.33364 21.0103 1.2551 20.9778C1.17656 20.9453 1.1052 20.8977 1.04508 20.8376C0.984967 20.7776 0.937277 20.7063 0.904743 20.6278C0.87221 20.5493 0.855469 20.4652 0.855469 20.3803V0.646794C0.855469 0.561856 0.87221 0.477751 0.904743 0.399279C0.937277 0.320807 0.984967 0.249501 1.04508 0.189441C1.1052 0.129381 1.17656 0.0817442 1.2551 0.0492398C1.33364 0.0167355 1.41783 0 1.50285 0H17.2303C17.3769 0.0294434 17.5088 0.108698 17.6035 0.224293C17.6983 0.339888 17.7501 0.484693 17.7501 0.634109C17.7501 0.783525 17.6983 0.92834 17.6035 1.04393C17.5088 1.15953 17.3769 1.23878 17.2303 1.26822H2.15022V20.393C2.14689 20.5623 2.07723 20.7236 1.95618 20.8421C1.83513 20.9607 1.67237 21.0271 1.50285 21.0271Z" fill="#D7DEF1"/>
</svg>

