<svg width="64" height="64" viewBox="0 0 64 64" fill="none" xmlns="http://www.w3.org/2000/svg">
<circle cx="32" cy="32" r="32" fill="#DABCFF"/>
<path d="M27.3356 40.451C28.3342 42.7168 26.4386 45.7437 23.1044 47.2148C19.7702 48.6859 16.3344 48.0265 15.2851 45.7606C14.2357 43.4947 16.1821 40.4848 19.4994 38.9967C22.8167 37.5087 26.3709 38.1851 27.3356 40.451Z" fill="#B67AFF"/>
<path d="M26.3368 44.0361C26.2235 44.0361 26.1112 44.0138 26.0065 43.9704C25.9017 43.9271 25.8066 43.8636 25.7264 43.7835C25.6463 43.7034 25.5827 43.6083 25.5393 43.5037C25.496 43.3991 25.4736 43.2869 25.4736 43.1737V16.8624C25.4736 16.7491 25.496 16.637 25.5393 16.5324C25.5827 16.4277 25.6463 16.3327 25.7264 16.2526C25.8066 16.1725 25.9017 16.109 26.0065 16.0657C26.1112 16.0223 26.2235 16 26.3368 16H47.3067C47.5022 16.0393 47.6781 16.1449 47.8044 16.2991C47.9308 16.4532 47.9998 16.6463 47.9998 16.8455C47.9998 17.0447 47.9308 17.2378 47.8044 17.3919C47.6781 17.546 47.5022 17.6517 47.3067 17.691H27.2V43.1906C27.1955 43.4164 27.1026 43.6314 26.9412 43.7895C26.7798 43.9476 26.5628 44.0361 26.3368 44.0361Z" fill="#B67AFF"/>
<path d="M47.3069 44.0361C47.1921 44.0383 47.078 44.0177 46.9713 43.9754C46.8647 43.933 46.7675 43.8699 46.6855 43.7896C46.6036 43.7093 46.5385 43.6134 46.494 43.5077C46.4496 43.4019 46.4267 43.2884 46.4268 43.1737V16.8624C46.4793 16.6787 46.5903 16.517 46.743 16.4019C46.8957 16.2869 47.0817 16.2246 47.273 16.2246C47.4643 16.2246 47.6503 16.2869 47.803 16.4019C47.9557 16.517 48.0667 16.6787 48.1192 16.8624V43.1906C48.1154 43.4079 48.0295 43.6157 47.8789 43.7724C47.7283 43.9292 47.524 44.0233 47.3069 44.0361Z" fill="#B67AFF"/>
<path d="M48.3222 40.451C49.3208 42.7168 47.4421 45.7437 44.1079 47.2148C40.7737 48.6859 37.338 48.0265 36.2717 45.7606C35.2054 43.4947 37.1687 40.4848 40.5029 38.9967C43.8371 37.5087 47.3406 38.1851 48.3222 40.451Z" fill="#B67AFF"/>
<path d="M47.3069 22.3077H26.337C26.2236 22.3077 26.1114 22.2854 26.0066 22.2421C25.9019 22.1987 25.8068 22.1352 25.7266 22.0551C25.6465 21.9751 25.5829 21.88 25.5395 21.7753C25.4961 21.6707 25.4738 21.5586 25.4738 21.4453C25.4715 21.3314 25.4923 21.2183 25.5348 21.1126C25.5774 21.0069 25.6409 20.9109 25.7215 20.8304C25.8021 20.7499 25.8982 20.6864 26.0039 20.6439C26.1097 20.6014 26.223 20.5806 26.337 20.5829H47.3069C47.5358 20.5829 47.7554 20.6738 47.9172 20.8355C48.0791 20.9973 48.17 21.2166 48.17 21.4453C48.17 21.674 48.0791 21.8934 47.9172 22.0551C47.7554 22.2169 47.5358 22.3077 47.3069 22.3077Z" fill="#B67AFF"/>
</svg>
