<svg width="20" height="20" viewBox="0 0 20 20" fill="none" xmlns="http://www.w3.org/2000/svg">
<path d="M10.0001 7.99992C8.89512 7.99992 8.00004 8.89532 8.00004 9.99992C8.00004 11.1048 8.89545 11.9999 10.0001 11.9999C11.1049 11.9999 12.0001 11.1045 12.0001 9.99992C12.0001 8.89505 11.1047 7.99992 10.0001 7.99992ZM10.0001 6.66658C11.8403 6.66658 13.3334 8.15798 13.3334 9.99992C13.3334 11.8403 11.842 13.3333 10.0001 13.3333C8.15973 13.3333 6.66671 11.8419 6.66671 9.99992C6.66671 8.15961 8.15811 6.66658 10.0001 6.66658ZM14.3334 6.49935C14.3334 6.95942 13.9595 7.3327 13.5001 7.3327C13.04 7.3327 12.6667 6.95885 12.6667 6.49935C12.6667 6.03985 13.0405 5.66659 13.5001 5.66659C13.9589 5.66601 14.3334 6.03985 14.3334 6.49935ZM10.0001 4.66659C8.35039 4.66659 8.08151 4.67095 7.31423 4.70512C6.79149 4.72966 6.44107 4.79997 6.11549 4.92637C5.82616 5.03858 5.61745 5.17257 5.39507 5.39495C5.17183 5.61819 5.03808 5.82634 4.92632 6.11581C4.79963 6.44213 4.72934 6.79199 4.70524 7.31402C4.67074 8.05005 4.66671 8.30728 4.66671 9.99992C4.66671 11.6496 4.67107 11.9185 4.70523 12.6857C4.72979 13.2082 4.80019 13.5591 4.92628 13.8839C5.03879 14.1737 5.17305 14.3829 5.39436 14.6042C5.61847 14.828 5.82725 14.9622 6.11397 15.0729C6.44351 15.2003 6.79371 15.2707 7.31413 15.2947C8.05017 15.3292 8.30741 15.3333 10.0001 15.3333C11.6497 15.3333 11.9186 15.3289 12.6858 15.2947C13.2072 15.2703 13.5584 15.1997 13.8841 15.0737C14.173 14.9615 14.3829 14.8267 14.6043 14.6056C14.8285 14.3811 14.9624 14.1729 15.0732 13.8855C15.2003 13.5571 15.2708 13.2065 15.2949 12.6859C15.3293 11.9498 15.3334 11.6925 15.3334 9.99992C15.3334 8.35027 15.329 8.08139 15.2949 7.31417C15.2703 6.79263 15.1997 6.44091 15.0736 6.11537C14.9617 5.82684 14.8272 5.61749 14.605 5.39495C14.3814 5.17135 14.1738 5.03787 13.8841 4.9262C13.5581 4.79961 13.2077 4.72923 12.6859 4.70513C11.9499 4.67062 11.6927 4.66659 10.0001 4.66659ZM10.0001 3.33325C11.8111 3.33325 12.0373 3.33992 12.7484 3.37325C13.4578 3.40603 13.9417 3.51825 14.3667 3.68325C14.8061 3.8527 15.1773 4.08159 15.5478 4.45214C15.9178 4.8227 16.1467 5.19492 16.3167 5.63325C16.4811 6.0577 16.5934 6.54214 16.6267 7.25159C16.6584 7.9627 16.6667 8.18881 16.6667 9.99992C16.6667 11.8111 16.6601 12.0371 16.6267 12.7483C16.5939 13.4577 16.4811 13.9416 16.3167 14.3666C16.1473 14.8061 15.9178 15.1771 15.5478 15.5477C15.1773 15.9177 14.8045 16.1466 14.3667 16.3166C13.9417 16.4811 13.4578 16.5933 12.7484 16.6266C12.0373 16.6583 11.8111 16.6666 10.0001 16.6666C8.18893 16.6666 7.96281 16.6599 7.25171 16.6266C6.54226 16.5938 6.05893 16.4811 5.63337 16.3166C5.19448 16.1471 4.82281 15.9177 4.45226 15.5477C4.08171 15.1771 3.85337 14.8044 3.68337 14.3666C3.51837 13.9416 3.40671 13.4577 3.37337 12.7483C3.34171 12.0371 3.33337 11.8111 3.33337 9.99992C3.33337 8.18881 3.34004 7.9627 3.37337 7.25159C3.40615 6.54159 3.51837 6.05825 3.68337 5.63325C3.85281 5.19437 4.08171 4.8227 4.45226 4.45214C4.82281 4.08159 5.19504 3.85325 5.63337 3.68325C6.05837 3.51825 6.54171 3.40659 7.25171 3.37325C7.96281 3.34159 8.18893 3.33325 10.0001 3.33325Z" fill="#0E3386"/>
<rect opacity="0.1" width="20" height="20" rx="4" fill="#0031A1"/>
</svg>
