<svg width="64" height="64" viewBox="0 0 64 64" fill="none" xmlns="http://www.w3.org/2000/svg">
<g clip-path="url(#clip0_2_3660)">
<path d="M64 32C64 49.6733 49.6733 64 32 64C14.3267 64 0 49.6733 0 32C0 14.3267 14.3267 0 32 0C49.6733 0 64 14.3267 64 32Z" fill="#9E69E2"/>
<path d="M64 32C64 49.6724 49.6724 64 32 64C14.3276 64 0 49.6724 0 32C0 26.2227 1.53125 20.8037 4.20996 16.125C9.7251 25.7588 20.105 32.25 32 32.25C43.895 32.25 54.2764 25.7588 59.79 16.125C62.4688 20.8037 64 26.2227 64 32Z" fill="#8E4FD2"/>
<path d="M60.1577 47.2124V47.2139C54.7461 57.21 44.165 64 32 64C19.835 64 9.25391 57.21 3.84229 47.2139V47.2124H60.1577Z" fill="#7038BA"/>
<path d="M25.6674 26.8524C25.7119 26.4315 26.061 26.1083 26.4843 26.0956L28.5634 26.035C29.0756 26.0199 29.4838 26.4608 29.4296 26.9706C29.3847 27.3915 29.0361 27.7147 28.6127 27.7274L26.5336 27.788C26.0214 27.8031 25.6132 27.3627 25.6674 26.8524Z" fill="#C55835"/>
<path d="M28.9644 28.6884C28.5411 28.6693 28.1973 28.3407 28.1592 27.9188L27.9713 25.8476C27.9254 25.3368 28.3399 24.9027 28.8521 24.9257C29.2755 24.9447 29.6192 25.2733 29.6573 25.6947L29.8453 27.7665C29.8912 28.2772 29.4766 28.7113 28.9644 28.6884Z" fill="#ED771B"/>
<path d="M26.1586 32.1317C26.2036 31.7103 26.5522 31.3871 26.9755 31.3749L29.0546 31.3143C29.5673 31.2992 29.9751 31.7396 29.9209 32.2494C29.8764 32.6708 29.5273 32.994 29.104 33.0062L27.0249 33.0673C26.5127 33.0819 26.1044 32.6415 26.1586 32.1317Z" fill="#C55835"/>
<path d="M29.4557 33.9672C29.0328 33.9486 28.6886 33.62 28.6505 33.1981L28.463 31.1268C28.4166 30.6161 28.8317 30.182 29.3439 30.205C29.7667 30.2235 30.111 30.5521 30.1491 30.974L30.3366 33.0453C30.3829 33.556 29.9679 33.9901 29.4557 33.9672Z" fill="#ED771B"/>
<path d="M26.6499 37.4108C26.6948 36.9899 27.0439 36.6666 27.4668 36.6544L29.5459 36.5934C30.0586 36.5787 30.4668 37.0192 30.4126 37.5289C30.3676 37.9503 30.0185 38.2735 29.5957 38.2858L27.5166 38.3463C27.0039 38.3614 26.5957 37.921 26.6499 37.4108Z" fill="#C55835"/>
<path d="M29.9469 39.2465C29.5241 39.2274 29.1798 38.8988 29.1417 38.4774L28.9542 36.4057C28.9078 35.8949 29.3229 35.4608 29.8351 35.4838C30.2579 35.5028 30.6022 35.8314 30.6403 36.2533L30.8278 38.3246C30.8742 38.8353 30.4591 39.2694 29.9469 39.2465Z" fill="#ED771B"/>
<path d="M57.6636 41.5C57.2114 42.1436 56.71 42.7461 56.165 43.3076C55.7852 43.6987 55.4136 44.0962 55.0527 44.5015C55.0215 44.5361 54.9912 44.5713 54.96 44.6064C53.3911 46.375 51.9937 48.2749 50.7725 50.2788C50.7725 50.2812 50.7715 50.2827 50.77 50.2837C50.5962 50.5713 50.4648 50.8838 50.3799 51.209L48.1699 59.6187C45.6035 61.125 42.8086 62.2837 39.8501 63.0298C37.3389 63.6636 34.709 64 32 64C30.3076 64 28.645 63.8687 27.0225 63.6152C25.1689 63.3252 23.3677 62.8765 21.6338 62.2827C20.895 60.5649 20.4863 58.6748 20.4863 56.6938V18.689H26.0186L29.1938 55.1323C29.1938 56.1089 29.5889 56.9927 30.2285 57.6323C30.6538 58.0576 31.189 58.3765 31.7861 58.54C32.0762 58.6211 32.3813 58.665 32.6973 58.6675C34.6577 58.6836 36.2612 57.0312 36.2612 55.0698V48.9375C36.2549 48.8398 36.2476 48.7427 36.2373 48.645C36.0337 46.5776 35.0088 44.5176 33.7188 42.2686C33.4487 41.7974 33.1675 41.3311 32.8774 40.8701C32.4614 40.21 32.0952 39.5151 31.7861 38.7925L44.2949 40.1011L44.6411 40.1377L52.561 40.9663L57.6636 41.5Z" fill="#FFE955"/>
<path d="M31.7861 58.54V63.9985C30.1675 63.9888 28.5762 63.8574 27.0225 63.6152C25.1689 63.3252 23.3677 62.8765 21.6338 62.2827C20.895 60.5649 20.4863 58.6748 20.4863 56.6938V18.689H26.0176L26.5698 25.0327L29.1938 55.1323C29.1938 56.1089 29.5889 56.9927 30.2285 57.6323C30.6538 58.0576 31.189 58.3765 31.7861 58.54Z" fill="#FFD112"/>
<path d="M24.2114 56.8188C24.2114 59.4727 25.2852 61.875 27.0225 63.6152C25.1689 63.3252 23.3677 62.8765 21.6338 62.2827C20.895 60.5649 20.4863 58.6748 20.4863 56.6938V18.689H22.9736L24.2114 56.8188Z" fill="#FFD112"/>
<path d="M57.6636 41.5C57.2114 42.1436 56.71 42.7461 56.165 43.3076C55.7852 43.6987 55.4136 44.0962 55.0527 44.5015C53.4526 46.2939 52.0273 48.2212 50.7861 50.2573C50.6064 50.5537 50.4673 50.8735 50.3789 51.21L48.1699 59.6187C45.6035 61.125 42.8086 62.2837 39.8501 63.0298C40.5098 62.02 41.0498 60.7612 41.4126 59.2173L44.6411 40.1377L52.561 40.9663L57.6636 41.5Z" fill="#FFD112"/>
<path d="M27.0225 63.6152C25.1689 63.3252 23.3677 62.8765 21.6338 62.2827C20.895 60.5649 20.4863 58.6748 20.4863 56.6938V18.689H22.9736L24.2114 56.8188C24.2114 59.4727 25.2852 61.875 27.0225 63.6152Z" fill="#FF9F00"/>
<path d="M57.6631 41.5005C57.2114 42.1436 56.7095 42.7466 56.165 43.3076C55.7852 43.6982 55.4146 44.0957 55.0527 44.5015C55.0215 44.5356 54.9907 44.5713 54.9605 44.606C53.3916 46.3745 51.9937 48.2749 50.773 50.2793L43.0718 49.4131L36.2373 48.6445C36.0332 46.5767 35.0083 44.5176 33.7188 42.269C33.4487 41.7974 33.168 41.3315 32.8779 40.8701C32.4614 40.21 32.0947 39.5146 31.7856 38.7925L44.2954 40.1016L44.6411 40.1377L52.561 40.9658L57.6631 41.5005Z" fill="#FFD112"/>
<path d="M57.6631 41.5005C57.2114 42.1436 56.7095 42.7466 56.165 43.3076C55.7852 43.6982 55.4146 44.0957 55.0527 44.5015C55.0215 44.5356 54.9907 44.5713 54.9604 44.606C53.3916 46.3745 51.9937 48.2749 50.7729 50.2793L43.0718 49.4131L44.6416 40.1377L52.5615 40.9663L57.6631 41.5005Z" fill="#FF9F00"/>
<path d="M20.4868 18.6895V25.0327H26.5703L26.0181 18.6895H20.4868Z" fill="#FFD112"/>
<path d="M20.4868 18.6895V25.0327H23.1797L22.9741 18.6895H20.4868Z" fill="#FF9F00"/>
<path d="M26.0181 18.6895H20.4741L16.3223 17.4473L10.3081 15.6494V13.4448H20.3232C23.2974 13.4448 25.7734 15.7256 26.0181 18.6895Z" fill="#FF771B"/>
<path d="M22.9741 18.6895H20.4741L16.3223 17.4473L10.3081 15.6494V14.5161L20.0361 15.6216C21.6274 15.8027 22.8618 17.0923 22.9741 18.6895Z" fill="#C55835"/>
<path d="M16.3223 13.4448V17.4473L10.3086 15.6494V13.4448H16.3223Z" fill="#FFD112"/>
<path d="M16.3223 15.1997V17.4473L10.3086 15.6494V14.5161L16.3223 15.1997Z" fill="#FF9F00"/>
</g>
<defs>
<clipPath id="clip0_2_3660">
<rect width="64" height="64" fill="white"/>
</clipPath>
</defs>
</svg>
