<svg width="64" height="64" viewBox="0 0 64 64" fill="none" xmlns="http://www.w3.org/2000/svg">
<g clip-path="url(#clip0_2_3841)">
<path d="M59.7887 16.125C59.7887 26.3603 43.8937 36.6283 31.9987 36.6283C20.1037 36.6283 4.20874 25.7024 4.20874 16.125C9.72374 6.49125 20.1037 0 31.9987 0C43.8937 0 54.2737 6.49125 59.7887 16.125Z" fill="#5F55AF"/>
<path d="M63.9988 32C63.9988 41.0225 60.2638 49.1737 54.2563 54.9912C53.8538 55.3812 53.44 55.7612 53.0175 56.1287C52.9563 56.1825 52.895 56.2362 52.8325 56.2887C49.6625 59.0112 45.9525 61.1238 41.885 62.4425L21.5025 62.2375C17.6738 60.91 14.1763 58.875 11.165 56.2887C11.1025 56.2362 11.0413 56.1825 10.98 56.1287C10.5575 55.7612 10.1438 55.3812 9.74128 54.9912C3.73378 49.1737 -0.0012207 41.0225 -0.0012207 32C-0.0012207 26.2225 1.53003 20.8038 4.20878 16.125C5.71378 18.7538 7.58003 21.1475 9.74128 23.2388C15.5 28.8175 23.3488 32.25 31.9988 32.25C40.6488 32.25 48.4975 28.8175 54.2563 23.24C56.4175 21.1475 58.2838 18.7538 59.7888 16.125C62.4675 20.8038 63.9988 26.2225 63.9988 32Z" fill="#453D83"/>
<path d="M36.9337 51.9937L31.9987 64C28.3224 64 24.7912 63.38 21.5024 62.2375L21.7924 56.68L22.1749 49.3537L22.7899 37.5637H31.9987L36.9337 51.9937Z" fill="#FFC0A4"/>
<path d="M41.885 62.4425C39.14 63.335 36.2325 63.865 33.2188 63.9775C32.8138 63.9925 32.4075 64 31.9988 64V37.5637H40.585L41.885 62.4425Z" fill="#FFA87A"/>
<path d="M31.9988 22.4636L36.934 34.4593L31.9988 45.3436C25.365 45.3436 19.9875 39.9661 19.9875 33.3324V11.1024C19.9875 10.2736 20.3238 9.52238 20.8675 8.97863C21.4113 8.43488 22.1613 8.09863 22.99 8.09863C24.6488 8.09863 25.9925 9.44363 25.9925 11.1024V22.4636H31.9988Z" fill="#FFA87A"/>
<path d="M44.0113 11.1024V36.7011C44.0113 41.4749 40.1413 45.3436 35.3675 45.3436H31.9988V22.4636H38.005V11.1024C38.005 10.2736 38.3413 9.52238 38.885 8.97863C39.4275 8.43488 40.1788 8.09863 41.0075 8.09863C42.6663 8.09863 44.0113 9.44363 44.0113 11.1024Z" fill="#FC8A59"/>
<path d="M31.9989 22.4638V29.9431C31.9989 31.6017 30.6547 32.9459 28.996 32.9459C27.3383 32.9459 25.9932 31.6017 25.9932 29.9431V22.4638C25.9932 20.8052 27.3383 19.4609 28.996 19.4609C29.8249 19.4609 30.5763 19.7969 31.1192 20.3407C31.6628 20.8837 31.9989 21.6342 31.9989 22.4638Z" fill="#FFC0A4"/>
<path d="M38.0054 22.4638V29.9431C38.0054 31.6017 36.6604 32.9459 35.0017 32.9459C33.3439 32.9459 31.9988 31.6017 31.9988 29.9431V22.4638C31.9988 20.8052 33.3439 19.4609 35.0017 19.4609C35.8305 19.4609 36.5819 19.7969 37.1257 20.3407C37.6694 20.8837 38.0054 21.6342 38.0054 22.4638Z" fill="#FFA87A"/>
<path d="M31.9988 45.3436H23.9713C20.305 45.3436 17.3338 42.3724 17.3338 38.7074V33.0236C17.325 31.3811 18.7125 29.9486 20.4138 29.9424H26.6575L31.8075 31.9249C31.6813 32.2811 31.5238 32.6236 31.3375 32.9461C30.2988 34.7411 28.3588 35.9486 26.1363 35.9486H23.34V37.2749L26.1575 37.9461C27.87 38.3549 29.33 39.3249 30.3625 40.6311C31.3938 41.9386 31.9988 43.5836 31.9988 45.3436Z" fill="#FFC0A4"/>
<path d="M31.8071 31.9244L31.8033 31.9351C31.5905 32.5407 31.0185 32.946 30.3766 32.946H28.9961C27.5951 32.946 26.4175 31.9859 26.0862 30.6874C25.9901 30.3107 26.2688 29.9431 26.6575 29.9431H30.4033C31.4291 29.943 32.1472 30.9566 31.8071 31.9244Z" fill="#354445"/>
<path d="M21.0583 14.5061H24.9222V16.094H21.0583V14.5061Z" fill="#FC8A59"/>
<path d="M21.0583 22.2295H24.9222V23.8174H21.0583V22.2295Z" fill="#FC8A59"/>
<path d="M39.124 14.5061H42.9879V16.094H39.124V14.5061Z" fill="#F96D3D"/>
<path d="M39.124 22.2295H42.9879V23.8174H39.124V22.2295Z" fill="#F96D3D"/>
<path d="M31.9987 46.9575L34.5605 50.8189L31.9987 54.2838H20.22L20.665 46.9575H31.9987Z" fill="#EA3957"/>
<path d="M43.1988 54.2838H31.9988V46.9575H42.7538L43.1988 54.2838Z" fill="#DD1B32"/>
<path d="M31.9988 49.0889L33.0701 50.6214L31.9988 52.1539C31.1526 52.1539 30.4663 51.4676 30.4663 50.6214C30.4663 49.7751 31.1526 49.0889 31.9988 49.0889Z" fill="#F0F8FF"/>
<path d="M29.0285 50.6209C29.0285 51.4673 28.3424 52.1534 27.496 52.1534C26.6496 52.1534 24.8809 50.6209 24.8809 50.6209C24.8809 50.6209 26.6495 49.0884 27.496 49.0884C28.3424 49.0883 29.0285 49.7745 29.0285 50.6209Z" fill="#F0F8FF"/>
<path d="M23.443 50.6209C23.443 51.4673 22.7569 52.1534 21.9105 52.1534C21.0641 52.1534 18.1467 50.6209 18.1467 50.6209C18.1467 50.6209 21.0641 49.0884 21.9105 49.0884C22.7569 49.0884 23.443 49.7745 23.443 50.6209Z" fill="#F0F8FF"/>
<path d="M34.9648 50.6209C34.9648 51.4673 35.651 52.1534 36.4973 52.1534C37.3437 52.1534 39.1125 50.6209 39.1125 50.6209C39.1125 50.6209 37.3438 49.0884 36.4973 49.0884C35.651 49.0883 34.9648 49.7745 34.9648 50.6209Z" fill="#C8E2FD"/>
<path d="M40.5503 50.6209C40.5503 51.4673 41.2364 52.1534 42.0828 52.1534C42.9292 52.1534 45.8465 50.6209 45.8465 50.6209C45.8465 50.6209 42.9292 49.0884 42.0828 49.0884C41.2364 49.0883 40.5503 49.7745 40.5503 50.6209Z" fill="#C8E2FD"/>
<path d="M33.5313 50.6214C33.5313 51.4676 32.845 52.1539 31.9988 52.1539V49.0889C32.845 49.0889 33.5313 49.7751 33.5313 50.6214Z" fill="#C8E2FD"/>
<path d="M2.61133 42.3089L5.1702 45.44L11.9856 42.5721L10.3905 40.6204L16.3901 38.0044L6.37545 39.2328L8.02545 41.2518L2.61133 42.3089Z" fill="#FEDF2F"/>
<path d="M60.3088 42.3089L57.7498 45.44L50.9345 42.5721L52.5297 40.6204L46.53 38.0044L56.5447 39.2328L54.8947 41.2518L60.3088 42.3089Z" fill="#FEDF2F"/>
<path d="M2.61133 23.5945L5.1702 20.4634L11.9856 23.3313L10.3905 25.283L16.3901 27.899L6.37545 26.6706L8.02545 24.6516L2.61133 23.5945Z" fill="#FEDF2F"/>
<path d="M60.3088 23.5945L57.7498 20.4634L50.9345 23.3313L52.5297 25.283L46.53 27.899L56.5447 26.6706L54.8947 24.6516L60.3088 23.5945Z" fill="#FEDF2F"/>
</g>
<defs>
<clipPath id="clip0_2_3841">
<rect width="64" height="64" fill="white" transform="translate(-0.0012207)"/>
</clipPath>
</defs>
</svg>
