<svg width="64" height="64" viewBox="0 0 64 64" fill="none" xmlns="http://www.w3.org/2000/svg">
<g clip-path="url(#clip0_277_1903)">
<path d="M2.94141 51.5322H61.0586V59.5483H2.94141V51.5322Z" fill="#857E87"/>
<path d="M5.94775 54.5381V51.5322H2.94141V59.5483H61.0586V56.5425H7.95166C6.84473 56.5425 5.94775 55.645 5.94775 54.5381Z" fill="#6F6571"/>
<path d="M34.0039 37.5039C34.0039 38.6108 33.1069 39.5078 32 39.5078C30.8931 39.5078 29.9961 38.6108 29.9961 37.5039C29.9961 36.3975 30.8931 35.5 32 35.5C33.1069 35.5 34.0039 36.3975 34.0039 37.5039Z" fill="#6F6571"/>
<path d="M1.93945 12.4536H62.0605V16.4614H1.93945V12.4536Z" fill="#C8C5C9"/>
<path d="M62.0605 12.4536H1.93945L18.9736 4.4375H45.0264L62.0605 12.4536Z" fill="#DAD8DB"/>
<path d="M8.95312 45.52H22.9814V51.5322H8.95312V45.52Z" fill="#6F6571"/>
<path d="M8.95312 48.5264H22.9814V51.5322H8.95312V48.5264Z" fill="#5D5360"/>
<path d="M18.9736 48.5264C18.9736 50.1865 17.6279 51.5322 15.9678 51.5322C14.3076 51.5322 12.9619 50.1865 12.9619 48.5264C12.9619 46.8657 14.3076 45.52 15.9678 45.52C17.6279 45.52 18.9736 46.8657 18.9736 48.5264Z" fill="#4B3F4E"/>
<path d="M41.0176 45.52H55.0459V51.5322H41.0176V45.52Z" fill="#6F6571"/>
<path d="M41.0176 48.5264H55.0459V51.5322H41.0176V48.5264Z" fill="#5D5360"/>
<path d="M51.0381 48.5264C51.0381 50.1865 49.6924 51.5322 48.0322 51.5322C46.3721 51.5322 45.0264 50.1865 45.0264 48.5264C45.0264 46.8657 46.3721 45.52 48.0322 45.52C49.6924 45.52 51.0381 46.8657 51.0381 48.5264Z" fill="#4B3F4E"/>
<path d="M55.0464 20.4697V34.498H49.0342V20.4697H55.0464Z" fill="#6F6571"/>
<path d="M52.0405 20.4697V34.498H49.0342V20.4697H52.0405Z" fill="#5D5360"/>
<path d="M55.0464 27.4839C55.0464 29.144 53.7007 30.4897 52.0405 30.4897C50.3804 30.4897 49.0342 29.144 49.0342 27.4839C49.0342 25.8237 50.3804 24.4775 52.0405 24.4775C53.7007 24.4775 55.0464 25.8237 55.0464 27.4839Z" fill="#4B3F4E"/>
<path d="M14.9653 20.4697V34.498H8.95312V20.4697H14.9653Z" fill="#6F6571"/>
<path d="M11.959 20.4697V34.498H8.95312V20.4697H11.959Z" fill="#5D5360"/>
<path d="M14.9653 27.4839C14.9653 29.144 13.6191 30.4897 11.959 30.4897C10.2988 30.4897 8.95312 29.144 8.95312 27.4839C8.95312 25.8237 10.2988 24.4775 11.959 24.4775C13.6191 24.4775 14.9653 25.8237 14.9653 27.4839Z" fill="#4B3F4E"/>
<path d="M21.98 18.4658C21.98 19.5723 21.0825 20.4697 19.9756 20.4697C18.8691 20.4697 17.9717 19.5723 17.9717 18.4658C17.9717 17.3589 18.8691 16.4614 19.9756 16.4614C21.0825 16.4614 21.98 17.3589 21.98 18.4658Z" fill="#6F6571"/>
<path d="M29.9966 18.4658C29.9966 19.5723 29.0991 20.4697 27.9922 20.4697C26.8857 20.4697 25.9883 19.5723 25.9883 18.4658C25.9883 17.3589 26.8857 16.4614 27.9922 16.4614C29.0991 16.4614 29.9966 17.3589 29.9966 18.4658Z" fill="#6F6571"/>
<path d="M38.0122 18.4658C38.0122 19.5723 37.1147 20.4697 36.0083 20.4697C34.9014 20.4697 34.0039 19.5723 34.0039 18.4658C34.0039 17.3589 34.9014 16.4614 36.0083 16.4614C37.1147 16.4614 38.0122 17.3589 38.0122 18.4658Z" fill="#6F6571"/>
<path d="M46.0278 18.4658C46.0278 19.5723 45.1304 20.4697 44.0239 20.4697C42.917 20.4697 42.0195 19.5723 42.0195 18.4658C42.0195 17.3589 42.917 16.4614 44.0239 16.4614C45.1304 16.4614 46.0278 17.3589 46.0278 18.4658Z" fill="#6F6571"/>
<path d="M63.0625 58.6108H61.9961V51.5322C61.9961 51.0142 61.5762 50.5947 61.0586 50.5947H59.9917V17.3989H62.0605C62.5781 17.3989 62.998 16.9795 62.998 16.4614V12.4536H62.9971C62.9976 12.0967 62.7935 11.7622 62.4595 11.6055L45.4253 3.58936C45.3003 3.53027 45.1641 3.5 45.0264 3.5H18.9736C18.8359 3.5 18.6997 3.53027 18.5747 3.58936L1.54053 11.6055C1.20654 11.7622 1.00293 12.0967 1.00293 12.4536H1.00195V16.4614C1.00195 16.9795 1.42188 17.3989 1.93945 17.3989H4.00781V50.5947H2.94141C2.42383 50.5947 2.00391 51.0142 2.00391 51.5322V58.6108H0.9375C0.419922 58.6108 0 59.0303 0 59.5483C0 60.0659 0.419922 60.4858 0.9375 60.4858H63.0625C63.5801 60.4858 64 60.0659 64 59.5483C64 59.0303 63.5801 58.6108 63.0625 58.6108ZM56.3076 50.5947L58.1167 48.7856V50.5947H56.3076ZM45.9639 48.5264C45.9639 47.3857 46.8916 46.4575 48.0322 46.4575C49.1729 46.4575 50.1006 47.3857 50.1006 48.5264C50.1006 49.667 49.1729 50.5947 48.0322 50.5947C46.8916 50.5947 45.9639 49.667 45.9639 48.5264ZM44.6768 50.5947H41.9556V46.4575H44.6768C44.3042 47.0591 44.0889 47.7681 44.0889 48.5259C44.0889 49.2842 44.3042 49.9927 44.6768 50.5947ZM51.3877 46.4575H54.1089V50.5298V50.5303V50.5947H51.3877C51.7603 49.9932 51.9756 49.2842 51.9756 48.5264C51.9756 47.7681 51.7603 47.0596 51.3877 46.4575ZM57.7285 22.4736L55.9839 24.2183V20.729L57.7285 22.4736ZM55.9839 44.7773L57.7285 46.522L55.9839 48.2671V44.7773ZM54.1089 27.4839C54.1089 28.6245 53.1812 29.5522 52.0405 29.5522C50.8999 29.5522 49.9717 28.6245 49.9717 27.4839C49.9717 26.3433 50.8999 25.415 52.0405 25.415C53.1812 25.415 54.1089 26.3433 54.1089 27.4839ZM55.9839 28.7451L57.7285 30.4897L55.9839 32.2349V28.7451ZM57.7285 38.5059L55.9839 40.251V36.7612L57.7285 38.5059ZM56.3721 42.5142L58.1167 40.7695V44.2583L56.3721 42.5142ZM56.3721 34.4981L58.1167 32.7534V36.2422L56.3721 34.4981ZM56.3721 26.4819L58.1167 24.7373V28.2261L56.3721 26.4819ZM54.1089 24.1279C53.5073 23.7559 52.7983 23.54 52.0405 23.54C51.2822 23.54 50.5737 23.7559 49.9717 24.1279V21.4072H54.1089V24.1279ZM49.9717 30.8394C50.5737 31.2119 51.2822 31.4272 52.04 31.4272C52.7983 31.4272 53.5068 31.2114 54.1089 30.8394V33.5606H49.9717V30.8394ZM58.1167 20.21L55.9839 18.0772V17.3989H58.1167V20.21ZM2.87695 13.3911H50.0361C50.5542 13.3911 50.9736 12.9712 50.9736 12.4536C50.9736 11.936 50.5542 11.5161 50.0361 11.5161H6.1333L19.1836 5.375H44.8164L57.8662 11.5161H54.0439C53.5259 11.5161 53.1064 11.936 53.1064 12.4536C53.1064 12.9712 53.5259 13.3911 54.0439 13.3911H61.123V15.5239H2.87695V13.3911ZM45.0908 18.4658C45.0908 19.0537 44.6123 19.5322 44.0244 19.5322C43.436 19.5322 42.9575 19.0537 42.9575 18.4658C42.9575 17.8774 43.436 17.3989 44.0244 17.3989C44.6123 17.3989 45.0908 17.8774 45.0908 18.4658ZM37.0747 18.4658C37.0747 19.0537 36.5962 19.5322 36.0083 19.5322C35.4199 19.5322 34.9414 19.0537 34.9414 18.4658C34.9414 17.8774 35.4199 17.3989 36.0083 17.3989C36.5962 17.3989 37.0747 17.8774 37.0747 18.4658ZM29.0586 18.4658C29.0586 19.0537 28.5801 19.5322 27.9922 19.5322C27.4038 19.5322 26.9253 19.0537 26.9253 18.4658C26.9253 17.8774 27.4038 17.3989 27.9922 17.3989C28.5801 17.3989 29.0586 17.8774 29.0586 18.4658ZM21.0425 18.4658C21.0425 19.0537 20.564 19.5322 19.9761 19.5322C19.3877 19.5322 18.9092 19.0537 18.9092 18.4658C18.9092 17.8774 19.3877 17.3989 19.9761 17.3989C20.564 17.3989 21.0425 17.8774 21.0425 18.4658ZM22.0444 50.5947H19.3232C19.6958 49.9927 19.9111 49.2842 19.9111 48.5264C19.9111 47.7681 19.6958 47.0596 19.3232 46.4575H22.0444V50.5947ZM18.0361 48.5264C18.0361 49.667 17.1084 50.5947 15.9678 50.5947C14.8271 50.5947 13.8994 49.667 13.8994 48.5264C13.8994 47.3857 14.8271 46.4575 15.9678 46.4575C17.1084 46.4575 18.0361 47.3857 18.0361 48.5264ZM12.6118 50.5947H9.89111V50.5303V50.5298V46.4575H12.6123C12.2397 47.0591 12.0244 47.7681 12.0244 48.5259C12.0244 49.2842 12.2397 49.9927 12.6118 50.5947ZM6.27148 30.4897L8.01611 28.7451V32.2349L6.27148 30.4897ZM11.9595 25.415C13.1001 25.415 14.0283 26.3433 14.0283 27.4839C14.0283 28.6245 13.1001 29.5522 11.9595 29.5522C10.8188 29.5522 9.89111 28.6245 9.89111 27.4839C9.89111 26.3433 10.8188 25.415 11.9595 25.415ZM8.01611 24.2183L6.27148 22.4736L8.01611 20.729V24.2183ZM7.62793 26.4819L5.88281 28.2266V24.7368L7.62793 26.4819ZM7.62793 34.4981L5.88281 36.2427V32.7534L7.62793 34.4981ZM8.01611 36.7612V40.251L6.27148 38.5059L8.01611 36.7612ZM7.62793 42.5142L5.88281 44.2588V40.769L7.62793 42.5142ZM8.01611 44.7773V48.2671L6.27148 46.522L8.01611 44.7773ZM9.89111 33.5606V30.8394C10.4927 31.2119 11.2017 31.4272 11.9595 31.4272C12.7178 31.4272 13.4263 31.2119 14.0283 30.8394V33.5606H9.89111ZM14.0283 24.1279C13.4263 23.7559 12.7178 23.54 11.96 23.54C11.2017 23.54 10.4932 23.7559 9.89111 24.1279V21.4072H14.0283V24.1279ZM8.01611 17.3989V18.0772L5.88281 20.2105V17.3989H8.01611ZM5.88281 48.7852L7.69238 50.5947H5.88281V48.7852ZM3.87891 52.4697H24.9858C25.5034 52.4697 25.9233 52.0498 25.9233 51.5322C25.9233 51.0142 25.5034 50.5947 24.9858 50.5947H23.9194V45.52C23.9194 45.0024 23.4995 44.5825 22.9819 44.5825H9.89111V35.4356H14.9658C15.4834 35.4356 15.9033 35.0156 15.9033 34.4981V20.4697C15.9033 19.9517 15.4834 19.5322 14.9658 19.5322H9.89111V17.3989H17.2354C17.106 17.73 17.0342 18.0894 17.0342 18.4658C17.0342 20.0874 18.354 21.4072 19.9756 21.4072C21.5977 21.4072 22.9175 20.0874 22.9175 18.4658C22.9175 18.0894 22.8457 17.73 22.7163 17.3989H25.2515C25.1221 17.73 25.0503 18.0894 25.0503 18.4658C25.0503 20.0874 26.3701 21.4072 27.9917 21.4072C29.6138 21.4072 30.9331 20.0874 30.9331 18.4658C30.9331 18.0894 30.8613 17.73 30.7324 17.3989H33.2671C33.1382 17.73 33.0664 18.0894 33.0664 18.4658C33.0664 20.0874 34.3857 21.4072 36.0078 21.4072C37.6294 21.4072 38.9492 20.0874 38.9492 18.4658C38.9492 18.0894 38.8774 17.73 38.748 17.3989H41.2832C41.1538 17.73 41.082 18.0894 41.082 18.4658C41.082 20.0874 42.4019 21.4072 44.0239 21.4072C45.6455 21.4072 46.9653 20.0874 46.9653 18.4658C46.9653 18.0894 46.8936 17.73 46.7642 17.3989H54.1084V19.5322H49.0337C48.5161 19.5322 48.0962 19.9517 48.0962 20.4697V34.4981C48.0962 35.0156 48.5161 35.4356 49.0337 35.4356H54.1084V44.5825H41.0181C40.5005 44.5825 40.0806 45.0024 40.0806 45.52V50.5947H32.9375V40.2915C34.1011 39.8989 34.9414 38.7983 34.9414 37.5039C34.9414 35.8818 33.6221 34.5625 32 34.5625C30.3779 34.5625 29.0586 35.8818 29.0586 37.5039C29.0586 38.7983 29.8989 39.8989 31.0625 40.2915V50.5947H28.9941C28.4761 50.5947 28.0566 51.0142 28.0566 51.5322C28.0566 52.0498 28.4761 52.4697 28.9941 52.4697H60.1211V58.6108H3.87891V52.4697ZM32 38.5703C31.4121 38.5703 30.9336 38.0918 30.9336 37.5039C30.9336 36.916 31.4121 36.4375 32 36.4375C32.5879 36.4375 33.0664 36.916 33.0664 37.5039C33.0664 38.0918 32.5879 38.5703 32 38.5703Z" fill="black"/>
</g>
<defs>
<clipPath id="clip0_277_1903">
<rect width="64" height="64" fill="white"/>
</clipPath>
</defs>
</svg>
