<svg width="64" height="64" viewBox="0 0 64 64" fill="none" xmlns="http://www.w3.org/2000/svg">
<g clip-path="url(#clip0_2_3709)">
<path d="M64 32C64 47.2876 53.2773 60.0723 38.9438 63.2437C36.709 63.7388 34.3848 64 32 64C30.9023 64 29.8174 63.9448 28.7485 63.8364C27.4951 63.71 26.2637 63.5112 25.0576 63.2437C10.7227 60.0737 0 47.2886 0 32C0 14.3276 14.3276 0 32 0C49.6724 0 64 14.3276 64 32Z" fill="#FFE955"/>
<path d="M64 32C64 49.6724 49.6724 64 32 64C14.3276 64 0 49.6724 0 32C0 26.2227 1.53125 20.8037 4.20996 16.125C9.7251 25.7588 20.105 32.25 32 32.25C43.895 32.25 54.2764 25.7588 59.79 16.125C62.4688 20.8037 64 26.2227 64 32Z" fill="#FFD112"/>
<path d="M60.1577 47.2124V47.2139C54.7461 57.21 44.165 64 32 64C19.835 64 9.25391 57.21 3.84229 47.2139V47.2124H60.1577Z" fill="#FF9F00"/>
<path d="M40.0024 41.1187L39.9985 41.2012L39.9648 41.9048L39.6201 49.1123V49.1138L38.9438 63.2437C36.709 63.7388 34.3848 64 32 64C30.9023 64 29.8174 63.9448 28.7485 63.8364C27.4951 63.71 26.2637 63.5112 25.0576 63.2437L24.3799 49.1138L24.0352 41.9048L23.9976 41.1187H40.0024Z" fill="#545D7A"/>
<path d="M39.9985 41.2012L39.9648 41.9048L39.6201 49.1123V49.1138L38.9438 63.2437C36.709 63.7388 34.3848 64 32 64C30.9023 64 29.8174 63.9448 28.7485 63.8364L28.186 49.2549L28.1851 49.2461L28.1763 49.0137L27.9023 41.9048L27.8999 41.8438L27.8936 41.6899L27.875 41.2012H39.9985Z" fill="#474F6F"/>
<path d="M40.0024 41.1187L39.9985 41.2012L39.9648 41.9048L39.6201 49.1123V49.1138L38.9438 63.2437C36.709 63.7388 34.3848 64 32 64V41.1187H40.0024Z" fill="#313B5A"/>
<path d="M43.4507 29.1587V31.1514C43.4507 31.377 43.4448 31.6021 43.4312 31.8242C43.3867 32.5977 43.2656 33.3496 43.0742 34.0737C42.958 34.5181 42.8145 34.9531 42.6465 35.374C42.3501 36.1226 41.9771 36.8315 41.5361 37.4912C41.4214 37.6655 41.3003 37.8359 41.1753 38.0039C40.7012 38.6377 40.1626 39.2207 39.5684 39.7432C39.4141 39.8804 39.2549 40.0122 39.0928 40.1411C38.4604 40.6396 37.7734 41.0747 37.0425 41.4331C36.8462 41.5303 36.646 41.6221 36.4419 41.707C36.3706 41.7378 36.2979 41.7676 36.2236 41.7974C35.8022 41.9653 35.3677 42.1074 34.9229 42.2246C34.8364 42.2471 34.751 42.269 34.6636 42.2891C34.394 42.3545 34.1201 42.4087 33.8433 42.4531C33.5874 42.4951 33.3296 42.5283 33.0688 42.5508C32.7168 42.5854 32.3608 42.6016 32.0005 42.6016H31.999C31.7397 42.6016 31.4839 42.5928 31.2295 42.5757C30.9629 42.5581 30.6987 42.5308 30.4365 42.4941C30.1191 42.4521 29.8066 42.3965 29.499 42.3271C29.084 42.2349 28.6777 42.1196 28.2822 41.9839C28.1143 41.9268 27.9478 41.8652 27.7847 41.7998C27.5771 41.7183 27.3735 41.6309 27.1733 41.5366C26.4307 41.1919 25.7329 40.7695 25.0884 40.2793C24.9229 40.1543 24.7607 40.0249 24.6025 39.8901C23.9985 39.3813 23.4502 38.8091 22.9648 38.1855C22.8364 38.0215 22.7129 37.853 22.5942 37.6816C22.125 37.0093 21.7285 36.2856 21.4121 35.5186C21.3257 35.311 21.2456 35.1001 21.1714 34.8848C21.1699 34.8799 21.1675 34.874 21.1665 34.8677C21.0293 34.4727 20.9146 34.0659 20.8232 33.6514C20.7119 33.1533 20.6328 32.6431 20.5908 32.1221C20.5659 31.8477 20.5527 31.5713 20.5498 31.2905C20.5488 31.2451 20.5488 31.1982 20.5488 31.1514V29.1587C20.5488 28.7251 20.5737 28.2964 20.6216 27.8755C20.6587 27.5244 20.7144 27.1787 20.7837 26.8389C20.8281 26.624 20.8784 26.4102 20.9355 26.2002C20.9961 25.9731 21.0625 25.7495 21.1367 25.5283C21.4058 24.7231 21.7617 23.957 22.1953 23.2422C22.3042 23.0615 22.4175 22.8848 22.5361 22.7109C22.9834 22.0552 23.4985 21.4473 24.0703 20.8999C24.2183 20.7559 24.3716 20.6172 24.5273 20.4824C25.1338 19.96 25.7944 19.4995 26.5024 19.1128C26.6914 19.0088 26.8828 18.9102 27.0791 18.8174C27.8647 18.4419 28.6997 18.1543 29.5732 17.9663C29.9473 17.8848 30.3291 17.8232 30.7158 17.7812C31.1372 17.7329 31.5645 17.708 31.999 17.708H32.0005C32.0669 17.708 32.1348 17.708 32.2017 17.7109C32.6934 17.7183 33.1777 17.7588 33.6533 17.8281C34.02 17.8799 34.3818 17.9502 34.7363 18.0381C35.5762 18.2432 36.3794 18.542 37.1353 18.9224C37.3276 19.019 37.5166 19.1201 37.7036 19.2266C38.3999 19.6279 39.0498 20.0996 39.644 20.6333C39.7969 20.7705 39.9463 20.9111 40.0923 21.0581C40.0933 21.0581 40.0962 21.0605 40.0972 21.062C40.6567 21.6216 41.1582 22.2378 41.5918 22.9023C41.708 23.0791 41.8193 23.2593 41.9243 23.4434C42.3452 24.1724 42.6875 24.9517 42.9409 25.7705C43.1147 26.3325 43.2471 26.9121 43.3325 27.5073C43.4102 28.0469 43.4507 28.5977 43.4507 29.1587Z" fill="#474F6F"/>
<path d="M43.4507 29.1587V31.1514C43.4507 31.377 43.4448 31.6021 43.4312 31.8242C43.3867 32.5977 43.2656 33.3496 43.0742 34.0737C42.958 34.5181 42.8145 34.9531 42.6465 35.374C42.3501 36.1226 41.9771 36.8315 41.5361 37.4912C41.4214 37.6655 41.3003 37.8359 41.1753 38.0039C40.7012 38.6377 40.1626 39.2207 39.5684 39.7432C39.4141 39.8804 39.2549 40.0122 39.0928 40.1411C38.4604 40.6396 37.7734 41.0747 37.0425 41.4331C36.8462 41.5303 36.646 41.6221 36.4419 41.707C36.3706 41.7378 36.2979 41.7676 36.2236 41.7974C35.8022 41.9653 35.3677 42.1074 34.9229 42.2246C34.8364 42.2471 34.751 42.269 34.6636 42.2891C34.2656 42.1973 33.8765 42.085 33.4961 41.9541C33.3198 41.895 33.1455 41.8306 32.9751 41.7612C32.7578 41.6763 32.5439 41.585 32.334 41.4858C32.2217 41.4341 32.1089 41.3794 31.999 41.3228C31.8867 41.2671 31.7754 41.2095 31.6655 41.1489C31.1343 40.8608 30.6294 40.5337 30.1514 40.1694C30.0103 40.0645 29.8735 39.9556 29.7397 39.8433C29.7065 39.8159 29.6743 39.7886 29.6421 39.7617C29.5176 39.6567 29.394 39.5493 29.2739 39.4365C28.7852 38.9907 28.3354 38.5005 27.9263 37.9766C27.8486 37.877 27.772 37.7739 27.6953 37.6704C27.6426 37.5977 27.5903 37.5234 27.5386 37.4492C27.4707 37.3516 27.4038 37.2539 27.3398 37.1538C27.1646 36.8862 27 36.6118 26.8457 36.3291C26.644 35.958 26.4624 35.5767 26.3008 35.1841C26.2109 34.9663 26.127 34.7456 26.0488 34.5205C26.0479 34.5156 26.0449 34.5083 26.0439 34.502C26.0205 34.4355 25.998 34.3677 25.9771 34.2993C25.8613 33.9497 25.7637 33.5928 25.6831 33.2285C25.5669 32.7075 25.4844 32.1724 25.4409 31.6265C25.4375 31.5845 25.4336 31.5425 25.4312 31.4995C25.4116 31.2549 25.4004 31.0063 25.3979 30.7559C25.3965 30.709 25.3965 30.6592 25.3965 30.6099V28.5239C25.3965 28.0913 25.4199 27.665 25.4668 27.2466C25.4683 27.2241 25.4707 27.2021 25.4731 27.1797C25.5112 26.8115 25.5693 26.4497 25.6426 26.0942C25.6582 26.0186 25.6743 25.9434 25.6929 25.8682C25.7251 25.7197 25.7622 25.5713 25.8018 25.4258C25.8647 25.1875 25.9351 24.9526 26.0117 24.7217C26.166 24.2622 26.3462 23.8149 26.5527 23.3828C26.645 23.186 26.7427 22.9937 26.8477 22.8047C26.9346 22.6426 27.0259 22.4849 27.1211 22.3276C27.2344 22.1387 27.353 21.9536 27.478 21.7705C27.7041 21.4395 27.9458 21.1211 28.2031 20.8145C28.3364 20.6567 28.4736 20.502 28.6143 20.3516C28.7661 20.1885 28.9229 20.0288 29.085 19.8745C29.2393 19.7227 29.3999 19.5781 29.563 19.4375C29.8286 19.2075 30.105 18.9902 30.3906 18.7852C30.561 18.6616 30.7339 18.5444 30.9116 18.4321C31.1465 18.2803 31.3862 18.1367 31.6318 18.0034C31.8184 17.9009 32.0073 17.8032 32.2012 17.7104C32.6929 17.7178 33.1772 17.7588 33.6528 17.8281C34.0195 17.8799 34.3813 17.9502 34.7358 18.0381C35.5757 18.2432 36.3789 18.542 37.1348 18.9224C37.3271 19.0186 37.5161 19.1201 37.7026 19.2261C38.3994 19.6279 39.0493 20.0996 39.6436 20.6333C39.7964 20.77 39.9458 20.9111 40.0918 21.0581C40.0928 21.0581 40.0957 21.0605 40.0967 21.0615C40.6562 21.6211 41.1577 22.2378 41.5913 22.9023C41.7075 23.0791 41.8188 23.2593 41.9238 23.4434C42.3447 24.1719 42.687 24.9517 42.9404 25.7705C43.1143 26.3325 43.2466 26.9116 43.332 27.5073C43.4102 28.0469 43.4507 28.5977 43.4507 29.1587Z" fill="#313B5A"/>
<path d="M43.4507 29.1587V31.1514C43.4507 31.377 43.4448 31.6021 43.4312 31.8242C43.3867 32.5977 43.2656 33.3496 43.0742 34.0737C42.958 34.5181 42.8145 34.9531 42.6465 35.374C42.3501 36.1226 41.9771 36.8315 41.5361 37.4912C41.4214 37.6655 41.3003 37.8359 41.1753 38.0039C40.7012 38.6377 40.1626 39.2207 39.5684 39.7432C39.4141 39.8804 39.2549 40.0122 39.0928 40.1411C38.4604 40.6396 37.7734 41.0747 37.0425 41.4331C36.8462 41.5303 36.646 41.6221 36.4419 41.707C36.3706 41.7378 36.2979 41.7676 36.2236 41.7974C35.8022 41.9653 35.3677 42.1074 34.9229 42.2246C34.5698 42.3184 34.209 42.395 33.8433 42.4531C33.5874 42.4951 33.3296 42.5283 33.0688 42.5508C32.7168 42.5854 32.3608 42.6016 32.0005 42.6016H31.999V17.708H32.0005C32.561 17.708 33.1133 17.749 33.6533 17.8281C34.02 17.8799 34.3818 17.9502 34.7363 18.0381C35.5762 18.2432 36.3794 18.542 37.1353 18.9224C37.3276 19.0186 37.5166 19.1201 37.7036 19.2261C38.3999 19.6279 39.0498 20.0996 39.644 20.6333C39.7969 20.77 39.9463 20.9111 40.0923 21.0581C40.0933 21.0581 40.0962 21.0605 40.0972 21.0615C40.6567 21.6211 41.1582 22.2378 41.5918 22.9023C41.708 23.0791 41.8193 23.2593 41.9243 23.4434C42.3452 24.1719 42.6875 24.9517 42.9409 25.7705C43.1147 26.3325 43.2471 26.9116 43.3325 27.5073C43.4102 28.0469 43.4507 28.5977 43.4507 29.1587Z" fill="#20273A"/>
<path d="M31.9985 19.5186L30.9126 18.4326C30.7339 18.5449 30.561 18.6626 30.3911 18.7852L31.7227 20.1177L30.0513 21.7886L28.6152 20.3511C28.4736 20.5024 28.3364 20.6562 28.2036 20.8149L29.6152 22.2251L27.9414 23.8975L26.8486 22.8052C26.7437 22.9937 26.6465 23.186 26.5527 23.3823L27.5049 24.335L25.8325 26.0073L25.6938 25.8677C25.6748 25.9438 25.6587 26.0186 25.6426 26.0938C25.5698 26.4502 25.5112 26.811 25.4736 27.1802C25.4712 27.2026 25.4688 27.2236 25.4673 27.2461L25.8325 26.8813L27.5039 28.5527L25.8325 30.2236L25.3975 29.7876V30.6099C25.3975 30.6602 25.3975 30.709 25.3989 30.7563C25.4014 31.0063 25.4111 31.2549 25.4312 31.5L25.8325 31.0977L27.5063 32.77L26.6138 33.6636H26.6123L25.9775 34.2998C25.9985 34.3677 26.0215 34.4351 26.0439 34.5024C26.0449 34.5088 26.0474 34.5161 26.0488 34.5215C26.1274 34.7451 26.2114 34.9663 26.3013 35.1836C26.4624 35.5776 26.645 35.959 26.8462 36.3286L27.5049 36.9888L27.3398 37.1538C27.4038 37.2539 27.4712 37.3525 27.5386 37.4502C27.5913 37.5239 27.6426 37.5977 27.6963 37.6699L27.9414 37.4248L29.6138 39.0977L29.2739 39.4375C29.3936 39.5488 29.5176 39.6562 29.6426 39.7612C29.6748 39.7886 29.7061 39.8164 29.7402 39.8438L30.0498 39.5337L31.6362 41.1187L31.666 41.1489L31.7173 41.2012L31.7236 41.2075L31.0249 41.9048L30.436 42.4937C30.6987 42.5312 30.9624 42.5586 31.23 42.5752L31.8989 41.9048L31.9985 41.8052V40.6074L30.4873 39.0977L31.9985 37.585V36.3911L30.4888 34.8789L31.9985 33.3687V32.1738L30.4888 30.6626L31.9985 29.1514V27.9551L30.4873 26.4424L31.9985 24.9302V23.7363L30.4888 22.2251L31.9985 20.7148V19.5186ZM26.2686 26.4438L27.9414 24.7715L29.6138 26.4424L27.9414 28.1162L26.2686 26.4438ZM26.2686 30.6611L27.9414 28.9902L29.6152 30.6626L27.9424 32.335L26.2686 30.6611ZM26.27 34.8799L27.9424 33.2075L28.3989 33.6636L29.6152 34.8789L27.9414 36.5513L26.27 34.8799ZM31.7227 36.9873L30.0498 38.6602L28.3789 36.9888L30.0513 35.3164L31.7227 36.9873ZM31.7227 32.77L30.8301 33.6636L30.0513 34.4424L29.2725 33.6636L28.3799 32.77L30.0513 31.0986L31.7227 32.77ZM31.7236 28.5537L30.0513 30.2261L28.3774 28.5527L30.0498 26.8799L31.7236 28.5537ZM31.7227 24.334L30.0498 26.0063L28.3789 24.335L30.0513 22.6611L31.7227 24.334Z" fill="#20273A"/>
<path d="M30.4888 18.0088L30.7163 17.7812C30.3286 17.8237 29.9473 17.8848 29.5737 17.9663L29.6152 18.0088L27.9424 19.6802L27.0786 18.8174C26.8823 18.9102 26.6914 19.0088 26.5024 19.1123L27.5063 20.1177L25.8325 21.79L24.5273 20.4824C24.3711 20.6177 24.2188 20.7549 24.0698 20.8999L25.3975 22.2261L23.7251 23.8989L22.5361 22.7114C22.4175 22.8848 22.3037 23.061 22.1948 23.2427L23.2876 24.335L21.6162 26.0073L21.1362 25.5288C21.0625 25.75 20.9961 25.9727 20.9351 26.2002L21.1787 26.4438L20.7837 26.8389C20.7139 27.1787 20.6587 27.5249 20.6211 27.875L21.6162 26.8813L23.2876 28.5527L21.6152 30.2251L20.5488 29.1587V30.0327L21.1787 30.6626L20.5498 31.291C20.5527 31.5713 20.5664 31.8477 20.5913 32.1226L21.6152 31.0977L23.2876 32.77L22.3936 33.6636L21.6152 34.4424L20.9136 33.7427L20.8223 33.6514C20.8311 33.6914 20.8398 33.7314 20.8501 33.77C20.936 34.1436 21.0425 34.5098 21.166 34.8677L21.1777 34.8789L21.1714 34.8848C21.2451 35.1001 21.3262 35.311 21.4126 35.5186L21.6152 35.3164L23.2876 36.9888L22.5938 37.6812C22.7124 37.8535 22.8364 38.0215 22.9648 38.186L23.7251 37.4263L25.3965 39.0977L24.6025 39.8901C24.7612 40.0249 24.9224 40.1548 25.0889 40.2788L25.8325 39.5352L27.1699 40.8726L27.5039 41.2061L27.1738 41.5361C27.25 41.5723 27.3262 41.6074 27.4038 41.6411C27.5288 41.6973 27.6562 41.75 27.7852 41.7998L27.8936 41.6899L27.9414 41.6426L28.2827 41.9839C28.6777 42.1201 29.084 42.2349 29.4985 42.3276L28.3774 41.2061L28.3823 41.2012L29.7402 39.8438C29.7061 39.8164 29.6748 39.7886 29.6426 39.7612C29.5176 39.6562 29.3936 39.5488 29.2739 39.4375L27.9414 40.77L26.7876 39.6162L26.2686 39.0977L27.6963 37.6699C27.6426 37.5977 27.5913 37.5239 27.5386 37.4502C27.4712 37.3525 27.4038 37.2539 27.3398 37.1538L25.8325 38.6611L24.1602 36.9888L25.5625 35.5874L25.834 35.3164L26.8462 36.3286C26.645 35.959 26.4624 35.5776 26.3013 35.1836C26.2114 34.9663 26.1274 34.7451 26.0488 34.5215C26.0474 34.5161 26.0449 34.5088 26.0439 34.5024C26.0215 34.4351 25.9985 34.3677 25.9775 34.2998L25.834 34.4424L25.0552 33.6636L24.1602 32.77L25.4312 31.5C25.4111 31.2549 25.4014 31.0063 25.3989 30.7563C25.3975 30.709 25.3975 30.6602 25.3975 30.6099V29.7876L24.1602 28.5527L25.4673 27.2461C25.4688 27.2236 25.4712 27.2026 25.4736 27.1802C25.5112 26.811 25.5698 26.4502 25.6426 26.0938C25.6587 26.0186 25.6748 25.9438 25.6938 25.8677L24.1602 24.335L25.834 22.6626L26.5527 23.3823C26.6465 23.186 26.7437 22.9937 26.8486 22.8052L26.27 22.2261L27.9424 20.5537L28.2036 20.8149C28.3364 20.6562 28.4736 20.5024 28.6152 20.3511L28.3799 20.1177L30.0513 18.4463L30.3911 18.7852C30.561 18.6626 30.7339 18.5449 30.9126 18.4326L30.4888 18.0088ZM24.1812 33.6636L25.3975 34.8799L23.7251 36.5527L22.0513 34.8789L23.7236 33.2061L24.1812 33.6636ZM25.3965 30.6611L23.7236 32.334L22.0527 30.6626L23.7251 28.9902L25.3965 30.6611ZM25.3965 26.4438L23.7251 28.1162L22.0537 26.4438L23.7251 24.7725L25.3965 26.4438Z" fill="#545D7A"/>
<path d="M43.4512 29.48L42.7051 30.2261L41.0327 28.5527L42.7051 26.8799L43.3325 27.5073C43.2476 26.9111 43.1152 26.3325 42.9414 25.77L42.7051 26.0063L41.0327 24.335L41.9238 23.4438C41.8188 23.2588 41.7075 23.0786 41.5913 22.9023L40.5962 23.8975L38.9238 22.2261L40.0923 21.0586C39.9463 20.9111 39.7974 20.77 39.6436 20.6338L38.4873 21.79L36.814 20.1162L37.7036 19.2261C37.5161 19.1201 37.3276 19.0186 37.1348 18.9224L36.3765 19.6802L34.7363 18.0376C34.3823 17.9502 34.02 17.8799 33.6523 17.8276L33.8325 18.0073L32.1602 19.6802L31.9985 19.5186V20.7148L32.1602 20.5537L33.8311 22.2251L32.1602 23.8965L31.9985 23.7363V24.9302L32.1602 24.77L33.834 26.4438L32.1611 28.1162L31.9985 27.9551V29.1514L32.1611 28.9902L33.8325 30.6626L32.1602 32.335L31.9985 32.1738V33.3687L32.1602 33.2075L32.6162 33.6636L33.8311 34.8789L32.1602 36.5513L32 36.3926L31.9985 36.3911V37.585L32 37.584L32.1602 37.4248L33.834 39.0977L32.1611 40.77L31.9985 40.6074V41.8052L32.1611 41.6426L32.4238 41.9048L33.0688 42.5513C33.3301 42.5288 33.5874 42.4951 33.8438 42.4536L32.5977 41.2075L34.27 39.5352L35.855 41.1187L35.9424 41.2061L35.2427 41.9048L34.9224 42.2251C35.2686 42.1338 35.6089 42.0273 35.9414 41.9048C36.0361 41.8701 36.1299 41.835 36.2236 41.7974L36.3774 41.6426L36.4424 41.7075C36.6465 41.6226 36.8462 41.5298 37.0425 41.4326L36.8149 41.2061L36.9023 41.1187L38.4863 39.5352L39.0923 40.1411C39.2549 40.0127 39.4136 39.8799 39.5688 39.7437L38.9238 39.0977L40.5962 37.4248L41.1748 38.0039C41.2998 37.8364 41.4214 37.665 41.5361 37.4912L41.0327 36.9888L42.6465 35.3735C42.8149 34.9526 42.9575 34.5186 43.0737 34.0737L42.7051 34.4424L41.9263 33.6636L41.0337 32.77L42.7051 31.0986L43.4312 31.8237C43.4448 31.6025 43.4512 31.3774 43.4512 31.1514V30.9712L43.1426 30.6626L43.4512 30.3535V29.48ZM42.2676 26.4424L40.5952 28.1162L38.9238 26.4438L40.5962 24.7715L42.2676 26.4424ZM38.0498 30.6611L36.3774 32.334L34.7051 30.6626L36.3774 28.9902L38.0498 30.6611ZM34.7061 26.4438L36.3774 24.7725L38.0498 26.4438L36.3774 28.1162L34.7061 26.4438ZM36.835 33.6636L38.0498 34.8799L36.3774 36.5527L34.7036 34.8789L35.9199 33.6636L36.3774 33.2061L36.835 33.6636ZM37.709 33.6636L36.814 32.77L38.4863 31.0977L40.1602 32.77L38.4873 34.4424L37.709 33.6636ZM36.8149 28.5527L38.4863 26.8813L40.1587 28.5527L38.4863 30.2236L36.8149 28.5527ZM40.1587 24.335L38.4863 26.0073L36.8149 24.335L38.4873 22.6626L40.1587 24.335ZM36.3774 20.5527L38.0498 22.2261L36.3774 23.8989L34.7036 22.2251L36.3774 20.5527ZM32.5977 20.1177L34.27 18.4448L35.9414 20.1162L34.2686 21.7886L32.5977 20.1177ZM32.5977 24.334L34.2686 22.6611L35.9424 24.335L34.27 26.0073L32.5977 24.334ZM32.5977 28.5537L34.27 26.8813L35.9424 28.5527L34.27 30.2251L32.5977 28.5537ZM33.4902 33.6636L32.5962 32.77L34.27 31.0977L35.9414 32.77L34.2686 34.4424L33.4902 33.6636ZM32.5977 36.9873L34.2686 35.3164L35.9424 36.9888L34.27 38.6611L32.5977 36.9873ZM36.3774 40.77L34.7061 39.0977L36.3774 37.4263L38.0498 39.0977L36.3774 40.77ZM38.4863 38.6611L36.8149 36.9888L38.4873 35.3164L40.1587 36.9888L38.4863 38.6611ZM41.0527 33.6636L42.2686 34.8789L40.5962 36.5513L38.9238 34.8799L40.5962 33.2075L41.0527 33.6636ZM40.5962 32.335L38.9238 30.6611L40.5952 28.9902L42.2686 30.6626L40.5962 32.335Z" fill="#313B5A"/>
<path d="M43.7176 35.1938L41.095 41.9048L40.3714 48.0464C40.2898 48.7358 39.7054 49.2559 39.011 49.2559H24.9881C24.2938 49.2559 23.7093 48.7358 23.6277 48.0464L22.9041 41.9048L20.2815 35.1938C19.9954 34.458 20.5374 33.6636 21.3279 33.6636H42.6722C43.4617 33.6636 44.0052 34.4575 43.7176 35.1938Z" fill="#545D7A"/>
<path d="M43.7175 35.1938L41.095 41.9048L40.3713 48.0464C40.2898 48.7358 39.7053 49.2559 39.011 49.2559H28.9304C28.2366 49.2559 27.6965 48.7358 27.6741 48.0464L27.4827 41.9048L25.4421 35.1938C25.2185 34.458 25.8298 33.6636 26.6204 33.6636H42.6721C43.4617 33.6636 44.0051 34.4575 43.7175 35.1938Z" fill="#474F6F"/>
<path d="M43.7178 35.1938L41.0952 41.9048L40.3716 48.0464C40.29 48.7358 39.7056 49.2559 39.0112 49.2559H32.0005V33.6636H42.6724C43.4619 33.6636 44.0054 34.4575 43.7178 35.1938Z" fill="#313B5A"/>
<path d="M41.0952 41.9048L40.3716 48.0464C40.29 48.7358 39.7056 49.2559 39.0112 49.2559H24.9883C24.2939 49.2559 23.7095 48.7358 23.6279 48.0464L22.9043 41.9048H41.0952Z" fill="#474F6F"/>
<path d="M41.0952 41.9048L40.3716 48.0464C40.29 48.7358 39.7056 49.2559 39.0112 49.2559H28.1855L27.4521 41.9048H41.0952Z" fill="#313B5A"/>
<path d="M34.1074 54.5903V59.8145C34.1074 60.978 33.1641 61.9214 32.0005 61.9214C30.8354 61.9214 29.8921 60.9775 29.8921 59.8145V54.5903C29.8921 53.4268 30.8354 52.4834 32.0005 52.4834C32.582 52.4834 33.1084 52.7192 33.4902 53.1011C33.8716 53.4814 34.1074 54.0088 34.1074 54.5903Z" fill="#313B5A"/>
<path d="M34.1074 54.5903V59.8145C34.1074 60.978 33.1641 61.9214 32.0005 61.9214V52.4834C32.582 52.4834 33.1084 52.7192 33.4902 53.1011C33.8716 53.4814 34.1074 54.0088 34.1074 54.5903Z" fill="#20273A"/>
<path d="M34.1074 57.7944V59.8145C34.1074 60.978 33.1641 61.9214 32.0005 61.9214C30.8354 61.9214 29.8921 60.9775 29.8921 59.8145V57.7944C29.8921 56.6309 30.8354 55.6875 32.0005 55.6875C32.582 55.6875 33.1084 55.9233 33.4902 56.3052C33.8716 56.6855 34.1074 57.2129 34.1074 57.7944Z" fill="#FFD112"/>
<path d="M41.0952 41.9048L40.3716 48.0464C40.29 48.7358 39.7056 49.2559 39.0112 49.2559H32.0005V41.9048H41.0952Z" fill="#20273A"/>
<path d="M34.1074 57.7944V59.8145C34.1074 60.978 33.1641 61.9214 32.0005 61.9214V55.6875C32.582 55.6875 33.1084 55.9233 33.4902 56.3052C33.8716 56.6855 34.1074 57.2129 34.1074 57.7944Z" fill="#FF9F00"/>
<path d="M28.4536 6.29337V12.0702C28.4536 12.5326 28.0801 12.9071 27.6182 12.9091C27.6118 12.9091 27.6055 12.9091 27.5986 12.9091C26.811 12.9228 26.187 13.558 26.187 14.3461C26.187 15.1366 26.8262 15.7782 27.6162 15.7826C28.4175 15.7865 29.0605 15.1161 29.0605 14.3144V8.20206C29.0605 7.90518 29.2544 7.64395 29.5386 7.55753L34.1143 6.16885C34.5464 6.03751 34.9829 6.36124 34.9829 6.8129V10.0883C34.9829 10.5502 34.6094 10.9252 34.1475 10.9272C34.1411 10.9272 34.1343 10.9272 34.1279 10.9276C33.3403 10.9408 32.7163 11.5761 32.7163 12.3642C32.7163 13.1547 33.3555 13.7963 34.145 13.8007C34.9468 13.8046 35.5898 13.1342 35.5898 12.3324V4.54141C35.5898 4.0834 35.1475 3.75479 34.7085 3.88809L28.9385 5.63956C28.6504 5.72696 28.4536 5.99258 28.4536 6.29337Z" fill="#BA0D5C"/>
<path d="M7.54102 27.4604V33.2377C7.54102 33.6996 7.16748 34.0746 6.70557 34.0761C6.69922 34.0761 6.69238 34.0766 6.68604 34.0766C5.89844 34.0898 5.27441 34.7255 5.27441 35.5131C5.27441 36.3041 5.91357 36.9452 6.70312 36.9496C7.50488 36.954 8.14795 36.2831 8.14795 35.4818V29.369C8.14795 29.0727 8.3418 28.8109 8.62549 28.725L13.2012 27.3363C13.6338 27.205 14.0703 27.5287 14.0703 27.9804V31.2558C14.0703 31.7177 13.6968 32.0927 13.2349 32.0946C13.228 32.0946 13.2217 32.0946 13.2153 32.0946C12.4277 32.1083 11.8032 32.7436 11.8037 33.5316C11.8037 34.3222 12.4424 34.9638 13.2324 34.9677C14.0342 34.9721 14.6768 34.3017 14.6768 33.4999V25.7089C14.6768 25.2509 14.2344 24.9223 13.7959 25.0556L8.02539 26.807C7.73779 26.8944 7.54102 27.1596 7.54102 27.4604Z" fill="#BA0D5C"/>
<path d="M49.4893 28.4726V34.2494C49.4893 34.7118 49.1157 35.0868 48.6538 35.0883C48.6475 35.0883 48.6411 35.0888 48.6343 35.0888C47.8467 35.102 47.2227 35.7372 47.2227 36.5253C47.2227 37.3158 47.8618 37.9574 48.6514 37.9618C49.4531 37.9662 50.0962 37.2953 50.0962 36.4936V30.3813C50.0962 30.0849 50.29 29.8232 50.5737 29.7372L55.1494 28.3481C55.582 28.2172 56.0186 28.5404 56.0186 28.9926V32.268C56.0186 32.7299 55.645 33.1049 55.1831 33.1068C55.1763 33.1068 55.1699 33.1068 55.1636 33.1068C54.376 33.1205 53.7515 33.7558 53.752 34.5434C53.752 35.3344 54.3906 35.976 55.1807 35.9799C55.9824 35.9843 56.6255 35.3139 56.6255 34.5121V26.7211C56.6255 26.2631 56.1826 25.9345 55.7441 26.0678L49.9736 27.8192C49.686 27.9066 49.4893 28.1723 49.4893 28.4726Z" fill="#BA0D5C"/>
</g>
<defs>
<clipPath id="clip0_2_3709">
<rect width="64" height="64" fill="white"/>
</clipPath>
</defs>
</svg>
