<svg width="64" height="64" viewBox="0 0 64 64" fill="none" xmlns="http://www.w3.org/2000/svg">
<path d="M28.397 1.4591C29.3611 2.39168 30.65 2.91303 31.9914 2.91303C33.3328 2.91303 34.6216 2.39168 35.5858 1.4591C38.3896 -1.25843 43.0772 -0.000917685 44.1497 3.74913C44.5185 5.03854 45.374 6.13412 46.5356 6.80447C47.6972 7.47482 49.0738 7.66745 50.3747 7.34168C54.161 6.39292 57.5923 9.82296 56.6461 13.6093C56.3208 14.9104 56.5139 16.287 57.1847 17.4483C57.8556 18.6097 58.9515 19.4648 60.2411 19.8331C63.9912 20.9056 65.2524 25.5907 62.5387 28.397C61.6061 29.3611 61.0847 30.65 61.0847 31.9914C61.0847 33.3328 61.6061 34.6216 62.5387 35.5858C65.2574 38.3896 63.9999 43.0772 60.2499 44.1497C58.9605 44.5185 57.8649 45.374 57.1945 46.5356C56.5242 47.6972 56.3316 49.0738 56.6573 50.3747C57.6061 54.161 54.176 57.5923 50.3897 56.6461C49.0886 56.3208 47.712 56.5139 46.5507 57.1847C45.3893 57.8556 44.5342 58.9515 44.1659 60.2411C43.0934 63.9912 38.4083 65.2524 35.6021 62.5387C34.6379 61.6061 33.349 61.0847 32.0076 61.0847C30.6662 61.0847 29.3774 61.6061 28.4132 62.5387C25.6094 65.2574 20.9219 63.9999 19.8493 60.2499C19.4805 58.9605 18.625 57.8649 17.4634 57.1945C16.3019 56.5242 14.9252 56.3316 13.6243 56.6573C9.83796 57.6061 6.40667 54.176 7.35293 50.3897C7.67824 49.0886 7.48508 47.712 6.81426 46.5507C6.14344 45.3893 5.04748 44.5342 3.75788 44.1659C-0.000917685 43.0934 -1.25093 38.4083 1.4591 35.6021C2.39168 34.6379 2.91303 33.349 2.91303 32.0076C2.91303 30.6662 2.39168 29.3774 1.4591 28.4132C-1.25843 25.6094 -0.000917685 20.9219 3.74913 19.8493C5.03854 19.4805 6.13412 18.625 6.80447 17.4634C7.47482 16.3019 7.66745 14.9252 7.34168 13.6243C6.39292 9.83671 9.82296 6.40542 13.6093 7.35168C14.9104 7.67699 16.287 7.48383 17.4483 6.81301C18.6097 6.14219 19.4648 5.04623 19.8331 3.75663C20.9056 -0.000917685 25.5907 -1.25093 28.397 1.4591Z" fill="#FFCB5B"/>
<path d="M56.8172 51.6547C56.8172 54.8898 53.7434 57.4848 50.3896 56.6473C49.0884 56.321 47.7114 56.5137 46.5498 57.1847C45.3882 57.8557 44.5332 58.9522 44.1657 60.2424C43.8579 61.3268 43.2034 62.2805 42.3022 62.9577C41.4011 63.635 40.3029 63.9984 39.1757 63.9924C37.8396 63.9938 36.5564 63.4709 35.6019 62.5361C34.6377 61.6036 33.3488 61.0822 32.0075 61.0822C30.6661 61.0822 29.3772 61.6036 28.413 62.5361C27.4595 63.4741 26.1755 63.9998 24.838 63.9999C23.7109 64.006 22.6128 63.6426 21.7118 62.9654C20.8108 62.2881 20.1566 61.3343 19.8492 60.2499C19.4815 58.9597 18.6261 57.8634 17.4642 57.1928C16.3023 56.5223 14.9251 56.3302 13.6241 56.6573C13.206 56.7631 12.7765 56.8168 12.3453 56.8173C9.17652 56.8173 6.62399 53.8748 7.30525 50.5972C7.4481 51.2779 7.72725 51.9226 8.12588 52.4925C8.5245 53.0625 9.03436 53.5458 9.62474 53.9135C10.2151 54.2811 10.8738 54.5255 11.5611 54.6319C12.2485 54.7382 12.9502 54.7043 13.6241 54.5323C14.9251 54.2052 16.3023 54.3973 17.4642 55.0678C18.6261 55.7383 19.4815 56.8347 19.8492 58.1248C20.1566 59.2092 20.8108 60.1631 21.7118 60.8403C22.6128 61.5176 23.7109 61.881 24.838 61.8749C26.1746 61.8764 27.4585 61.353 28.413 60.4174C29.3772 59.4848 30.6661 58.9634 32.0075 58.9634C33.3488 58.9634 34.6377 59.4848 35.6019 60.4174C36.5562 61.3526 37.8395 61.876 39.1757 61.8749C40.3029 61.8808 41.4011 61.5174 42.3022 60.8402C43.2034 60.163 43.8579 59.2092 44.1657 58.1248C44.5332 56.8347 45.3882 55.7381 46.5498 55.0672C47.7114 54.3962 49.0884 54.2035 50.3896 54.5298C51.0631 54.698 51.7636 54.729 52.4493 54.621C53.1351 54.5129 53.7921 54.268 54.3813 53.9009C54.9704 53.5338 55.4798 53.0519 55.8789 52.4839C56.278 51.9159 56.5589 51.2735 56.7046 50.5947C56.7787 50.9432 56.8164 51.2985 56.8172 51.6547Z" fill="#F7B737"/>
<path d="M31.9994 57.4398C46.0497 57.4398 57.4398 46.0497 57.4398 31.9994C57.4398 17.9491 46.0497 6.55908 31.9994 6.55908C17.9491 6.55908 6.55908 17.9491 6.55908 31.9994C6.55908 46.0497 17.9491 57.4398 31.9994 57.4398Z" fill="#FF4755"/>
<path d="M57.4398 31.9995C57.4398 46.0497 46.0496 57.4399 31.9994 57.4399C17.9492 57.4399 6.55908 46.0497 6.55908 31.9995C6.55908 31.517 6.57283 31.037 6.59908 30.562C7.34909 43.9434 18.4317 54.5623 31.9994 54.5623C45.5671 54.5623 56.6547 43.9372 57.3998 30.562C57.426 31.037 57.4398 31.517 57.4398 31.9995Z" fill="#FC2B3A"/>
<path d="M52.3658 31.9995C52.3658 36.8011 50.6692 41.4483 47.5757 45.1206C44.4822 48.7928 40.1907 51.2541 35.4589 52.0697C30.727 52.8853 25.8592 52.0029 21.7148 49.5782C17.5704 47.1535 14.4159 43.3425 12.8082 38.818C11.2006 34.2935 11.2433 29.3466 12.9286 24.8505C14.614 20.3544 17.8337 16.5983 22.0193 14.2454C26.2049 11.8925 31.0872 11.0941 35.8043 11.9912C40.5214 12.8883 44.7698 15.4231 47.7995 19.1481C50.7599 22.7762 52.3733 27.317 52.3658 31.9995Z" fill="black"/>
<path d="M44.817 16.1717L31.9993 28.6444L19.1816 16.1717C22.8081 13.2351 27.333 11.6328 31.9993 11.6328C36.6657 11.6328 41.1905 13.2351 44.817 16.1717Z" fill="#007749"/>
<path d="M45.277 47.4434C41.5824 50.6195 36.8716 52.3661 31.9994 52.3661C27.1271 52.3661 22.4163 50.6195 18.7217 47.4434L31.9994 34.5232L45.277 47.4434Z" fill="#007749"/>
<path d="M48.1711 44.381C47.3144 45.4987 46.3447 46.525 45.2773 47.4435L31.9996 34.5234L18.7219 47.4435C17.6545 46.525 16.6848 45.4987 15.8281 44.381L28.9783 31.5833L16.1994 19.1482C17.0885 18.0561 18.088 17.0587 19.1819 16.1719L31.9996 28.6445L44.8173 16.1719C45.9112 17.0587 46.9107 18.0561 47.7998 19.1482L35.0209 31.5833L48.1711 44.381Z" fill="#FFB81C"/>
<g opacity="0.47">
<path d="M52.3658 31.9995C52.3658 37.4011 50.2201 42.5814 46.4006 46.4008C42.5812 50.2203 37.4009 52.366 31.9993 52.366C26.5978 52.366 21.4175 50.2203 17.598 46.4008C13.7786 42.5814 11.6328 37.4011 11.6328 31.9995C11.6328 31.622 11.6432 31.247 11.6641 30.8745C11.9524 36.0728 14.2205 40.9633 18.0024 44.5414C21.7844 48.1194 26.793 50.1132 31.9993 50.1132C37.2056 50.1132 42.2143 48.1194 45.9962 44.5414C49.7782 40.9633 52.0463 36.0728 52.3346 30.8745C52.3563 31.247 52.3667 31.622 52.3658 31.9995Z" fill="black"/>
</g>
</svg>
