<svg width="64" height="64" viewBox="0 0 64 64" fill="none" xmlns="http://www.w3.org/2000/svg">
<path d="M56 5V25H8V5C8 3.93913 8.42143 2.92172 9.17157 2.17157C9.92172 1.42143 10.9391 1 12 1H52C53.0609 1 54.0783 1.42143 54.8284 2.17157C55.5786 2.92172 56 3.93913 56 5Z" fill="#FABA55"/>
<path d="M12 3H55.445C55.0969 2.3935 54.5953 1.88935 53.9906 1.53826C53.3858 1.18717 52.6993 1.00153 52 1H12C10.9391 1 9.92172 1.42143 9.17157 2.17157C8.42143 2.92172 8 3.93913 8 5V25H10V5C10 4.46957 10.2107 3.96086 10.5858 3.58579C10.9609 3.21071 11.4696 3 12 3Z" fill="#F4A33C"/>
<path d="M6 29H58V59H6V29Z" fill="#FAFFFF"/>
<path d="M6 36.65C7.014 37.0144 8.10802 37.0961 9.16492 36.8865C10.2218 36.6769 11.2018 36.1838 12 35.46C13.0965 36.4512 14.5219 36.9999 16 36.9999C17.4781 36.9999 18.9035 36.4512 20 35.46C21.0965 36.4512 22.5219 36.9999 24 36.9999C25.4781 36.9999 26.9035 36.4512 28 35.46C29.0965 36.4512 30.5219 36.9999 32 36.9999C33.4781 36.9999 34.9035 36.4512 36 35.46C37.0965 36.4512 38.5219 36.9999 40 36.9999C41.4781 36.9999 42.9035 36.4512 44 35.46C45.0965 36.4512 46.5219 36.9999 48 36.9999C49.4781 36.9999 50.9035 36.4512 52 35.46C52.7982 36.1838 53.7782 36.6769 54.8351 36.8865C55.892 37.0961 56.986 37.0144 58 36.65V29H6V36.65Z" fill="#F1F5FB"/>
<path d="M8 29H58V59H8V29Z" fill="#F1F5FB"/>
<path d="M8 37C9.47801 36.9996 10.9033 36.4509 12 35.46C13.0965 36.4512 14.5219 36.9999 16 36.9999C17.4781 36.9999 18.9035 36.4512 20 35.46C21.0965 36.4512 22.5219 36.9999 24 36.9999C25.4781 36.9999 26.9035 36.4512 28 35.46C29.0965 36.4512 30.5219 36.9999 32 36.9999C33.4781 36.9999 34.9035 36.4512 36 35.46C37.0965 36.4512 38.5219 36.9999 40 36.9999C41.4781 36.9999 42.9035 36.4512 44 35.46C45.0965 36.4512 46.5219 36.9999 48 36.9999C49.4781 36.9999 50.9035 36.4512 52 35.46C52.7982 36.1838 53.7782 36.6769 54.8351 36.8865C55.892 37.0961 56.986 37.0144 58 36.65V29H8V37Z" fill="#DCE6F5"/>
<path d="M4 29H12V31C12 32.0609 11.5786 33.0783 10.8284 33.8284C10.0783 34.5786 9.06087 35 8 35C6.93913 35 5.92172 34.5786 5.17157 33.8284C4.42143 33.0783 4 32.0609 4 31V29Z" fill="#FF85A0"/>
<path d="M9 34.859C9.85699 34.6391 10.6167 34.1408 11.1597 33.4423C11.7027 32.7438 11.9983 31.8847 12 31V29H6V31C6.00173 31.8847 6.29731 32.7438 6.84033 33.4423C7.38334 34.1408 8.14301 34.6391 9 34.859Z" fill="#FF6488"/>
<path d="M12 29H20V31C20 32.0609 19.5786 33.0783 18.8284 33.8284C18.0783 34.5786 17.0609 35 16 35C14.9391 35 13.9217 34.5786 13.1716 33.8284C12.4214 33.0783 12 32.0609 12 31V29Z" fill="#FFE663"/>
<path d="M20 29H28V31C28 32.0609 27.5786 33.0783 26.8284 33.8284C26.0783 34.5786 25.0609 35 24 35C22.9391 35 21.9217 34.5786 21.1716 33.8284C20.4214 33.0783 20 32.0609 20 31V29Z" fill="#FF6488"/>
<path d="M28 29H36V31C36 32.0609 35.5786 33.0783 34.8284 33.8284C34.0783 34.5786 33.0609 35 32 35C30.9391 35 29.9217 34.5786 29.1716 33.8284C28.4214 33.0783 28 32.0609 28 31V29Z" fill="#FFE663"/>
<path d="M36 29H44V31C44 32.0609 43.5786 33.0783 42.8284 33.8284C42.0783 34.5786 41.0609 35 40 35C38.9391 35 37.9217 34.5786 37.1716 33.8284C36.4214 33.0783 36 32.0609 36 31V29Z" fill="#FF6488"/>
<path d="M44 29H52V31C52 32.0609 51.5786 33.0783 50.8284 33.8284C50.0783 34.5786 49.0609 35 48 35C46.9391 35 45.9217 34.5786 45.1716 33.8284C44.4214 33.0783 44 32.0609 44 31V29Z" fill="#FFE663"/>
<path d="M52 29H60V31C60 32.0609 59.5786 33.0783 58.8284 33.8284C58.0783 34.5786 57.0609 35 56 35C54.9391 35 53.9217 34.5786 53.1716 33.8284C52.4214 33.0783 52 32.0609 52 31V29Z" fill="#FF6488"/>
<path d="M56 25H8L4 29H60L56 25Z" fill="#FF6488"/>
<path d="M10 25L6 29H60L56 25H10Z" fill="#F45379"/>
<path d="M18 40C19.5913 40 21.1174 40.6321 22.2426 41.7574C23.3679 42.8826 24 44.4087 24 46V59H12V46C12 44.4087 12.6321 42.8826 13.7574 41.7574C14.8826 40.6321 16.4087 40 18 40Z" fill="#FFE663"/>
<path d="M30 40H52V54H30V40Z" fill="#AAE0FF"/>
<path d="M6 59H58C58.7957 59 59.5587 59.3161 60.1213 59.8787C60.6839 60.4413 61 61.2044 61 62V63H3V62C3 61.2044 3.31607 60.4413 3.87868 59.8787C4.44129 59.3161 5.20435 59 6 59Z" fill="#676577"/>
<path d="M61 62C60.9957 61.708 60.9485 61.4183 60.86 61.14C60.5817 61.0515 60.292 61.0043 60 61H7C6.46957 61 5.96086 61.2107 5.58579 61.5858C5.21071 61.9609 5 62.4696 5 63H61V62Z" fill="#524F64"/>
<path d="M17 15H21V25H17V15Z" fill="#676577"/>
<path d="M35 5V20H31C30.4696 20 29.9609 19.7893 29.5858 19.4142C29.2107 19.0391 29 18.5304 29 18V13.325C28.9999 11.4832 29.5794 9.68815 30.6562 8.19401C31.7331 6.69987 33.2528 5.58244 35 5Z" fill="#FAFFFF"/>
<path d="M35 7.992C33.7753 8.78442 32.7679 9.87024 32.0693 11.1508C31.3708 12.4314 31.0032 13.8663 31 15.325V20H35V7.992Z" fill="#DCE6F5"/>
<path d="M31 20H35V25H31V20Z" fill="#676577"/>
<path d="M42.5 15H46.5V25H42.5V15Z" fill="#676577"/>
<path d="M44.5 17C46.9853 17 49 14.3137 49 11C49 7.68629 46.9853 5 44.5 5C42.0147 5 40 7.68629 40 11C40 14.3137 42.0147 17 44.5 17Z" fill="#DCE6F5"/>
<path d="M59 58.142V34.974C59.6188 34.5121 60.1216 33.9126 60.4688 33.2229C60.8159 32.5332 60.9977 31.7721 61 31V29C60.9999 28.7348 60.8946 28.4805 60.707 28.293L57 24.586V5C56.9984 3.67441 56.4711 2.40356 55.5338 1.46622C54.5964 0.528882 53.3256 0.00158786 52 0L12 0C10.6744 0.00158786 9.40356 0.528882 8.46622 1.46622C7.52888 2.40356 7.00159 3.67441 7 5V24.586L3.293 28.293C3.10545 28.4805 3.00006 28.7348 3 29V31C3.00225 31.7721 3.18413 32.5332 3.53125 33.2229C3.87837 33.9126 4.38121 34.5121 5 34.974V58.142C4.14386 58.363 3.38508 58.8615 2.8423 59.5596C2.29951 60.2576 2.00331 61.1158 2 62V63C2 63.2652 2.10536 63.5196 2.29289 63.7071C2.48043 63.8946 2.73478 64 3 64H61C61.2652 64 61.5196 63.8946 61.7071 63.7071C61.8946 63.5196 62 63.2652 62 63V62C61.9967 61.1158 61.7005 60.2576 61.1577 59.5596C60.6149 58.8615 59.8561 58.363 59 58.142ZM59 31C59 31.7956 58.6839 32.5587 58.1213 33.1213C57.5587 33.6839 56.7957 34 56 34C55.2043 34 54.4413 33.6839 53.8787 33.1213C53.3161 32.5587 53 31.7956 53 31V30H59V31ZM18 39C16.1441 39.0021 14.3649 39.7403 13.0526 41.0526C11.7403 42.3649 11.0021 44.1441 11 46V58H7V35.9C7.93073 36.0907 8.89665 36.0103 9.78299 35.6681C10.6693 35.326 11.4388 34.7366 12 33.97C12.4599 34.5994 13.0618 35.1114 13.7569 35.4644C14.4519 35.8173 15.2205 36.0013 16 36.0013C16.7795 36.0013 17.5481 35.8173 18.2431 35.4644C18.9382 35.1114 19.5401 34.5994 20 33.97C20.4599 34.5994 21.0618 35.1114 21.7569 35.4644C22.4519 35.8173 23.2205 36.0013 24 36.0013C24.7795 36.0013 25.5481 35.8173 26.2431 35.4644C26.9382 35.1114 27.5401 34.5994 28 33.97C28.4599 34.5994 29.0618 35.1114 29.7569 35.4644C30.4519 35.8173 31.2205 36.0013 32 36.0013C32.7795 36.0013 33.5481 35.8173 34.2431 35.4644C34.9382 35.1114 35.5401 34.5994 36 33.97C36.4599 34.5994 37.0618 35.1114 37.7569 35.4644C38.4519 35.8173 39.2205 36.0013 40 36.0013C40.7795 36.0013 41.5481 35.8173 42.2431 35.4644C42.9382 35.1114 43.5401 34.5994 44 33.97C44.4599 34.5994 45.0618 35.1114 45.7569 35.4644C46.4519 35.8173 47.2205 36.0013 48 36.0013C48.7795 36.0013 49.5481 35.8173 50.2431 35.4644C50.9382 35.1114 51.5401 34.5994 52 33.97C52.5612 34.7366 53.3307 35.326 54.217 35.6681C55.1033 36.0103 56.0693 36.0907 57 35.9V58H25V46C24.9979 44.1441 24.2597 42.3649 22.9474 41.0526C21.6351 39.7403 19.8559 39.0021 18 39ZM22 51H23V58H13V46C13 44.6739 13.5268 43.4021 14.4645 42.4645C15.4021 41.5268 16.6739 41 18 41C19.3261 41 20.5979 41.5268 21.5355 42.4645C22.4732 43.4021 23 44.6739 23 46V49H22C21.7348 49 21.4804 49.1054 21.2929 49.2929C21.1054 49.4804 21 49.7348 21 50C21 50.2652 21.1054 50.5196 21.2929 50.7071C21.4804 50.8946 21.7348 51 22 51ZM13 31V30H19V31C19 31.7956 18.6839 32.5587 18.1213 33.1213C17.5587 33.6839 16.7956 34 16 34C15.2044 34 14.4413 33.6839 13.8787 33.1213C13.3161 32.5587 13 31.7956 13 31ZM21 31V30H27V31C27 31.7956 26.6839 32.5587 26.1213 33.1213C25.5587 33.6839 24.7956 34 24 34C23.2044 34 22.4413 33.6839 21.8787 33.1213C21.3161 32.5587 21 31.7956 21 31ZM29 31V30H35V31C35 31.7956 34.6839 32.5587 34.1213 33.1213C33.5587 33.6839 32.7956 34 32 34C31.2044 34 30.4413 33.6839 29.8787 33.1213C29.3161 32.5587 29 31.7956 29 31ZM37 31V30H43V31C43 31.7956 42.6839 32.5587 42.1213 33.1213C41.5587 33.6839 40.7957 34 40 34C39.2043 34 38.4413 33.6839 37.8787 33.1213C37.3161 32.5587 37 31.7956 37 31ZM45 31V30H51V31C51 31.7956 50.6839 32.5587 50.1213 33.1213C49.5587 33.6839 48.7957 34 48 34C47.2043 34 46.4413 33.6839 45.8787 33.1213C45.3161 32.5587 45 31.7956 45 31ZM9 5C9 4.20435 9.31607 3.44129 9.87868 2.87868C10.4413 2.31607 11.2044 2 12 2H52C52.7957 2 53.5587 2.31607 54.1213 2.87868C54.6839 3.44129 55 4.20435 55 5V24H47.5V16.859C48.3148 16.1206 48.9601 15.2146 49.3916 14.2033C49.8231 13.1919 50.0307 12.0991 50 11C50 7.14 47.533 4 44.5 4C41.467 4 39 7.14 39 11C38.9693 12.0991 39.1769 13.1919 39.6084 14.2033C40.0399 15.2146 40.6852 16.1206 41.5 16.859V24H36V5C36 4.84155 35.9624 4.68536 35.8903 4.54429C35.8181 4.40323 35.7134 4.28134 35.5849 4.18866C35.4564 4.09598 35.3077 4.03517 35.151 4.01123C34.9944 3.9873 34.8343 4.00093 34.684 4.051C32.7377 4.6991 31.0448 5.94331 29.8451 7.6073C28.6454 9.27129 27.9999 11.2706 28 13.322V18C28.0011 18.6186 28.1941 19.2216 28.5523 19.726C28.9105 20.2303 29.4163 20.6112 30 20.816V24H22V15.816C22.5829 15.6099 23.0879 15.2288 23.4459 14.7247C23.8039 14.2206 23.9974 13.6183 24 13V5C24 4.73478 23.8946 4.48043 23.7071 4.29289C23.5196 4.10536 23.2652 4 23 4C22.7348 4 22.4804 4.10536 22.2929 4.29289C22.1054 4.48043 22 4.73478 22 5V13C22 13.2652 21.8946 13.5196 21.7071 13.7071C21.5196 13.8946 21.2652 14 21 14H20V5C20 4.73478 19.8946 4.48043 19.7071 4.29289C19.5196 4.10536 19.2652 4 19 4C18.7348 4 18.4804 4.10536 18.2929 4.29289C18.1054 4.48043 18 4.73478 18 5V14H17C16.7348 14 16.4804 13.8946 16.2929 13.7071C16.1054 13.5196 16 13.2652 16 13V5C16 4.73478 15.8946 4.48043 15.7071 4.29289C15.5196 4.10536 15.2652 4 15 4C14.7348 4 14.4804 4.10536 14.2929 4.29289C14.1054 4.48043 14 4.73478 14 5V13C14.0026 13.6183 14.1961 14.2206 14.5541 14.7247C14.9121 15.2288 15.4171 15.6099 16 15.816V24H9V5ZM44.5 16C42.6 16 41 13.71 41 11C41 8.29 42.6 6 44.5 6C46.4 6 48 8.29 48 11C48 13.71 46.4 16 44.5 16ZM45.5 17.878V24H43.5V17.878C44.1567 18.0407 44.8433 18.0407 45.5 17.878ZM31 19C30.7348 19 30.4804 18.8946 30.2929 18.7071C30.1054 18.5196 30 18.2652 30 18V13.325C29.9986 11.9376 30.3689 10.5752 31.0724 9.37933C31.7758 8.18348 32.7867 7.19789 34 6.525V19H31ZM34 21V24H32V21H34ZM20 16V24H18V16H20ZM8.414 26H55.586L57.586 28H6.414L8.414 26ZM5 30H11V31C11 31.7956 10.6839 32.5587 10.1213 33.1213C9.55871 33.6839 8.79565 34 8 34C7.20435 34 6.44129 33.6839 5.87868 33.1213C5.31607 32.5587 5 31.7956 5 31V30ZM4 62C4 61.4696 4.21071 60.9609 4.58579 60.5858C4.96086 60.2107 5.46957 60 6 60H58C58.5304 60 59.0391 60.2107 59.4142 60.5858C59.7893 60.9609 60 61.4696 60 62H4Z" fill="black"/>
<path d="M30 55H52C52.2652 55 52.5196 54.8946 52.7071 54.7071C52.8946 54.5196 53 54.2652 53 54V40C53 39.7348 52.8946 39.4804 52.7071 39.2929C52.5196 39.1054 52.2652 39 52 39H30C29.7348 39 29.4804 39.1054 29.2929 39.2929C29.1054 39.4804 29 39.7348 29 40V54C29 54.2652 29.1054 54.5196 29.2929 54.7071C29.4804 54.8946 29.7348 55 30 55ZM42 41H51V46H42V41ZM42 48H51V53H42V48ZM31 41H40V46H31V41ZM31 48H40V53H31V48Z" fill="black"/>
</svg>
