<svg width="64" height="64" viewBox="0 0 64 64" fill="none" xmlns="http://www.w3.org/2000/svg">
<path d="M59.7902 16.1262C59.7902 28.6012 49.6777 38.7137 37.2027 38.7137H26.7977C14.4265 38.7137 4.35773 28.7612 4.21148 16.3913L4.20898 16.1262H4.21023C9.08523 7.6075 17.7652 1.54625 27.934 0.2575C28.4715 0.18875 29.014 0.13375 29.5602 0.0925C30.0977 0.05125 30.6402 0.02375 31.1865 0.01125C31.4565 0.00375 31.7277 0 32.0002 0H32.004C32.2752 0 32.5452 0.00375 32.814 0.01125C33.3602 0.02375 33.9027 0.05125 34.4402 0.0925C34.9865 0.1325 35.529 0.1875 36.0665 0.25625C46.2352 1.545 54.914 7.60875 59.7902 16.1262Z" fill="#4E689B"/>
<path d="M64 32.0002C64 49.6727 49.6725 64.0002 32 64.0002C14.3275 64.0002 0 49.6727 0 32.0002C0 26.224 1.53125 20.8052 4.20875 16.1265H4.21C9.72375 25.7602 20.1038 32.2527 32 32.2527C43.8962 32.2527 54.2763 25.7602 59.79 16.1265C62.4688 20.8052 64 26.224 64 32.0002Z" fill="#374C81"/>
<path d="M37.5389 36.6288L36.5951 40.2738L32.0001 58.0113C23.7001 57.9701 18.2826 54.5726 16.3189 52.6088C14.7601 51.0501 13.6289 49.0513 13.1039 46.7876C13.0901 46.7326 13.0789 46.6801 13.0664 46.6264C13.0226 46.4239 12.9839 46.2214 12.9501 46.0176C12.5614 43.6376 13.0839 41.2026 14.3189 39.1313C14.7964 38.3313 15.7751 36.8451 16.8726 35.2138C18.9976 32.0513 19.2376 28.0951 17.7251 24.7826C16.3889 21.8576 15.6326 18.7013 15.6326 15.4851V14.5826C15.6326 12.8663 17.0239 11.4751 18.7401 11.4751C20.1201 11.4751 21.3251 12.3876 21.7226 13.7101C21.8389 14.0963 21.9839 14.4688 22.1564 14.8263C23.4051 17.4276 26.0639 19.2238 29.1426 19.2238L31.5589 19.2251C31.7064 19.2251 31.8539 19.2213 32.0001 19.2138L37.5389 36.6288Z" fill="#EF253D"/>
<path d="M51.05 46.0176C51.0162 46.2214 50.9775 46.4239 50.9338 46.6264C50.9212 46.6801 50.91 46.7326 50.8963 46.7876C50.3713 49.0514 49.24 51.0501 47.6813 52.6089C45.7175 54.5726 40.3 57.9701 32 58.0114V19.2139L49.4588 38.7639C49.515 38.8576 49.5688 38.9451 49.6188 39.0264C49.64 39.0626 49.6613 39.0976 49.6813 39.1314C49.9013 39.5014 50.1 39.8826 50.2738 40.2739C51.0737 42.0701 51.3687 44.0626 51.05 46.0176Z" fill="#D32420"/>
<path d="M32.0001 19.2139L39.4501 29.6095L32.0001 39.0264H30.6963C27.3126 39.0264 24.5688 36.2839 24.5688 32.8989V23.3214C24.5688 19.4614 27.6988 19.2251 31.5588 19.2251C31.7063 19.2251 31.8538 19.2214 32.0001 19.2139Z" fill="white"/>
<path d="M49.6925 39.0263H32V19.2138C32.1462 19.2213 32.2937 19.225 32.4412 19.225L34.8575 19.2238C38.36 19.2238 41.3188 16.8988 42.2775 13.71C42.6962 12.3163 44.0138 11.3775 45.4863 11.4838C47.1225 11.6013 48.3675 13.01 48.3675 14.6513V15.485C48.3675 18.7013 47.6113 21.8575 46.275 24.7825C44.7625 28.095 45.0025 32.0513 47.1275 35.2138L49.6925 39.0263Z" fill="#F0F8FF"/>
<path d="M42.9595 49.3781C43.0872 48.5952 42.556 47.857 41.7731 47.7293C40.9902 47.6016 40.252 48.1328 40.1243 48.9157C39.9966 49.6986 40.5277 50.4368 41.3106 50.5645C42.0936 50.6922 42.8318 50.1611 42.9595 49.3781Z" fill="#C8E2FD"/>
<path d="M32.0005 40.2732L33.6982 43.1773L32.0005 46.0813H24.5684V40.2732H32.0005Z" fill="#F0F8FF"/>
<path d="M32.0005 40.2732H39.4291V46.0813H32.0005V40.2732Z" fill="#C8E2FD"/>
<path d="M47.4529 44.7193C48.1126 44.714 48.6431 44.1749 48.6378 43.5152C48.6325 42.8555 48.0935 42.325 47.4338 42.3303C46.7741 42.3356 46.2435 42.8746 46.2488 43.5343C46.2541 44.194 46.7932 44.7246 47.4529 44.7193Z" fill="#F0F8FF"/>
<path d="M47.827 49.4469C48.2288 48.9237 48.1304 48.1739 47.6072 47.7722C47.0841 47.3704 46.3343 47.4688 45.9325 47.992C45.5308 48.5151 45.6292 49.2649 46.1523 49.6667C46.6755 50.0684 47.4252 49.97 47.827 49.4469Z" fill="#F0F8FF"/>
<path d="M32 26.5925L33.1233 29.6094L32 32.6262H27.9316V26.5925H32Z" fill="#C8E2FD"/>
<path d="M32 26.5928H36.0661V32.6264H32V26.5928Z" fill="#A6D0FC"/>
<path d="M32.0006 42.116L33.1663 43.1763L32.0006 44.4955H26.3975V42.116H32.0006Z" fill="#C8E2FD"/>
<path d="M32.0005 42.116H37.6001V44.4955H32.0005V42.116Z" fill="#A6D0FC"/>
<path d="M32.0036 0.826201L34.918 15.606L32.0036 26.5925H27.9336V23.9337L29.592 22.6037L27.9336 21.2737V18.615L29.5113 17.0585L27.9336 15.955V13.2962L29.4306 11.2483L27.9336 10.6375V7.97745L29.9686 6.24508L27.9336 5.3187V2.6587L31.9998 0.824951L32.0036 0.826201Z" fill="#C4573A"/>
<path d="M36.0664 2.65867V5.31867L34.2089 6.32092L36.0664 7.97742V10.6374L34.4993 11.4755L36.0664 13.2962V15.9549L35.0178 17.0649L36.0664 18.6149V21.2737L34.4785 22.0844L36.0664 23.9337V26.5924H32.0039V0.826172L36.0664 2.65867Z" fill="#AF3C25"/>
<path d="M33.1661 1.185L32.0036 2.65375L31.9998 2.65875H27.9336V0.2575C28.4711 0.18875 29.0136 0.13375 29.5598 0.0925L30.4148 0.61L31.1861 0.01125C31.4561 0.00375 31.7273 0 31.9998 0L32.0036 0.00375L33.1661 1.185Z" fill="#AF3C25"/>
<path d="M36.0662 0.25625V2.65875H32V0H32.0037C32.275 0 32.545 0.00375 32.8138 0.01125L33.585 0.61L34.44 0.0925C34.9862 0.1325 35.5287 0.1875 36.0662 0.25625Z" fill="#932D1C"/>
<path d="M33.1661 22.4587L32.0036 23.9287L31.9998 23.9337H27.9336V21.2737H31.9998L32.0036 21.2774L33.1661 22.4587Z" fill="#AF3C25"/>
<path d="M32 21.2737H36.0662V23.9337H32V21.2737Z" fill="#932D1C"/>
<path d="M33.1661 17.1401L32.0036 18.6101L31.9998 18.6151H27.9336V15.9551H31.9998L32.0036 15.9588L33.1661 17.1401Z" fill="#AF3C25"/>
<path d="M32 15.9551H36.0662V18.6151H32V15.9551Z" fill="#932D1C"/>
<path d="M33.1661 11.8225L32.0036 13.2912L31.9998 13.2962H27.9336V10.6375H31.9998L32.0036 10.6412L33.1661 11.8225Z" fill="#AF3C25"/>
<path d="M32 10.6375H36.0662V13.2962H32V10.6375Z" fill="#932D1C"/>
<path d="M33.1661 6.50385L32.0036 7.9726L31.9998 7.9776H27.9336V5.31885H31.9998L32.0036 5.3226L33.1661 6.50385Z" fill="#AF3C25"/>
<path d="M32 5.31885H36.0662V7.9776H32V5.31885Z" fill="#932D1C"/>
<path d="M31.1863 0.0112305V44.495H29.5601V0.0924805C30.0976 0.0512305 30.6401 0.0237305 31.1863 0.0112305Z" fill="#F0F8FF"/>
<path d="M34.4397 0.0924805V44.495H32.8135V0.0112305C33.3597 0.0237305 33.9022 0.0512305 34.4397 0.0924805Z" fill="#C8E2FD"/>
</svg>
