<svg width="119" height="118" viewBox="0 0 119 118" fill="none" xmlns="http://www.w3.org/2000/svg">
<path d="M118.028 0H0V118H118.028V0Z" fill="#E7D3FF"/>
<mask id="mask0_7_6075" style="mask-type:luminance" maskUnits="userSpaceOnUse" x="0" y="0" width="119" height="118">
<path d="M118.028 0H0V118H118.028V0Z" fill="white"/>
</mask>
<g mask="url(#mask0_7_6075)">
<path d="M59.0141 112.168C88.3852 112.168 112.195 88.3641 112.195 59C112.195 29.6359 88.3852 5.83154 59.0141 5.83154C29.643 5.83154 5.83301 29.6359 5.83301 59C5.83301 88.3641 29.643 112.168 59.0141 112.168Z" fill="#473363"/>
<path d="M55.0625 32.9787L53.6225 33.033V33.2194C53.5493 33.2407 53.4785 33.2643 53.4077 33.2902C54.463 34.9606 55.0568 36.8807 55.1286 38.8551L55.1073 39.077C55.1191 39.2846 55.1215 39.497 55.1073 39.7071C55.0879 40.3606 55.0025 41.0106 54.8524 41.647L54.8311 41.8523C54.6738 42.6557 54.4036 43.4327 54.0285 44.1604V44.3327L55.4685 44.2784C56.2353 44.2861 56.9958 44.1381 57.7038 43.8434C58.4117 43.5486 59.0525 43.1132 59.5871 42.5635C60.1218 42.0139 60.5393 41.3614 60.8143 40.6457C61.0893 39.9299 61.2161 39.1658 61.187 38.3997C61.1578 37.6335 60.9734 36.8812 60.6449 36.1884C60.3164 35.4956 59.8506 34.8767 59.2758 34.3692C58.7009 33.8616 58.029 33.4761 57.3007 33.2359C56.5724 32.9956 55.8029 32.9057 55.0389 32.9716L55.0625 32.9787Z" fill="#E8A426"/>
<path d="M59.4861 38.4679C59.5321 39.5883 59.2444 40.6971 58.6595 41.6538C58.0747 42.6105 57.2189 43.3722 56.2007 43.8423C55.1825 44.3124 54.0476 44.4698 52.9399 44.2945C51.8321 44.1192 50.8013 43.6192 49.9781 42.8577C49.1548 42.0962 48.5762 41.1076 48.3154 40.017C48.0547 38.9265 48.1235 37.7831 48.5133 36.7317C48.9031 35.6803 49.5962 34.7683 50.5049 34.1111C51.4136 33.4538 52.4969 33.0811 53.6177 33.0399C55.115 32.985 56.5731 33.5253 57.6729 34.5426C58.7727 35.5598 59.4247 36.9713 59.4861 38.4679Z" fill="#EFC22D"/>
<path d="M58.306 38.5152C58.3389 39.3973 58.1095 40.2694 57.6469 41.0213C57.1843 41.7731 56.5091 42.371 55.7067 42.7394C54.9043 43.1078 54.0107 43.2301 53.1388 43.091C52.2669 42.9518 51.4558 42.5574 50.808 41.9575C50.1603 41.3577 49.7048 40.5794 49.4994 39.7209C49.2939 38.8624 49.3475 37.9622 49.6535 37.1342C49.9595 36.3062 50.5041 35.5874 51.2186 35.0687C51.933 34.55 52.7852 34.2547 53.6675 34.22C54.2543 34.1969 54.8399 34.2898 55.3907 34.4933C55.9416 34.6968 56.4469 35.0068 56.8777 35.4058C57.3086 35.8048 57.6565 36.2848 57.9016 36.8183C58.1467 37.3519 58.2841 37.9285 58.306 38.5152Z" fill="#E8A426"/>
<path d="M54.3095 43.1266C54.2103 43.1266 54.1088 43.1455 54.0073 43.1479C52.8231 43.1929 51.6696 42.7658 50.8003 41.9605C49.9311 41.1553 49.4175 40.0377 49.3724 38.8538C49.3273 37.6699 49.7545 36.5166 50.56 35.6476C51.3654 34.7786 52.4832 34.265 53.6674 34.22C53.7689 34.22 53.8704 34.22 53.9719 34.22C52.8447 34.3377 51.8044 34.8795 51.0619 35.7355C50.3193 36.5915 49.9301 37.6978 49.973 38.83C50.0159 39.9623 50.4878 41.0359 51.293 41.8333C52.0983 42.6307 53.1766 43.0922 54.3095 43.1242V43.1266Z" fill="#D29423"/>
<path d="M55.4732 38.5576C55.337 38.4179 55.1683 38.3141 54.9822 38.2555C54.7573 38.1886 54.5277 38.1389 54.2953 38.1068C54.1416 38.0883 53.9899 38.0559 53.842 38.0101C53.75 37.9794 53.7028 37.9275 53.7004 37.8567C53.7004 37.7104 53.8444 37.6207 54.1489 37.6207C54.3004 37.6165 54.4518 37.6308 54.5998 37.6631L54.6257 37.8661L55.1427 37.8449L55.4661 36.9717C55.1445 36.8142 54.7926 36.728 54.4345 36.7191L54.4133 36.1787L53.7051 36.207L53.7264 36.7546C53.3856 36.7997 53.0685 36.9537 52.8223 37.1935C52.7233 37.2952 52.6464 37.4162 52.5964 37.549C52.5464 37.6818 52.5245 37.8235 52.5319 37.9652C52.5318 38.1877 52.6162 38.402 52.768 38.5647C52.9021 38.7051 53.0693 38.8098 53.2543 38.8691C53.4796 38.9367 53.709 38.9895 53.9412 39.0272C54.097 39.0493 54.2509 39.0833 54.4015 39.1287C54.4936 39.1641 54.5431 39.216 54.5455 39.2916C54.5459 39.3235 54.5363 39.3547 54.5181 39.3809C54.4999 39.4072 54.474 39.4271 54.444 39.4379C54.3327 39.4809 54.214 39.5018 54.0946 39.4992C53.8919 39.5055 53.6892 39.4832 53.4927 39.4331C53.293 39.3879 53.1001 39.3165 52.9191 39.2208L52.4021 39.2396L52.5744 39.5913L52.7585 39.6243L52.5697 40.0963C52.7515 40.1963 52.9472 40.2687 53.1504 40.3111C53.3887 40.3678 53.6325 40.3979 53.8775 40.4008L53.8963 40.9341L54.6045 40.9058L54.5833 40.3488C54.9076 40.2932 55.206 40.1362 55.4354 39.9004C55.5284 39.8001 55.6005 39.6823 55.6475 39.5539C55.6945 39.4254 55.7155 39.2889 55.7092 39.1523C55.7096 38.9312 55.6251 38.7183 55.4732 38.5576Z" fill="#D29423"/>
<path d="M54.9114 39.9218C54.6816 40.1573 54.3834 40.3142 54.0592 40.3702L54.0805 40.9296L53.3723 40.9555L53.3511 40.4222C53.1063 40.4187 52.8626 40.3894 52.624 40.3348C52.4217 40.2895 52.2264 40.2172 52.0433 40.1201L52.3927 39.2374C52.5742 39.3325 52.7669 39.4047 52.9663 39.4522C53.1632 39.5004 53.3656 39.5218 53.5682 39.5159C53.6884 39.5196 53.8081 39.4987 53.92 39.4546C53.95 39.4438 53.9759 39.4239 53.9941 39.3976C54.0123 39.3714 54.0219 39.3401 54.0215 39.3082C54.0215 39.2351 53.9695 39.1808 53.8751 39.1478C53.7246 39.1012 53.5707 39.0665 53.4148 39.0439C53.1825 39.0068 52.953 38.954 52.7279 38.8858C52.5436 38.8265 52.3772 38.7218 52.244 38.5814C52.0921 38.4187 52.0078 38.2044 52.0079 37.9819C52.0015 37.8401 52.0241 37.6985 52.0745 37.5658C52.1248 37.4331 52.2018 37.3121 52.3006 37.2102C52.5455 36.9702 52.8622 36.8169 53.2023 36.7736L53.1835 36.2237L53.8916 36.1978L53.9129 36.7358C54.2715 36.7462 54.6238 36.8323 54.9468 36.9884L54.621 37.8639C54.3136 37.7087 53.974 37.6278 53.6296 37.6279C53.3251 37.6397 53.174 37.72 53.1787 37.8639C53.1787 37.9347 53.2307 37.9843 53.3227 38.0173C53.4704 38.0609 53.6211 38.0933 53.7736 38.1141C54.0062 38.1438 54.236 38.1927 54.4605 38.2604C54.6475 38.3186 54.817 38.4224 54.9539 38.5625C55.1074 38.7231 55.1921 38.9374 55.1899 39.1596C55.1983 39.2989 55.1779 39.4385 55.13 39.5697C55.0821 39.7008 55.0077 39.8207 54.9114 39.9218Z" fill="#EFC22D"/>
<path d="M54.8453 40.1201C54.5805 40.393 54.2358 40.5747 53.861 40.6393L53.8846 41.2835L53.0655 41.3142L53.0419 40.6983C52.7597 40.695 52.4787 40.661 52.2039 40.5968C51.9698 40.5464 51.7441 40.4629 51.5335 40.349L51.9371 39.3318C52.1466 39.4381 52.3687 39.5174 52.5981 39.5678C52.8247 39.6255 53.0584 39.6509 53.2921 39.6434C53.4307 39.6463 53.5686 39.6222 53.6981 39.5725C53.7325 39.5615 53.7627 39.5402 53.7846 39.5115C53.8066 39.4829 53.8192 39.4481 53.8209 39.4121C53.8209 39.3271 53.7618 39.2658 53.6533 39.228C53.48 39.1727 53.3023 39.1324 53.1221 39.1076C52.8541 39.0642 52.5892 39.0035 52.329 38.9259C52.1162 38.8569 51.9239 38.7361 51.7695 38.5743C51.5986 38.3849 51.5058 38.1378 51.5099 37.8828C51.5022 37.7191 51.528 37.5556 51.5856 37.4022C51.6432 37.2489 51.7315 37.1088 51.8451 36.9907C52.1267 36.7174 52.4879 36.5405 52.8766 36.4857L52.853 35.8532L53.6721 35.8225L53.6957 36.4432C54.1053 36.457 54.5075 36.5567 54.876 36.7358L54.529 37.7459C54.1741 37.5703 53.7825 37.4813 53.3865 37.4863C53.0324 37.5005 52.8601 37.5902 52.8672 37.7624C52.8672 37.8427 52.9215 37.9017 53.0301 37.9394C53.2009 37.9894 53.3753 38.0264 53.5518 38.0504C53.8202 38.0858 54.0855 38.1426 54.3449 38.2203C54.5603 38.2883 54.7557 38.4082 54.9138 38.5695C55.0864 38.7562 55.1802 39.0022 55.1758 39.2563C55.1817 39.4151 55.1555 39.5735 55.0987 39.7219C55.042 39.8703 54.9558 40.0058 54.8453 40.1201Z" fill="#EFC22D"/>
<path d="M-1.75387 26.019L29.7997 22.715C29.7997 22.715 32.8449 28.0344 38.0145 29.8634L43.9537 37.6514L44.3219 38.1234L44.4517 38.3075L46.7108 41.536L46.7273 41.5596C46.8269 41.6968 46.976 41.7899 47.143 41.819C47.3101 41.8481 47.4819 41.8109 47.622 41.7154C49.3216 40.5731 49.5694 38.7064 48.7385 36.7853L44.2535 29.9012C44.0576 29.6002 43.9452 29.2526 43.9277 28.8939C43.9103 28.5352 43.9885 28.1784 44.1543 27.8598L45.0088 26.2078C45.108 26.0168 45.2661 25.8629 45.4597 25.7688L50.9197 23.128C51.3003 22.9421 51.7247 22.8645 52.1464 22.9036C52.5682 22.9427 52.9711 23.0971 53.3109 23.3498L59.8709 28.2138C59.8709 28.2138 60.4186 32.4099 60.4233 32.4854C60.428 32.5609 60.2274 34.7911 60.0621 36.6272C60.0004 37.3273 60.1317 38.0309 60.4417 38.6616C60.7518 39.2923 61.2287 39.8261 61.8208 40.205C61.9707 40.3012 62.1501 40.3408 62.3267 40.3165C62.5033 40.2923 62.6654 40.2059 62.7839 40.0728C62.8581 39.987 62.9114 39.8853 62.9397 39.7754L63.7352 36.816L64.3324 34.5693C64.3915 34.3523 64.4225 34.1286 64.4245 33.9038L64.4575 27.9188C64.4604 27.4383 64.3025 26.9706 64.009 26.5901L60.4139 21.948L60.886 22.033C61.3179 22.1061 61.7523 22.1864 62.189 22.269L64.094 22.6041C64.8588 22.741 65.6213 22.8778 66.3861 23.01L68.8552 23.4442L71.289 23.8502C72.0089 23.98 72.7313 24.105 73.4536 24.2325L75.1461 24.5298C75.8 24.6859 76.4711 24.758 77.1432 24.7446C77.7403 24.7112 78.3199 24.5313 78.831 24.2207C79.146 24.0407 79.3901 23.7584 79.5226 23.4206C79.5743 23.2693 79.5712 23.1047 79.5138 22.9554C79.4564 22.8062 79.3484 22.6818 79.2086 22.6041C79.1673 22.5767 79.1219 22.556 79.0741 22.5427L76.1187 21.6766L61.5446 17.405L75.8944 17.497C76.8386 17.497 78.1535 16.9967 78.491 16.0386C78.5332 15.9344 78.5538 15.8227 78.5517 15.7103C78.5496 15.5979 78.5247 15.4871 78.4786 15.3846C78.4325 15.2821 78.3661 15.1899 78.2835 15.1137C78.2008 15.0375 78.1036 14.9788 77.9977 14.9412C77.9594 14.9279 77.9198 14.9184 77.8796 14.9128L74.8109 14.5565L61.6413 13.0366C62.68 12.7393 63.7163 12.4325 64.7526 12.1257L67.0754 11.4436C67.6041 11.2855 68.1447 11.1534 68.6617 10.9716C69.2601 10.7729 69.7931 10.4147 70.2031 9.9356C70.5572 9.5108 70.8759 8.8618 70.5832 8.32372C70.5231 8.19897 70.424 8.09716 70.3009 8.03372C70.1778 7.97027 70.0374 7.94863 69.9009 7.97208L69.8278 7.98624L67.4271 8.4134L48.1838 11.8354C47.7499 11.9125 47.3077 11.9307 46.869 11.8897L-2.97192 7.14136L-1.75387 26.019Z" fill="#FABC7A"/>
<g style="mix-blend-mode:multiply" opacity="0.3">
<path d="M-2.06299 21.2399C8.9868 21.4405 20.3033 19.9254 31.1194 18.1719C33.2675 21.1431 36.171 24.3079 39.5348 25.0607C41.7467 25.5516 43.6729 24.3008 45.5637 23.3143C48.2854 21.8983 51.1299 21.2564 54.1136 21.1266C55.4592 23.8831 58.3485 25.5941 61.2402 26.8708C62.0121 28.4969 62.1513 30.2504 62.1844 32.1242C62.2174 34.8028 62.3024 37.2383 62.9823 39.629L62.9469 39.7612C62.9186 39.871 62.8653 39.9728 62.7911 40.0585C62.6726 40.1916 62.5104 40.278 62.3339 40.3023C62.1573 40.3265 61.9779 40.2869 61.8279 40.1907C61.2359 39.8118 60.7589 39.2781 60.4489 38.6473C60.1389 38.0166 60.0076 37.313 60.0693 36.6129C60.2346 34.7768 60.4352 32.516 60.4305 32.4711C60.4258 32.4263 59.8781 28.1995 59.8781 28.1995L53.311 23.3403C52.9703 23.089 52.567 22.9364 52.1452 22.8989C51.7235 22.8614 51.2995 22.9406 50.9198 23.1279L45.4551 25.7994C45.2615 25.8934 45.1034 26.0474 45.0042 26.2384L44.1497 27.8904C43.9839 28.2089 43.9057 28.5658 43.9231 28.9245C43.9406 29.2831 44.053 29.6308 44.2489 29.9318L48.7339 36.8159C49.5648 38.7369 49.317 40.5919 47.6174 41.7459C47.4773 41.8415 47.3055 41.8786 47.1384 41.8496C46.9714 41.8205 46.8222 41.7274 46.7227 41.5902L46.7062 41.5666L44.4471 38.3546L44.3173 38.1705L43.9491 37.6985L38.0099 29.9105C32.8403 28.0815 29.7951 22.7621 29.7951 22.7621L-1.75848 26.0661L-2.06299 21.2399Z" fill="#FABC7A"/>
</g>
<g style="mix-blend-mode:multiply" opacity="0.2">
<path d="M45.6484 25.1812C48.0528 23.6368 50.7255 22.5569 53.528 21.9976C54.6209 23.364 56.3748 24.1216 57.7133 25.285C58.9148 26.3352 60.1423 27.2556 60.4185 28.8604C60.6947 30.4652 60.4846 32.214 60.6545 33.8448C60.6854 34.1539 60.7751 34.4543 60.9189 34.7298C60.8835 34.9658 60.8363 35.3316 60.8127 35.4637C60.7395 35.8956 60.6474 36.3228 60.5766 36.7546C60.4718 37.3249 60.4025 37.901 60.3689 38.4798C60.1113 37.8949 60.0049 37.2545 60.0597 36.6178C60.2249 34.7817 60.4256 32.5208 60.4208 32.476C60.4161 32.4311 59.8685 28.2044 59.8685 28.2044L53.3108 23.3404C52.97 23.0892 52.5667 22.9365 52.145 22.899C51.7232 22.8616 51.2993 22.9408 50.9196 23.128L46.2433 25.4125C46.0568 25.3079 45.8566 25.2301 45.6484 25.1812Z" fill="#875829"/>
</g>
<g style="mix-blend-mode:multiply" opacity="0.3">
<path d="M-1.97583 22.604C0.594821 22.4766 3.3496 22.7055 5.46702 22.6914C8.81902 22.6678 12.1734 22.6914 15.5254 22.6182C20.1757 22.5214 26.4524 22.6796 30.2671 19.4629C32.0139 23.4348 34.6129 27.2249 39.1333 28.2185C39.5245 28.3076 39.9243 28.3535 40.3254 28.3554C40.4093 28.6007 40.5235 28.8345 40.6653 29.0516C41.5671 30.4015 42.5538 31.6806 43.5311 32.9833C44.4408 36.0132 46.0526 38.7858 48.2357 41.0758C48.2593 41.0994 48.2852 41.1135 48.3088 41.1371C48.1051 41.3603 47.8762 41.5591 47.6266 41.7295C47.4866 41.825 47.3147 41.8622 47.1477 41.8331C46.9806 41.804 46.8315 41.711 46.732 41.5737L46.7155 41.5501L44.4564 38.3382L44.3266 38.1541L43.9583 37.6821L38.0192 29.8941C32.8495 28.0651 29.8044 22.7456 29.8044 22.7456L-1.74922 26.0496L-1.97583 22.604Z" fill="#FABC7A"/>
</g>
<path d="M44.4517 38.3288L46.7107 41.536C46.757 41.5133 46.798 41.4811 46.8311 41.4416C47.0872 41.121 47.2285 40.7238 47.2324 40.3135C47.2338 39.9069 47.1757 39.5022 47.0601 39.1123C46.9397 38.6403 46.7627 38.1471 46.3519 37.9016C46.1765 37.8124 45.9835 37.7631 45.7867 37.7574C45.59 37.7517 45.3944 37.7897 45.2141 37.8686C44.9394 37.985 44.6826 38.1399 44.4517 38.3288Z" fill="#E6E6E6"/>
<path d="M62.3189 39.143C62.37 39.4936 62.536 39.8173 62.791 40.0634C62.8652 39.9776 62.9185 39.8758 62.9468 39.766L63.7352 36.816C63.6289 36.7803 63.5188 36.7573 63.4071 36.7476C63.2815 36.7311 63.1538 36.7407 63.0319 36.7756C62.9101 36.8105 62.7968 36.87 62.6989 36.9505C62.5035 37.1821 62.3899 37.4716 62.3755 37.7742C62.2859 38.2248 62.2668 38.6865 62.3189 39.143Z" fill="#E6E6E6"/>
<path d="M76.1658 22.6937C76.3685 22.8882 76.63 23.0102 76.9094 23.0406C77.3218 23.1497 77.7485 23.1951 78.1746 23.1751C78.3788 23.1636 78.5778 23.1063 78.7567 23.0074C78.9357 22.9086 79.0902 22.7707 79.2086 22.604C79.1672 22.5766 79.1218 22.5559 79.074 22.5426L76.1186 21.6765C76.0727 21.7913 76.0394 21.9108 76.0194 22.0329C75.9964 22.1471 75.9975 22.2649 76.0227 22.3788C76.0479 22.4926 76.0966 22.5998 76.1658 22.6937Z" fill="#E6E6E6"/>
<path d="M75.0657 15.576C75.3033 15.7281 75.5853 15.7955 75.866 15.7672C76.2904 15.7963 76.7168 15.7573 77.1289 15.6515C77.3171 15.6018 77.4927 15.5131 77.6444 15.3911C77.7961 15.2692 77.9205 15.1167 78.0094 14.9435C77.971 14.9302 77.9315 14.9207 77.8913 14.9152L74.8226 14.5588C74.798 14.6935 74.7878 14.8303 74.7919 14.9671C74.7939 15.0819 74.8192 15.195 74.8663 15.2997C74.9134 15.4043 74.9812 15.4983 75.0657 15.576Z" fill="#E6E6E6"/>
<path d="M67.4294 8.40633C67.4392 8.48626 67.4558 8.56521 67.479 8.64233C67.503 8.72732 67.5443 8.80642 67.6004 8.87466C67.6564 8.94289 67.726 8.99878 67.8048 9.03881C68.0079 9.10269 68.2267 9.09604 68.4256 9.01993C68.742 8.95669 69.0464 8.84358 69.3273 8.68481C69.4563 8.60887 69.5678 8.50654 69.6544 8.38453C69.7411 8.26252 69.801 8.12357 69.8301 7.97681L67.4294 8.40633Z" fill="#E6E6E6"/>
<path d="M79.5768 45.05C79.8237 44.9094 80.0256 44.7018 80.1593 44.4512C80.293 44.2006 80.353 43.9173 80.3322 43.634V43.6175H80.3487C80.3562 43.6165 80.3638 43.6178 80.3705 43.6212C80.3772 43.6245 80.3828 43.6298 80.3865 43.6364C80.4492 43.9131 80.5888 44.1665 80.7893 44.3673C80.9898 44.5682 81.2429 44.7083 81.5196 44.7715C81.5269 44.773 81.5337 44.7767 81.5388 44.7823C81.5438 44.7878 81.5471 44.7948 81.5479 44.8022C81.5491 44.8094 81.5482 44.8169 81.5453 44.8236C81.5423 44.8303 81.5375 44.836 81.5314 44.84C81.2849 44.981 81.0833 45.1887 80.9497 45.4392C80.816 45.6897 80.7558 45.9728 80.776 46.256V46.2725V46.2843H80.7595C80.7582 46.2805 80.7582 46.2763 80.7595 46.2725V46.256C80.6963 45.9791 80.5563 45.7256 80.3554 45.5248C80.1545 45.324 79.901 45.1839 79.6241 45.1208C79.6171 45.1186 79.6108 45.1146 79.6059 45.1092C79.6009 45.1038 79.5974 45.0973 79.5957 45.0901C79.589 45.0861 79.5836 45.0801 79.5802 45.0729C79.5769 45.0658 79.5757 45.0578 79.5768 45.05Z" fill="#EFC22D"/>
<path d="M25.4799 47.8774C25.7268 47.7367 25.9289 47.5291 26.063 47.2786C26.197 47.0281 26.2576 46.7448 26.2376 46.4614V46.4496V46.4378H26.2518C26.2596 46.4359 26.2679 46.4367 26.2752 46.4401C26.2825 46.4436 26.2884 46.4494 26.2919 46.4566C26.3544 46.7335 26.4939 46.987 26.6944 47.1879C26.8949 47.3888 27.1482 47.5288 27.425 47.5918C27.4314 47.5952 27.4368 47.6003 27.4405 47.6066C27.4443 47.6128 27.4462 47.6199 27.4462 47.6272C27.4462 47.6345 27.4443 47.6416 27.4405 47.6478C27.4368 47.6541 27.4314 47.6592 27.425 47.6626C27.178 47.803 26.9758 48.0105 26.8421 48.2612C26.7084 48.5118 26.6486 48.7953 26.6696 49.0786V49.088H26.646H26.6342C26.6336 49.0841 26.6336 49.0801 26.6342 49.0762C26.5706 48.7996 26.4303 48.5464 26.2295 48.3457C26.0287 48.1449 25.7755 48.0047 25.4988 47.9411C25.4924 47.9377 25.487 47.9326 25.4833 47.9263C25.4795 47.9201 25.4775 47.9129 25.4775 47.9057C25.4775 47.8984 25.4795 47.8913 25.4833 47.885C25.487 47.8788 25.4924 47.8737 25.4988 47.8703L25.4799 47.8774Z" fill="#FFDC66"/>
<path d="M43.7388 50.7895C44.8459 50.0603 44.742 49.0502 44.7278 48.9369V48.9251C44.7267 48.9204 44.7267 48.9156 44.7278 48.9109C44.7375 48.9088 44.7477 48.91 44.7567 48.9143C44.7656 48.9185 44.7729 48.9257 44.7774 48.9345V48.9487C44.7963 49.0667 44.9946 50.0579 46.2598 50.4331C46.2691 50.4358 46.2775 50.441 46.2842 50.448C46.2908 50.4551 46.2955 50.4638 46.2976 50.4733C46.2989 50.4832 46.2973 50.4934 46.2932 50.5026C46.289 50.5117 46.2824 50.5196 46.274 50.5252C45.1693 51.2544 45.2708 52.2621 45.2873 52.3754V52.3896V52.3919C45.2873 52.3919 45.2873 52.3919 45.2873 52.4061C45.2834 52.4071 45.2794 52.4071 45.2755 52.4061H45.2424H45.2306V52.3943C45.2295 52.3917 45.229 52.3889 45.229 52.386C45.229 52.3832 45.2295 52.3804 45.2306 52.3778V52.3636C45.2094 52.2456 45.0111 51.2568 43.7458 50.8815C43.7367 50.8783 43.7285 50.8726 43.7223 50.8651C43.7161 50.8577 43.712 50.8487 43.7104 50.8391C43.7095 50.8289 43.7117 50.8187 43.7167 50.8098C43.7218 50.8009 43.7295 50.7938 43.7388 50.7895Z" fill="#EFC22D"/>
<path d="M67.7716 43.0723C68.8764 42.343 68.7748 41.3329 68.7583 41.222V41.2079C68.757 41.2024 68.757 41.1968 68.7583 41.1913C68.7573 41.1867 68.7573 41.1819 68.7583 41.1772H68.7701H68.789C68.7987 41.1746 68.809 41.1756 68.8181 41.1799C68.8272 41.1842 68.8344 41.1916 68.8386 41.2008V41.2149C68.8575 41.3306 69.0558 42.3218 70.321 42.697C70.3309 42.6994 70.3398 42.7047 70.3466 42.7123C70.3534 42.7199 70.3576 42.7294 70.3588 42.7395C70.3596 42.7491 70.3579 42.7588 70.3537 42.7675C70.3496 42.7762 70.3432 42.7836 70.3352 42.7891C69.2304 43.5183 69.3319 44.5284 69.3485 44.6417V44.6535C69.3496 44.6581 69.3496 44.663 69.3485 44.6676C69.3485 44.6676 69.3485 44.6794 69.3485 44.6818C69.3458 44.6868 69.3417 44.6909 69.3367 44.6936H69.3249H69.3107V44.6794V44.6629V44.6511C69.2918 44.5355 69.0935 43.5443 67.8283 43.169C67.8182 43.167 67.8091 43.1618 67.8023 43.1541C67.7954 43.1464 67.7913 43.1368 67.7905 43.1265C67.7826 43.1202 67.7766 43.1117 67.7733 43.1021C67.7699 43.0925 67.7694 43.0822 67.7716 43.0723Z" fill="#EFC22D"/>
<path d="M28.7634 33.1463C30.2104 32.2023 30.0758 30.8712 30.057 30.7225V30.706C30.0556 30.6998 30.0556 30.6934 30.057 30.6871V30.6706H30.0711C30.0837 30.6678 30.0968 30.6692 30.1084 30.6748C30.12 30.6804 30.1293 30.6897 30.1349 30.7013V30.7131C30.1349 30.7131 30.1349 30.7131 30.1349 30.7249V30.7414C30.1608 30.8925 30.4205 32.1905 32.0776 32.6813C32.0896 32.6853 32.1003 32.6925 32.1086 32.702C32.1169 32.7116 32.1225 32.7232 32.1248 32.7356C32.1271 32.7485 32.1253 32.7617 32.1199 32.7735C32.1144 32.7853 32.1054 32.7951 32.0941 32.8017C30.6471 33.7457 30.7817 35.0791 30.8029 35.2254V35.2419C30.8042 35.2482 30.8042 35.2546 30.8029 35.2608V35.2797L30.7864 35.2939H30.7722H30.7439H30.7274L30.7108 35.2773C30.71 35.2703 30.71 35.2632 30.7108 35.2561V35.2372C30.6872 35.0838 30.4252 33.7858 28.7705 33.2949C28.758 33.2917 28.7469 33.2848 28.7385 33.2751C28.73 33.2654 28.7247 33.2534 28.7232 33.2407C28.7187 33.232 28.7161 33.2224 28.7156 33.2126C28.7152 33.2027 28.717 33.193 28.7208 33.1839C28.7247 33.1749 28.7305 33.1668 28.7379 33.1603C28.7452 33.1538 28.7539 33.149 28.7634 33.1463Z" fill="#EFC22D"/>
<path d="M73.0877 33.1461C74.5348 32.2021 74.4002 30.8711 74.3813 30.7224V30.7059V30.68C74.3805 30.6745 74.3805 30.6689 74.3813 30.6634H74.3955H74.4096C74.4225 30.6604 74.436 30.6618 74.448 30.6674C74.46 30.6729 74.4697 30.6823 74.4757 30.6941C74.4757 30.6941 74.4757 30.6941 74.4757 30.7059C74.4757 30.7177 74.4757 30.7059 74.4757 30.7177V30.7342C74.4993 30.8853 74.759 32.1833 76.4161 32.6741C76.4287 32.6775 76.44 32.6845 76.4488 32.6941C76.4576 32.7037 76.4634 32.7156 76.4657 32.7284C76.4668 32.7412 76.4646 32.754 76.4592 32.7656C76.4538 32.7772 76.4454 32.7871 76.435 32.7945C74.988 33.7385 75.1225 35.0719 75.1414 35.2182V35.2348V35.2654C75.1423 35.2717 75.1423 35.278 75.1414 35.2843L75.1273 35.2985H75.1155H75.1037H75.0753H75.0588L75.0446 35.282C75.0436 35.2749 75.0436 35.2678 75.0446 35.2607V35.2418C75.0187 35.0884 74.759 33.7904 73.1019 33.2996C73.0899 33.2955 73.0792 33.2884 73.0709 33.2789C73.0626 33.2693 73.057 33.2577 73.0547 33.2453C73.0502 33.2366 73.0476 33.2272 73.0468 33.2175C73.0461 33.2078 73.0473 33.198 73.0504 33.1888C73.0535 33.1795 73.0584 33.171 73.0648 33.1637C73.0712 33.1564 73.079 33.1504 73.0877 33.1461Z" fill="#FFDC66"/>
<path d="M45.4078 57.3292L44.0953 57.9404L44.1732 58.1104C44.1166 58.1576 44.0599 58.2095 44.0056 58.259C45.6317 59.3971 46.9287 60.9438 47.766 62.743L47.8321 62.9578C47.9241 63.1466 48.0091 63.3401 48.0847 63.5384C48.3205 64.1487 48.4945 64.7812 48.604 65.4264C48.6252 65.4924 48.6465 65.5585 48.6654 65.6246C48.8326 66.4305 48.8851 67.256 48.8212 68.0766L48.8943 68.2324L50.2068 67.6212C51.5741 66.9846 52.6325 65.8311 53.1491 64.4144C53.6657 62.9977 53.5983 61.4338 52.9616 60.0668C52.3249 58.6998 51.1711 57.6417 49.754 57.1252C48.337 56.6087 46.7727 56.6761 45.4054 57.3127L45.4078 57.3292Z" fill="#E8A426"/>
<path d="M51.6515 60.6944C52.1264 61.7138 52.2883 62.8511 52.1166 63.9624C51.945 65.0738 51.4475 66.1093 50.6872 66.938C49.9269 67.7667 48.9378 68.3513 47.8451 68.618C46.7523 68.8846 45.6051 68.8213 44.5483 68.436C43.4916 68.0507 42.5729 67.3608 41.9084 66.4535C41.244 65.5461 40.8635 64.4622 40.8153 63.3387C40.7671 62.2152 41.0532 61.1026 41.6374 60.1417C42.2217 59.1808 43.0779 58.4147 44.0977 57.9403C45.4648 57.305 47.0283 57.2382 48.4446 57.7546C49.861 58.271 51.0144 59.3284 51.6515 60.6944Z" fill="#EFC22D"/>
<path d="M50.5631 61.2019C50.937 62.0059 51.064 62.9027 50.9282 63.7788C50.7924 64.655 50.3998 65.4712 49.8001 66.1244C49.2004 66.7775 48.4205 67.2383 47.559 67.4484C46.6974 67.6585 45.7929 67.6086 44.9597 67.3049C44.1265 67.0012 43.4021 66.4573 42.878 65.7421C42.3539 65.0269 42.0537 64.1724 42.0152 63.2866C41.9767 62.4008 42.2018 61.5235 42.662 60.7656C43.1221 60.0077 43.7966 59.4031 44.6004 59.0284C45.1346 58.7793 45.7127 58.6379 46.3016 58.6124C46.8905 58.5868 47.4786 58.6776 48.0324 58.8794C48.5862 59.0813 49.0948 59.3903 49.529 59.7888C49.9632 60.1874 50.3147 60.6675 50.5631 61.2019Z" fill="#E8A426"/>
<path d="M48.663 67.024C48.5756 67.0736 48.4836 67.1208 48.3915 67.1632C47.3122 67.6658 46.0774 67.7192 44.9587 67.3116C43.84 66.904 42.9291 66.0687 42.4264 64.9897C41.9237 63.9106 41.8703 62.6761 42.278 61.5577C42.6857 60.4392 43.5211 59.5286 44.6005 59.026C44.6949 58.9835 44.787 58.9434 44.8837 58.908C43.8792 59.4517 43.12 60.3582 42.7612 61.4425C42.4023 62.5268 42.4708 63.7071 42.9527 64.7426C43.4346 65.7781 44.2935 66.5907 45.3542 67.0147C46.415 67.4386 47.5975 67.442 48.6606 67.024H48.663Z" fill="#D29423"/>
<path d="M47.9643 62.3371C47.7834 62.2608 47.5862 62.2308 47.3907 62.2498C47.1564 62.2754 46.9244 62.3188 46.6967 62.3796C46.5474 62.4205 46.395 62.4497 46.2411 62.4669C46.142 62.4669 46.0783 62.4433 46.0499 62.3796C45.9862 62.2451 46.0948 62.1129 46.3733 61.9831C46.511 61.9201 46.6562 61.8749 46.8053 61.8486L46.9092 62.0233L47.3813 61.8061L47.3412 60.8621C46.9815 60.8424 46.6218 60.8995 46.286 61.0297L46.0499 60.5388L45.4031 60.8385L45.6392 61.3389C45.3409 61.5124 45.1072 61.7783 44.9735 62.0964C44.9216 62.2292 44.8975 62.3713 44.9028 62.5138C44.9081 62.6563 44.9426 62.7962 45.0042 62.9248C45.086 63.1325 45.2438 63.3013 45.4456 63.3968C45.6244 63.4754 45.82 63.5078 46.0145 63.4912C46.2528 63.4655 46.4893 63.4253 46.7227 63.3708C46.8775 63.3299 47.0354 63.3014 47.1948 63.2859C47.2336 63.2782 47.2739 63.2833 47.3096 63.3003C47.3453 63.3173 47.3746 63.3453 47.3931 63.3803C47.4054 63.4096 47.4087 63.4419 47.4023 63.473C47.396 63.5042 47.3805 63.5327 47.3577 63.5549C47.27 63.6378 47.1675 63.7035 47.0555 63.7484C46.8699 63.8325 46.6738 63.8912 46.4725 63.9231C46.2696 63.956 46.0636 63.9647 45.8587 63.949L45.3866 64.1661L45.6793 64.4234L45.8658 64.3856V64.9001C46.073 64.9199 46.2819 64.9111 46.4866 64.8741C46.7292 64.8318 46.9666 64.7637 47.1948 64.6712L47.4309 65.1573L48.0777 64.8576L47.8416 64.3479C48.1209 64.1698 48.3366 63.9079 48.4577 63.5997C48.5048 63.4706 48.5259 63.3335 48.5199 63.1962C48.5138 63.0589 48.4806 62.9241 48.4223 62.7997C48.3362 62.5914 48.1718 62.4253 47.9643 62.3371Z" fill="#D29423"/>
<path d="M47.9715 63.8214C47.8521 64.1299 47.637 64.3921 47.3577 64.5695L47.5938 65.0769L46.947 65.3719L46.7109 64.8858C46.4827 64.9776 46.2453 65.0448 46.0028 65.0864C45.7982 65.1252 45.5892 65.1347 45.3819 65.1147L45.363 64.1707C45.5679 64.1888 45.7742 64.1801 45.9768 64.1447C46.1782 64.1148 46.3745 64.0568 46.5598 63.9725C46.6718 63.9275 46.7743 63.8618 46.862 63.7789C46.885 63.7564 46.9006 63.7275 46.907 63.6959C46.9133 63.6643 46.9099 63.6316 46.8974 63.6019C46.878 63.5679 46.8485 63.5408 46.8129 63.5243C46.7774 63.5078 46.7376 63.5028 46.6991 63.5099C46.5398 63.5247 46.3819 63.5523 46.227 63.5925C45.9978 63.6486 45.7652 63.6896 45.5306 63.7152C45.3361 63.7319 45.1405 63.6994 44.9617 63.6208C44.7594 63.5261 44.6013 63.3571 44.5203 63.1488C44.4587 63.0202 44.4242 62.8803 44.4189 62.7378C44.4136 62.5953 44.4377 62.4533 44.4896 62.3205C44.6233 62.0024 44.857 61.7364 45.1553 61.5629L44.9193 61.0626L45.566 60.7605L45.8021 61.2514C46.1382 61.1223 46.4977 61.0652 46.8573 61.0838L46.8974 62.0278C46.5527 62.0074 46.2081 62.0688 45.8918 62.2072C45.6133 62.3362 45.5047 62.4684 45.566 62.6037C45.5847 62.6365 45.6132 62.6626 45.6475 62.6782C45.6818 62.6939 45.7202 62.6984 45.7573 62.691C45.912 62.674 46.0651 62.6448 46.2152 62.6037C46.4426 62.5416 46.6747 62.4982 46.9092 62.4739C47.1047 62.4548 47.3019 62.4848 47.4828 62.5612C47.6858 62.6551 47.8442 62.8244 47.9242 63.0332C47.9836 63.155 48.0184 63.2873 48.0265 63.4226C48.0346 63.5579 48.0159 63.6934 47.9715 63.8214Z" fill="#EFC22D"/>
<path d="M47.988 64.0315C47.8499 64.3874 47.6018 64.69 47.2798 64.8952L47.5536 65.4829L46.8077 65.8298L46.5457 65.2681C46.2824 65.3749 46.0086 65.454 45.7289 65.5041C45.4953 65.5463 45.2571 65.5566 45.0208 65.5348L44.9995 64.435C45.2358 64.4558 45.4738 64.4463 45.7077 64.4067C45.9403 64.3708 46.1668 64.3025 46.3804 64.2037C46.5093 64.1528 46.6271 64.0774 46.7274 63.9819C46.7547 63.9566 46.7734 63.9235 46.781 63.8872C46.7886 63.8508 46.7847 63.813 46.7699 63.7789C46.7478 63.7377 46.7126 63.7049 46.67 63.6857C46.6273 63.6665 46.5794 63.662 46.5339 63.6727C46.3522 63.6895 46.1722 63.7211 45.9957 63.7671C45.7307 63.8318 45.4618 63.8791 45.1907 63.9087C44.9664 63.9276 44.7408 63.8903 44.5345 63.8002C44.3025 63.6919 44.1202 63.4996 44.0246 63.2621C43.9535 63.1133 43.9137 62.9515 43.9076 62.7867C43.9015 62.6219 43.9293 62.4576 43.9892 62.3039C44.1444 61.9372 44.4144 61.6308 44.7587 61.4307L44.4896 60.8525L45.2379 60.5056L45.5023 61.072C45.8902 60.9224 46.3052 60.8565 46.7204 60.8785L46.7652 61.9594C46.3673 61.9359 45.9695 62.0063 45.6038 62.1647C45.2828 62.3157 45.1577 62.4668 45.2309 62.6225C45.2511 62.6613 45.2836 62.6923 45.3233 62.7106C45.3631 62.729 45.4077 62.7337 45.4504 62.724C45.629 62.7042 45.8058 62.6702 45.9791 62.6225C46.242 62.5532 46.5094 62.5028 46.7794 62.4715C47.0047 62.4511 47.2316 62.4859 47.4403 62.573C47.6738 62.6788 47.8573 62.8708 47.9526 63.1087C48.0193 63.2525 48.0568 63.4081 48.0629 63.5665C48.069 63.7249 48.0435 63.883 47.988 64.0315Z" fill="#EFC22D"/>
<path d="M69.6365 78.9278L69.9505 77.5118L69.7687 77.4716C69.7687 77.3961 69.7687 77.3206 69.7522 77.2475C67.8588 77.8459 65.8407 77.9331 63.9027 77.5L63.6926 77.4221C63.4872 77.3796 63.2819 77.3301 63.0765 77.2711C62.4459 77.0865 61.836 76.8374 61.2565 76.5276L61.0606 76.4569C60.3194 76.0994 59.6327 75.6386 59.0211 75.0881L58.8511 75.0503L58.5419 76.4639C58.2752 77.9114 58.5803 79.4058 59.3931 80.6329C60.206 81.86 61.4631 82.7242 62.9001 83.0436C64.3372 83.3631 65.8421 83.1129 67.0985 82.3457C68.3548 81.5786 69.2646 80.3542 69.6365 78.9301V78.9278Z" fill="#E8A426"/>
<path d="M63.1757 81.8305C62.0777 81.5868 61.0768 81.0231 60.2993 80.2106C59.5218 79.3982 59.0028 78.3735 58.8078 77.2661C58.6128 76.1588 58.7506 75.0185 59.2039 73.9894C59.6571 72.9604 60.4053 72.0888 61.354 71.4849C62.3027 70.881 63.4091 70.5718 64.5335 70.5966C65.6579 70.6214 66.7497 70.9789 67.6708 71.624C68.592 72.2691 69.3011 73.1728 69.7086 74.2208C70.116 75.2688 70.2035 76.414 69.9599 77.5117C69.7981 78.2407 69.4943 78.9307 69.0659 79.5422C68.6374 80.1538 68.0926 80.675 67.4626 81.0761C66.8326 81.4771 66.1297 81.7501 65.3942 81.8796C64.6586 82.0091 63.9048 81.9924 63.1757 81.8305Z" fill="#EFC22D"/>
<path d="M63.4355 80.6602C62.5698 80.4675 61.7808 80.0226 61.168 79.3817C60.5552 78.7407 60.1462 77.9326 59.9927 77.0594C59.8392 76.1861 59.9481 75.287 60.3057 74.4756C60.6632 73.6643 61.2533 72.9771 62.0013 72.5009C62.7494 72.0247 63.6219 71.7809 64.5085 71.8004C65.3951 71.8198 66.2561 72.1016 66.9825 72.6101C67.709 73.1187 68.2683 73.8311 68.5899 74.6573C68.9115 75.4836 68.9809 76.3866 68.7892 77.2523C68.6618 77.8277 68.4222 78.3724 68.0842 78.8551C67.7461 79.3379 67.3161 79.7492 66.8189 80.0657C66.3217 80.3822 65.7669 80.5976 65.1864 80.6996C64.6058 80.8016 64.0108 80.7882 63.4355 80.6602Z" fill="#E8A426"/>
<path d="M59.97 75.6074C59.9841 75.5083 60.003 75.4068 60.0266 75.3077C60.2846 74.146 60.9935 73.1343 61.9975 72.4952C63.0016 71.8561 64.2184 71.642 65.3804 71.8999C66.5423 72.1577 67.5543 72.8665 68.1935 73.8703C68.8327 74.8741 69.047 76.0906 68.789 77.2523C68.7678 77.3538 68.7418 77.4506 68.7135 77.5497C68.8806 76.4279 68.6164 75.2845 67.9739 74.3497C67.3315 73.4149 66.3586 72.7583 65.2512 72.512C64.1438 72.2658 62.9842 72.4482 62.006 73.0226C61.0278 73.5969 60.3037 74.5206 59.9794 75.6074H59.97Z" fill="#D29423"/>
<path d="M64.1151 77.906C64.2859 77.8087 64.4302 77.6709 64.5353 77.5049C64.6567 77.3028 64.7632 77.0922 64.854 76.8747C64.9124 76.7311 64.9818 76.5922 65.0617 76.4594C65.0783 76.4253 65.1053 76.3973 65.1388 76.3795C65.1723 76.3617 65.2106 76.3549 65.2482 76.3603C65.3922 76.3933 65.4323 76.5585 65.3639 76.8582C65.3313 77.0069 65.2789 77.1506 65.2081 77.2854L65.0074 77.2594L64.8941 77.7668L65.6613 78.3049C65.8956 78.0294 66.0693 77.7078 66.1712 77.3609L66.6999 77.4765L66.8557 76.7803L66.3152 76.66C66.3592 76.3181 66.2913 75.9712 66.1216 75.6711C66.0467 75.5505 65.9481 75.4464 65.8316 75.3653C65.7151 75.2841 65.5832 75.2276 65.4441 75.1991C65.2304 75.1378 65.0011 75.1615 64.8044 75.2652C64.633 75.3586 64.4884 75.4943 64.3842 75.6593C64.261 75.8603 64.1514 76.0692 64.0561 76.2847C63.9937 76.4304 63.9211 76.5716 63.8389 76.7072C63.8217 76.7423 63.7935 76.771 63.7586 76.7889C63.7237 76.8067 63.684 76.8128 63.6454 76.8063C63.6141 76.799 63.5859 76.7822 63.5647 76.758C63.5435 76.7339 63.5305 76.7037 63.5274 76.6718C63.5135 76.5523 63.5231 76.4312 63.5557 76.3154C63.6024 76.117 63.6754 75.9257 63.7729 75.7466C63.8698 75.5652 63.9888 75.3964 64.1269 75.244L64.2402 74.7366L63.8555 74.8145L63.7752 74.9844L63.3598 74.6799C63.218 74.8317 63.098 75.0025 63.0033 75.1873C62.8884 75.405 62.7974 75.6345 62.7318 75.8717L62.2078 75.7561L62.052 76.4523L62.602 76.575C62.573 76.9047 62.649 77.2351 62.8192 77.519C62.8933 77.635 62.9897 77.7352 63.1027 77.8137C63.2157 77.8923 63.3432 77.9478 63.4778 77.9769C63.6914 78.0366 63.9199 78.0112 64.1151 77.906Z" fill="#D29423"/>
<path d="M62.9325 77.0092C62.7612 76.7257 62.6843 76.3952 62.7129 76.0652L62.1653 75.9449L62.3211 75.2487L62.8428 75.3643C62.909 75.1273 63 74.8979 63.1142 74.6799C63.2092 74.4939 63.33 74.3223 63.473 74.1702L64.2379 74.7342C64.1004 74.8867 63.9823 75.0555 63.8861 75.2369C63.7881 75.4156 63.715 75.607 63.669 75.8056C63.6371 75.9216 63.6267 76.0423 63.6383 76.162C63.6416 76.1941 63.6547 76.2245 63.6758 76.249C63.6969 76.2734 63.725 76.2909 63.7563 76.2989C63.7951 76.3045 63.8348 76.2977 63.8695 76.2795C63.9043 76.2612 63.9324 76.2325 63.9499 76.1974C64.0341 76.0634 64.1075 75.923 64.1694 75.7773C64.2638 75.5606 64.3735 75.3508 64.4975 75.1496C64.6022 74.9858 64.7457 74.8504 64.9153 74.7554C65.1128 74.6542 65.341 74.6307 65.555 74.6894C65.6942 74.7177 65.8261 74.7742 65.9426 74.8553C66.0591 74.9365 66.1578 75.0407 66.2325 75.1614C66.4032 75.4611 66.4719 75.8081 66.4285 76.1502L66.9667 76.2706L66.8132 76.9668L66.2821 76.8488C66.1824 77.1961 66.0094 77.518 65.7746 77.7928L65.0074 77.2547C65.2337 76.9938 65.3954 76.6834 65.4795 76.3484C65.5456 76.0487 65.5078 75.8764 65.3615 75.8505C65.2922 75.8348 65.2309 75.8678 65.1774 75.9496C65.096 76.082 65.0257 76.2209 64.9673 76.365C64.8771 76.582 64.7705 76.7918 64.6486 76.9927C64.5451 77.1599 64.4015 77.2987 64.2308 77.3963C64.0349 77.4997 63.8068 77.5242 63.5934 77.4647C63.4583 77.4371 63.3301 77.3825 63.2166 77.3042C63.103 77.226 63.0064 77.1257 62.9325 77.0092Z" fill="#EFC22D"/>
<path d="M62.7556 76.8936C62.558 76.5669 62.4696 76.1859 62.503 75.8056L61.8704 75.664L62.0498 74.8593L62.6541 74.9938C62.7287 74.7204 62.8332 74.4561 62.9657 74.2056C63.0752 73.9914 63.2143 73.7936 63.3788 73.6179L64.264 74.2693C64.1045 74.4445 63.9674 74.6387 63.8556 74.8475C63.7434 75.0549 63.6593 75.2763 63.6054 75.5059C63.5682 75.6394 63.557 75.7788 63.5723 75.9166C63.5757 75.9533 63.5905 75.9881 63.6146 76.016C63.6388 76.0439 63.671 76.0636 63.7069 76.0723C63.7517 76.0799 63.7979 76.0728 63.8383 76.0519C63.8787 76.0311 63.9113 75.9976 63.9311 75.9567C64.0273 75.8015 64.111 75.6389 64.1814 75.4705C64.2919 75.2217 64.4189 74.9804 64.5614 74.7484C64.6819 74.5583 64.8483 74.4017 65.0453 74.2929C65.2731 74.1751 65.5372 74.1481 65.7842 74.2174C65.9453 74.251 66.0978 74.3174 66.2322 74.4124C66.3666 74.5074 66.4801 74.629 66.5655 74.7696C66.7619 75.1161 66.8406 75.5169 66.7898 75.9118L67.413 76.0511L67.2336 76.8558L66.6222 76.719C66.5069 77.119 66.3064 77.4893 66.0344 77.8046L65.1515 77.1721C65.4126 76.8714 65.5986 76.5131 65.6945 76.1266C65.7724 75.7797 65.7275 75.5885 65.5599 75.5508C65.5165 75.5445 65.4721 75.5524 65.4335 75.5732C65.3948 75.594 65.3638 75.6267 65.3451 75.6664C65.255 75.8178 65.1761 75.9755 65.1091 76.1384C65.0042 76.3894 64.8811 76.6323 64.7408 76.8653C64.6218 77.0608 64.4554 77.2232 64.2569 77.3373C64.0318 77.458 63.7686 77.4868 63.5228 77.4175C63.3661 77.3866 63.2173 77.3243 63.0854 77.2342C62.9536 77.1441 62.8413 77.0283 62.7556 76.8936Z" fill="#EFC22D"/>
<path d="M58.7568 106.962L57.3169 106.802L57.3381 106.615L57.1304 106.528C58.3064 104.93 59.0392 103.049 59.2549 101.076V100.84C59.2832 100.633 59.2997 100.423 59.3115 100.208C59.3403 99.5513 59.3023 98.8934 59.1982 98.2444C59.1982 98.176 59.1982 98.1076 59.1982 98.0368C59.0985 97.2204 58.8848 96.422 58.5632 95.665L58.5821 95.4927L60.0221 95.6532C61.5212 95.8206 62.8923 96.5765 63.8339 97.7547C64.7755 98.9329 65.2104 100.437 65.043 101.935C64.8755 103.434 64.1194 104.805 62.9409 105.746C61.7625 106.688 60.2583 107.123 58.7592 106.955L58.7568 106.962Z" fill="#E8A426"/>
<path d="M63.6006 101.782C63.7253 100.665 63.5157 99.5353 62.9985 98.537C62.4812 97.5386 61.6795 96.716 60.6946 96.1731C59.7098 95.6303 58.586 95.3915 57.4655 95.4871C56.3449 95.5828 55.2779 96.0084 54.3993 96.7103C53.5207 97.4121 52.87 98.3587 52.5294 99.4302C52.1889 100.502 52.1738 101.65 52.4861 102.73C52.7983 103.811 53.4239 104.774 54.2838 105.499C55.1436 106.223 56.1991 106.677 57.3168 106.802C58.8157 106.968 60.3194 106.533 61.4976 105.592C62.6758 104.651 63.4321 103.28 63.6006 101.782Z" fill="#EFC22D"/>
<path d="M62.4084 101.648C62.5061 100.766 62.3402 99.876 61.9318 99.089C61.5234 98.302 60.8908 97.6537 60.114 97.226C59.3372 96.7984 58.451 96.6106 57.5674 96.6863C56.6838 96.7621 55.8425 97.098 55.1499 97.6517C54.4572 98.2054 53.9443 98.9519 53.6759 99.7969C53.4075 100.642 53.3957 101.548 53.642 102.399C53.8883 103.251 54.3817 104.011 55.0597 104.582C55.7377 105.154 56.57 105.511 57.4513 105.61C58.0371 105.676 58.63 105.625 59.1963 105.462C59.7626 105.298 60.291 105.024 60.7514 104.656C61.2118 104.288 61.5951 103.833 61.8795 103.317C62.1638 102.801 62.3435 102.233 62.4084 101.648Z" fill="#E8A426"/>
<path d="M58.7496 96.7339C58.6505 96.715 58.549 96.7009 58.4475 96.6891C57.8616 96.6237 57.2686 96.6743 56.7022 96.8381C56.1359 97.0018 55.6074 97.2754 55.1469 97.6434C54.2168 98.3865 53.62 99.4686 53.4879 100.652C53.3558 101.834 53.6992 103.021 54.4425 103.951C55.1858 104.881 56.2681 105.478 57.4513 105.61C57.5505 105.622 57.652 105.629 57.7558 105.633C56.624 105.445 55.6076 104.829 54.9158 103.914C54.224 102.999 53.9093 101.853 54.0367 100.713C54.164 99.573 54.7235 98.525 55.6002 97.7848C56.4769 97.0446 57.604 96.6686 58.7496 96.7339Z" fill="#D29423"/>
<path d="M59.5829 101.4C59.4349 101.529 59.2574 101.621 59.0659 101.666C58.8328 101.717 58.596 101.75 58.3578 101.763C58.2029 101.772 58.049 101.794 57.8974 101.827C57.803 101.853 57.7511 101.9 57.744 101.971C57.7275 102.117 57.8715 102.207 58.176 102.242C58.3273 102.261 58.4803 102.261 58.6316 102.242L58.6717 102.044L59.1863 102.101L59.4483 103C59.1134 103.134 58.7536 103.195 58.3932 103.179L58.3341 103.717L57.626 103.637L57.6874 103.089C57.3494 103.02 57.043 102.842 56.8139 102.584C56.7222 102.475 56.6538 102.348 56.6132 102.211C56.5726 102.074 56.5606 101.931 56.5779 101.789C56.5906 101.567 56.6867 101.358 56.847 101.204C56.9921 101.073 57.1673 100.981 57.3569 100.935C57.5901 100.883 57.8268 100.847 58.065 100.829C58.2239 100.817 58.3818 100.793 58.5372 100.758C58.6316 100.732 58.6859 100.682 58.693 100.607C58.6959 100.575 58.6889 100.542 58.6728 100.515C58.6568 100.487 58.6325 100.464 58.6032 100.451C58.494 100.401 58.3763 100.372 58.2562 100.366C58.0533 100.344 57.8482 100.351 57.6472 100.387C57.4443 100.419 57.246 100.476 57.0571 100.557L56.5425 100.5L56.7384 100.163L56.9273 100.139L56.7715 99.6485C56.9624 99.5637 57.1642 99.5058 57.371 99.4762C57.6138 99.4382 57.8599 99.4263 58.1052 99.4408L58.1642 98.9075L58.8724 98.9877L58.8086 99.5447C59.1298 99.6256 59.4178 99.8046 59.6325 100.057C59.7187 100.164 59.7828 100.288 59.8208 100.42C59.8589 100.553 59.8703 100.692 59.8543 100.829C59.8391 101.046 59.7421 101.25 59.5829 101.4Z" fill="#D29423"/>
<path d="M59.3374 100.772C59.3254 100.993 59.2281 101.201 59.0659 101.352C58.9192 101.483 58.7423 101.574 58.5513 101.619C58.318 101.669 58.0813 101.701 57.8431 101.716C57.6842 101.723 57.5262 101.745 57.371 101.78C57.2766 101.803 57.227 101.853 57.2176 101.921C57.201 102.07 57.3474 102.157 57.6519 102.195C57.9959 102.225 58.342 102.173 58.6622 102.044L58.9243 102.943C58.5893 103.077 58.2294 103.137 57.8691 103.12L57.8101 103.658L57.1019 103.58L57.1633 103.03C56.8247 102.962 56.5179 102.785 56.2899 102.525C56.1981 102.416 56.1298 102.289 56.0892 102.152C56.0485 102.015 56.0365 101.872 56.0538 101.73C56.0682 101.509 56.1651 101.301 56.3253 101.147C56.4687 101.016 56.6434 100.923 56.8328 100.878C57.0663 100.827 57.3028 100.79 57.541 100.77C57.6999 100.759 57.8578 100.736 58.0131 100.701C58.1099 100.673 58.1618 100.623 58.1712 100.55C58.1742 100.518 58.1672 100.486 58.1511 100.458C58.1351 100.43 58.1108 100.408 58.0815 100.394C57.9725 100.343 57.8547 100.314 57.7345 100.307C57.5315 100.286 57.3266 100.293 57.1255 100.328C56.9222 100.36 56.7238 100.418 56.5354 100.5L56.2545 99.5919C56.4442 99.506 56.6454 99.448 56.8517 99.4196C57.0952 99.3815 57.3421 99.3697 57.5882 99.3842L57.6472 98.8508L58.3554 98.9287L58.2916 99.488C58.6128 99.5673 58.9005 99.7467 59.1131 100C59.2006 100.107 59.2656 100.23 59.3041 100.363C59.3426 100.496 59.3539 100.635 59.3374 100.772Z" fill="#EFC22D"/>
<path d="M59.321 100.675C59.3057 100.931 59.1935 101.172 59.007 101.348C58.8361 101.496 58.6321 101.601 58.4122 101.655C58.1461 101.711 57.8763 101.748 57.6049 101.766C57.4263 101.777 57.2487 101.801 57.0737 101.839C56.9652 101.867 56.9038 101.924 56.8967 102.004C56.8778 102.174 57.0431 102.28 57.3948 102.32C57.7967 102.355 58.2011 102.294 58.5751 102.143L58.8748 103.182C58.4889 103.336 58.0744 103.406 57.6592 103.387L57.5883 104.01L56.7692 103.918L56.84 103.285C56.4499 103.205 56.0963 103.001 55.8321 102.703C55.7265 102.576 55.6481 102.43 55.6018 102.272C55.5555 102.114 55.5423 101.948 55.563 101.784C55.5771 101.529 55.6876 101.287 55.8722 101.11C56.039 100.959 56.2412 100.852 56.46 100.8C56.7257 100.739 56.9955 100.697 57.2673 100.675C57.4493 100.663 57.63 100.636 57.8079 100.595C57.9212 100.564 57.9802 100.505 57.9896 100.42C57.9934 100.383 57.9854 100.346 57.9667 100.314C57.9481 100.282 57.9197 100.256 57.8858 100.241C57.7603 100.183 57.6249 100.149 57.4868 100.142C57.2508 100.117 57.0125 100.125 56.7787 100.166C56.5444 100.202 56.3158 100.268 56.0988 100.364L55.7684 99.3135C55.988 99.2164 56.2199 99.1497 56.4576 99.1153C56.7386 99.0709 57.0236 99.0575 57.3074 99.0752L57.3759 98.4592L58.195 98.5513L58.1218 99.1955C58.4909 99.2879 58.8213 99.4944 59.0661 99.7855C59.1655 99.9095 59.2393 100.052 59.2831 100.205C59.3268 100.358 59.3397 100.517 59.321 100.675Z" fill="#EFC22D"/>
<path d="M35.6444 89.0923L34.9363 87.8226L35.1015 87.7329C35.0826 87.6598 35.0685 87.5843 35.0519 87.5111C37.0371 87.5549 38.9984 87.072 40.7362 86.1116L40.9179 85.9771C41.1044 85.8803 41.2862 85.7741 41.4656 85.6585C42.0191 85.3038 42.5348 84.8934 43.0047 84.4337L43.1723 84.3109C43.7826 83.7587 44.3118 83.1231 44.7444 82.4229L44.8955 82.3403L45.6037 83.61C46.2831 84.9264 46.4218 86.4559 45.9902 87.873C45.5586 89.2901 44.5909 90.4828 43.293 91.1973C41.9951 91.9117 40.4695 92.0915 39.0409 91.6984C37.6124 91.3052 36.3938 90.3702 35.6444 89.0923Z" fill="#E8A426"/>
<path d="M42.6647 90.0599C43.6493 89.517 44.4508 88.6944 44.9679 87.6961C45.485 86.6978 45.6945 85.5687 45.5698 84.4514C45.4452 83.3341 44.992 82.2789 44.2675 81.4191C43.5431 80.5593 42.58 79.9335 41.4999 79.6208C40.4198 79.3081 39.2712 79.3226 38.1994 79.6624C37.1275 80.0023 36.1805 80.6522 35.478 81.53C34.7755 82.4078 34.3491 83.4741 34.2526 84.5942C34.1562 85.7143 34.3941 86.8378 34.9362 87.8227C35.2965 88.4772 35.7822 89.0543 36.3657 89.521C36.9492 89.9877 37.6189 90.3349 38.3367 90.5426C39.0544 90.7504 39.8061 90.8147 40.5487 90.7319C41.2914 90.6491 42.0104 90.4207 42.6647 90.0599Z" fill="#EFC22D"/>
<path d="M42.0864 89.0096C42.8627 88.5812 43.4946 87.9324 43.9023 87.1451C44.3099 86.3577 44.4749 85.4673 44.3765 84.5862C44.2781 83.7051 43.9206 82.873 43.3493 82.1949C42.778 81.5169 42.0185 81.0234 41.1667 80.7768C40.3149 80.5302 39.4092 80.5416 38.5639 80.8095C37.7186 81.0774 36.9717 81.5898 36.4175 82.2819C35.8634 82.9741 35.527 83.8149 35.4507 84.6982C35.3744 85.5814 35.5618 86.4675 35.989 87.2443C36.2731 87.7609 36.6562 88.2163 37.1166 88.5846C37.5769 88.953 38.1053 89.2269 38.6716 89.3909C39.2379 89.5549 39.831 89.6056 40.4169 89.5402C41.0029 89.4747 41.5702 89.2945 42.0864 89.0096Z" fill="#E8A426"/>
<path d="M43.9939 83.1875C43.9514 83.0955 43.9042 83.0058 43.8546 82.9161C43.5703 82.3999 43.1872 81.9448 42.727 81.5767C42.2668 81.2086 41.7385 80.9347 41.1725 80.7706C40.6064 80.6066 40.0135 80.5556 39.4278 80.6207C38.842 80.6857 38.2748 80.8655 37.7585 81.1497C37.2422 81.4338 36.7869 81.8169 36.4187 82.277C36.0505 82.7371 35.7765 83.2652 35.6125 83.8312C35.4484 84.3971 35.3974 84.9898 35.4625 85.5754C35.5275 86.1611 35.7073 86.7282 35.9916 87.2443C36.0388 87.334 36.0907 87.4213 36.1474 87.5087C35.6455 86.4748 35.5598 85.2878 35.9079 84.1926C36.2561 83.0974 37.0115 82.1777 38.0183 81.6232C39.0251 81.0688 40.2064 80.9219 41.3184 81.213C42.4303 81.5041 43.3881 82.2109 43.9939 83.1875Z" fill="#D29423"/>
<path d="M40.6584 86.5601C40.4678 86.513 40.2913 86.4207 40.1438 86.2911C39.9742 86.1312 39.8164 85.9593 39.6717 85.7766C39.5756 85.6542 39.4689 85.5405 39.353 85.4367C39.3284 85.4077 39.2949 85.3878 39.2576 85.3801C39.2204 85.3724 39.1817 85.3774 39.1476 85.3943C39.017 85.4651 39.0264 85.635 39.1759 85.904C39.2494 86.0371 39.3399 86.16 39.4451 86.2698L39.6315 86.1872L39.8818 86.6427L39.2963 87.3743C38.9942 87.1783 38.7375 86.92 38.5433 86.6167L38.0712 86.8763L37.7266 86.2509L38.1987 85.9866C38.0592 85.6704 38.0277 85.3171 38.109 84.9813C38.1452 84.8431 38.2096 84.7139 38.2982 84.6018C38.3867 84.4897 38.4975 84.3971 38.6236 84.3299C38.8126 84.2136 39.0383 84.1724 39.2562 84.2143C39.446 84.2566 39.6221 84.3458 39.7684 84.4739C39.9429 84.6331 40.1069 84.8033 40.2594 84.9836C40.3597 85.1068 40.4694 85.222 40.5876 85.3282C40.6146 85.3566 40.6499 85.3758 40.6885 85.383C40.727 85.3902 40.7669 85.3851 40.8024 85.3683C40.83 85.3522 40.852 85.3278 40.8651 85.2986C40.8782 85.2694 40.8819 85.2368 40.8756 85.2055C40.8562 85.087 40.8128 84.9738 40.7481 84.8727C40.6473 84.6951 40.5235 84.5317 40.3798 84.3865C40.2388 84.2401 40.0803 84.1117 39.9077 84.0042L39.6575 83.544L40.0446 83.511L40.1721 83.6526L40.4837 83.2419C40.6635 83.3479 40.8272 83.4791 40.97 83.6313C41.1422 83.8074 41.2942 84.0021 41.4232 84.2119L41.8953 83.9523L42.24 84.5777L41.7466 84.8491C41.8666 85.1569 41.8864 85.4947 41.8032 85.8143C41.7653 85.9471 41.7013 86.071 41.615 86.1787C41.5286 86.2865 41.4217 86.376 41.3005 86.4421C41.1096 86.5627 40.8796 86.605 40.6584 86.5601Z" fill="#D29423"/>
<path d="M41.0408 85.9913C40.8529 86.1104 40.6258 86.151 40.4082 86.1045C40.2169 86.0591 40.0401 85.9666 39.8936 85.8355C39.7234 85.6762 39.5656 85.5042 39.4215 85.321C39.3241 85.1998 39.2176 85.0861 39.1028 84.9812C39.0776 84.9531 39.0441 84.9339 39.0071 84.9263C38.9702 84.9186 38.9317 84.923 38.8975 84.9387C38.7676 85.0119 38.7771 85.1747 38.9258 85.4508C39.1003 85.7487 39.343 86.0011 39.6339 86.1871L39.0485 86.9211C38.7469 86.7235 38.4903 86.4646 38.2955 86.1612L37.8234 86.4231L37.4788 85.7977L37.9509 85.5311C37.8126 85.2154 37.7811 84.8632 37.8612 84.5281C37.8978 84.3901 37.9624 84.261 38.0509 84.149C38.1394 84.037 38.25 83.9443 38.3758 83.8767C38.5644 83.7593 38.7905 83.718 39.0084 83.7611C39.1982 83.8034 39.3743 83.8926 39.5206 84.0207C39.6963 84.1787 39.8603 84.349 40.0116 84.5304C40.1118 84.653 40.2215 84.7674 40.3398 84.8726C40.3663 84.9018 40.4015 84.9216 40.4402 84.9292C40.4788 84.9369 40.5189 84.9319 40.5546 84.9151C40.582 84.8987 40.6037 84.8743 40.6168 84.8452C40.6299 84.8161 40.6337 84.7836 40.6277 84.7523C40.6081 84.6331 40.5648 84.5192 40.5003 84.4171C40.401 84.2393 40.277 84.0764 40.132 83.9333C39.9907 83.7866 39.8321 83.6575 39.6599 83.5487L40.2359 82.7935C40.4151 82.8993 40.5788 83.0296 40.7222 83.1805C40.8934 83.3574 41.0453 83.552 41.1754 83.7611L41.6475 83.5015L41.9922 84.1269L41.4988 84.3983C41.6188 84.7068 41.6387 85.0454 41.5554 85.3659C41.5161 85.4993 41.4502 85.6235 41.3618 85.7309C41.2734 85.8384 41.1642 85.9269 41.0408 85.9913Z" fill="#EFC22D"/>
<path d="M41.0997 85.9276C40.8831 86.0627 40.6227 86.1091 40.3727 86.0574C40.1517 86.0056 39.9472 85.8993 39.7778 85.7483C39.5769 85.5648 39.3907 85.366 39.2207 85.1535C39.1086 85.0141 38.9863 84.8832 38.8548 84.7618C38.8253 84.7303 38.7869 84.7086 38.7446 84.6998C38.7024 84.6909 38.6585 84.6952 38.6188 84.7122C38.4677 84.7948 38.4795 84.9931 38.6495 85.3022C38.8514 85.6461 39.1311 85.9379 39.4662 86.1542L38.7911 86.9991C38.442 86.773 38.1457 86.4743 37.9224 86.1235L37.3748 86.4256L36.9758 85.7034L37.5353 85.3966C37.3748 85.0322 37.3375 84.6254 37.4291 84.2379C37.4716 84.0787 37.5463 83.93 37.6486 83.8009C37.7509 83.6718 37.8787 83.5651 38.0239 83.4874C38.2409 83.3508 38.5019 83.3026 38.7533 83.3529C38.9731 83.4007 39.1771 83.5039 39.3458 83.6526C39.5472 83.836 39.7364 84.0323 39.9124 84.2402C40.0281 84.3817 40.1543 84.5143 40.2901 84.6367C40.3207 84.6703 40.3614 84.6931 40.4061 84.7016C40.4508 84.7101 40.4971 84.7039 40.5379 84.6839C40.5701 84.6651 40.5957 84.637 40.6113 84.6032C40.6269 84.5695 40.6318 84.5317 40.6253 84.4951C40.6005 84.3586 40.55 84.2281 40.4765 84.1104C40.3599 83.9063 40.2171 83.7182 40.0516 83.5511C39.8862 83.381 39.6998 83.2327 39.4969 83.1098L40.1626 82.2366C40.3708 82.3577 40.5601 82.5088 40.7244 82.685C40.9228 82.8873 41.0978 83.1114 41.2461 83.3529L41.789 83.0555L42.1832 83.78L41.6167 84.0915C41.7554 84.4475 41.7777 84.8383 41.6804 85.2078C41.6362 85.3603 41.5621 85.5025 41.4624 85.6261C41.3627 85.7496 41.2394 85.8522 41.0997 85.9276Z" fill="#EFC22D"/>
<path d="M66.2755 63.1247C66.3614 62.7533 66.349 62.3656 66.2395 62.0005C66.13 61.6355 65.9272 61.3058 65.6515 61.0447C65.0602 60.4884 64.0581 60.2908 63.4685 60.6981C63.4805 59.9753 62.762 59.2439 61.9765 59.0567C61.6082 58.9703 61.224 58.9828 60.8621 59.0929C60.5002 59.203 60.1732 59.4069 59.9137 59.6841C59.4376 60.2041 59.252 60.9356 59.2502 61.6635C59.2502 63.0085 59.8691 64.4229 60.9262 65.4889C62.3924 65.7853 63.9017 65.5218 65.0121 64.7747C65.6103 64.3674 66.107 63.818 66.2755 63.1247Z" fill="#FF6161"/>
<path d="M53.5917 89.307C53.3993 89.3904 53.2326 89.5222 53.1082 89.6891C52.9837 89.856 52.9059 90.0521 52.8826 90.2579C52.8348 90.6976 53.0823 91.1995 53.456 91.3256C53.133 91.5554 53.0498 92.109 53.2285 92.5148C53.3134 92.7045 53.4472 92.869 53.6168 92.9917C53.7863 93.1145 53.9856 93.1913 54.1947 93.2144C54.5856 93.252 54.9669 93.0976 55.2889 92.8603C55.8824 92.4225 56.3 91.691 56.4176 90.8831C56.0592 90.144 55.4399 89.565 54.7404 89.3249C54.3658 89.1912 53.9539 89.1554 53.5917 89.307Z" fill="#FF6161"/>
<path d="M53.5707 73.4951C53.4342 73.1567 53.2109 72.8602 52.9233 72.6357C52.6357 72.4111 52.2939 72.2663 51.9324 72.216C51.1629 72.1074 50.2659 72.5063 50.0275 73.16C49.6403 72.5889 48.6749 72.4119 47.9525 72.6998C47.6148 72.8351 47.3187 73.0567 47.0937 73.3425C46.8687 73.6283 46.7229 73.9682 46.6707 74.3282C46.6128 75.0121 46.8123 75.6929 47.2302 76.2374C48.0535 77.3439 49.2767 78.0849 50.6388 78.3024C51.9142 77.7728 52.9311 76.7646 53.4715 75.494C53.7546 74.8638 53.79 74.1502 53.5707 73.4951Z" fill="#FF6161"/>
<path d="M43.746 101.223C43.8512 101.052 43.9065 100.858 43.9065 100.66C43.9065 100.463 43.8512 100.269 43.746 100.098C43.5191 99.7334 43.0147 99.4859 42.6361 99.6014C42.7564 99.2449 42.4885 98.7743 42.099 98.5627C41.9165 98.4641 41.7096 98.4121 41.4989 98.4121C41.2883 98.4121 41.0814 98.4641 40.8989 98.5627C40.5675 98.7686 40.3301 99.0833 40.2333 99.4449C40.0273 100.169 40.1308 100.94 40.5216 101.594C41.2206 101.956 42.0424 102.048 42.8124 101.85C43.196 101.758 43.5289 101.534 43.746 101.223Z" fill="#FF6161"/>
<path d="M40.46 70.9605L39.7754 71.0738L39.6621 70.3917C39.6425 70.2754 39.5775 70.1717 39.4815 70.1031C39.3856 70.0345 39.2663 70.0068 39.1499 70.0259L38.2954 70.1675C38.2375 70.1772 38.1822 70.1983 38.1325 70.2294C38.0828 70.2605 38.0397 70.3011 38.0057 70.3489C37.9718 70.3967 37.9475 70.4507 37.9344 70.5079C37.9214 70.565 37.9197 70.6242 37.9295 70.682L38.0428 71.364L37.3606 71.4773C37.2441 71.4975 37.1403 71.5629 37.0717 71.6593C37.0032 71.7556 36.9755 71.8751 36.9947 71.9918L37.1387 72.8461C37.1584 72.9624 37.2233 73.0662 37.3193 73.1347C37.4153 73.2033 37.5345 73.231 37.6509 73.2119L38.3331 73.0963L38.4464 73.7783C38.4562 73.8361 38.4772 73.8915 38.5083 73.9412C38.5395 73.9908 38.5801 74.0339 38.6279 74.0679C38.6757 74.1019 38.7297 74.1261 38.7869 74.1392C38.844 74.1522 38.9032 74.1539 38.9611 74.1441L39.8156 74.0025C39.8734 73.9928 39.9288 73.9718 39.9785 73.9407C40.0281 73.9095 40.0712 73.8689 40.1052 73.8211C40.1392 73.7733 40.1634 73.7193 40.1765 73.6622C40.1896 73.605 40.1913 73.5459 40.1815 73.488L40.0658 72.806L40.7504 72.6927C40.8079 72.683 40.8629 72.662 40.9123 72.631C40.9618 72.6 41.0046 72.5596 41.0383 72.512C41.0721 72.4645 41.0961 72.4107 41.1091 72.3538C41.1221 72.297 41.1237 72.2381 41.1139 72.1806L40.9722 71.3263C40.9628 71.2686 40.942 71.2133 40.9111 71.1636C40.8802 71.1139 40.8398 71.0709 40.7922 71.0369C40.7446 71.0029 40.6908 70.9786 40.6337 70.9655C40.5767 70.9524 40.5177 70.9507 40.46 70.9605Z" fill="#4E9793"/>
<path d="M50.6269 91.2281L49.9825 91.483L49.7275 90.8411C49.6839 90.7314 49.5985 90.6434 49.4901 90.5965C49.3817 90.5496 49.2591 90.5476 49.1492 90.5909L48.3442 90.9119C48.2345 90.9555 48.1465 91.0409 48.0996 91.1493C48.0527 91.2577 48.0507 91.3802 48.094 91.4901L48.3513 92.1344L47.7069 92.3893C47.5971 92.4329 47.5091 92.5183 47.4622 92.6267C47.4153 92.735 47.4133 92.8576 47.4567 92.9675L47.7777 93.7722C47.8213 93.882 47.9067 93.9699 48.0151 94.0168C48.1236 94.0637 48.2462 94.0657 48.356 94.0224L49.0005 93.7651L49.2554 94.4094C49.3013 94.517 49.3877 94.6022 49.496 94.6464C49.6043 94.6906 49.7257 94.6902 49.8338 94.6454L50.6387 94.3268C50.7481 94.2827 50.8357 94.1973 50.8825 94.0891C50.9293 93.9808 50.9316 93.8585 50.8889 93.7486L50.634 93.1043L51.2761 92.8495C51.3858 92.8058 51.4738 92.7205 51.5207 92.6121C51.5676 92.5037 51.5696 92.3811 51.5263 92.2713L51.2052 91.4665C51.1599 91.3585 51.0736 91.2728 50.9652 91.2281C50.8569 91.1835 50.7353 91.1835 50.6269 91.2281Z" fill="#4E9793"/>
<path d="M69.1006 89.8594L68.5176 89.4842L68.8952 88.9013C68.9585 88.8022 68.9801 88.6822 68.9554 88.5673C68.9306 88.4524 68.8615 88.3519 68.7631 88.2877L68.0336 87.8157C67.9342 87.7523 67.8138 87.7306 67.6985 87.7553C67.5832 87.7801 67.4822 87.8492 67.4175 87.9478L67.0399 88.5307L66.4592 88.1555C66.4101 88.1235 66.3552 88.1015 66.2976 88.0908C66.24 88.0802 66.1808 88.081 66.1236 88.0933C66.0663 88.1056 66.012 88.1291 65.9639 88.1624C65.9157 88.1958 65.8747 88.2383 65.843 88.2877L65.3709 89.0145C65.3389 89.0636 65.3169 89.1185 65.3063 89.1761C65.2956 89.2336 65.2964 89.2928 65.3087 89.35C65.321 89.4073 65.3445 89.4616 65.3779 89.5097C65.4112 89.5578 65.4538 89.5989 65.5031 89.6305L66.0838 90.0057L65.7085 90.5863C65.6765 90.6353 65.6545 90.6902 65.6438 90.7478C65.6331 90.8054 65.634 90.8645 65.6463 90.9218C65.6586 90.9791 65.6821 91.0333 65.7154 91.0815C65.7488 91.1296 65.7914 91.1706 65.8407 91.2023L66.5677 91.6743C66.6168 91.7063 66.6717 91.7282 66.7293 91.7389C66.7869 91.7496 66.846 91.7488 66.9033 91.7365C66.9606 91.7242 67.0149 91.7007 67.063 91.6673C67.1112 91.634 67.1522 91.5914 67.1838 91.5421L67.5592 90.9615L68.1422 91.3368C68.1913 91.3688 68.2462 91.3907 68.3038 91.4014C68.3614 91.4121 68.4205 91.4113 68.4778 91.399C68.5351 91.3867 68.5894 91.3632 68.6375 91.3298C68.6857 91.2965 68.7267 91.2539 68.7583 91.2046L69.2305 90.4777C69.2948 90.3784 69.3173 90.2577 69.293 90.1418C69.2686 90.026 69.1995 89.9245 69.1006 89.8594Z" fill="#4E9793"/>
<path opacity="0.37" d="M73.09 59.833L74.2514 53.5413L42.8984 47.7664L41.7394 54.0558C41.2102 53.9587 40.667 53.9668 40.141 54.0798C39.6149 54.1927 39.1163 54.4082 38.6737 54.714C38.231 55.0198 37.853 55.4098 37.5612 55.8618C37.2695 56.3137 37.0697 56.8187 36.9734 57.348L30.0994 94.636C29.7515 96.5277 30.1692 98.4802 31.2608 100.064C32.3524 101.648 34.0285 102.734 35.9206 103.082L61.0535 107.713C62.9454 108.061 64.8984 107.644 66.4827 106.553C68.0671 105.462 69.1531 103.787 69.5019 101.895L76.3735 64.6073C76.4711 64.0789 76.4635 63.5364 76.3513 63.0109C76.239 62.4854 76.0243 61.9871 75.7193 61.5446C75.4144 61.1021 75.0252 60.7241 74.5741 60.432C74.1229 60.1399 73.6186 59.9396 73.09 59.8425V59.833Z" fill="white"/>
<path opacity="0.5" d="M42.346 58.318C41.731 58.2042 41.0959 58.3391 40.5803 58.6931C40.0646 59.0471 39.7106 59.5912 39.596 60.206L34.1667 89.6894C34.1106 89.9943 34.1151 90.3071 34.1799 90.6102C34.2447 90.9133 34.3686 91.2006 34.5445 91.4558C34.7204 91.711 34.9449 91.9291 35.2051 92.0975C35.4653 92.266 35.7561 92.3816 36.061 92.4377C36.3659 92.4938 36.6788 92.4893 36.982 92.4244C37.2851 92.3596 37.5725 92.2358 37.8278 92.0599C38.083 91.884 38.3012 91.6596 38.4697 91.3995C38.6382 91.1393 38.7538 90.8486 38.8099 90.5438L44.2392 61.0626C44.3515 60.4478 44.2153 59.8135 43.8603 59.2989C43.5054 58.7843 42.9608 58.4316 42.346 58.318Z" fill="#FBF3DF"/>
<path opacity="0.3" d="M73.315 58.6242L41.9634 52.8489L41.8218 53.6171L73.1734 59.3925L73.315 58.6242Z" fill="#90FFFF"/>
<path opacity="0.3" d="M73.6004 57.0756L42.2488 51.3003L42.1072 52.0685L73.4588 57.8439L73.6004 57.0756Z" fill="#90FFFF"/>
<path d="M74.9466 50.557L42.9507 44.6816C42.1445 44.5336 41.3709 45.067 41.2229 45.873L40.557 49.4971C40.409 50.3031 40.9425 51.0765 41.7486 51.2245L73.7446 57.0999C74.5508 57.248 75.3243 56.7146 75.4724 55.9086L76.1382 52.2845C76.2863 51.4785 75.7528 50.7051 74.9466 50.557Z" fill="#A2BBF3"/>
<path d="M75.6582 56.1207L40.6653 49.6732C40.5673 49.6553 40.4738 49.6183 40.3901 49.5642C40.3065 49.5102 40.2343 49.4401 40.1777 49.3581C40.1211 49.2762 40.0813 49.1838 40.0605 49.0865C40.0396 48.9891 40.0382 48.8885 40.0563 48.7906C40.0742 48.6924 40.1113 48.5986 40.1655 48.5148C40.2197 48.431 40.29 48.3587 40.3723 48.3021C40.4545 48.2456 40.5472 48.2058 40.6448 48.1851C40.7425 48.1644 40.8433 48.1633 40.9415 48.1817L75.9321 54.6269C76.1303 54.6636 76.3059 54.7773 76.4205 54.9432C76.5351 55.109 76.5793 55.3135 76.5435 55.5119C76.5068 55.7099 76.3929 55.8853 76.2269 55.9995C76.0609 56.1136 75.8564 56.1573 75.6582 56.1207Z" fill="#3D69C5"/>
<path d="M76.0525 53.9827L41.0596 47.5352C40.9616 47.5173 40.8681 47.4803 40.7844 47.4262C40.7007 47.3722 40.6286 47.3021 40.572 47.2201C40.5154 47.1382 40.4756 47.0458 40.4548 46.9484C40.4339 46.8511 40.4325 46.7505 40.4506 46.6526C40.4685 46.5543 40.5056 46.4605 40.5598 46.3766C40.614 46.2926 40.6842 46.2202 40.7664 46.1634C40.8486 46.1067 40.9412 46.0667 41.0389 46.0457C41.1366 46.0248 41.2375 46.0233 41.3358 46.0413L76.3264 52.4889C76.4247 52.5067 76.5185 52.5438 76.6024 52.598C76.6864 52.6522 76.7588 52.7224 76.8156 52.8046C76.8724 52.8868 76.9124 52.9794 76.9334 53.0771C76.9543 53.1747 76.9558 53.2756 76.9377 53.3739C76.901 53.5719 76.7872 53.7473 76.6212 53.8615C76.4552 53.9756 76.2507 54.0193 76.0525 53.9827Z" fill="#3D69C5"/>
<path d="M96.4313 45.8171C96.4313 45.8171 97.6871 46.9499 96.8845 48.3636C97.4794 49.2226 97.1041 50.2233 96.115 50.4616C96.318 51.2522 95.6004 52.0759 94.5428 52.1632C94.3493 53.3172 92.6544 53.414 91.8258 53.152C91.1342 53.7444 88.7288 53.5768 87.5461 51.4339L96.4313 45.8171Z" fill="#EBD9BE"/>
<path d="M93.568 48.6018C93.5513 48.6018 93.5352 48.5955 93.5229 48.5841C93.5106 48.5728 93.5031 48.5571 93.502 48.5404C93.5019 48.5237 93.5082 48.5076 93.5196 48.4953C93.531 48.483 93.5466 48.4756 93.5633 48.4744L96.7194 48.3186C96.7363 48.3186 96.7525 48.3253 96.7645 48.3373C96.7764 48.3492 96.7831 48.3654 96.7831 48.3823C96.7831 48.3992 96.7764 48.4154 96.7645 48.4274C96.7525 48.4393 96.7363 48.446 96.7194 48.446L93.5633 48.6018H93.568Z" fill="#CFB58F"/>
<path d="M95.9546 50.5417H95.938L92.6332 49.6472C92.6168 49.6423 92.6029 49.6312 92.5946 49.6162C92.5862 49.6012 92.584 49.5836 92.5884 49.567C92.5928 49.5508 92.6035 49.5369 92.6181 49.5285C92.6327 49.5201 92.65 49.5178 92.6663 49.5222L95.9711 50.419C95.9859 50.4231 95.9986 50.4324 96.0071 50.4452C96.0155 50.458 96.0191 50.4735 96.0171 50.4887C96.0151 50.5039 96.0076 50.5179 95.9962 50.528C95.9847 50.5382 95.9699 50.5439 95.9546 50.544V50.5417Z" fill="#CFB58F"/>
<path d="M94.3895 52.156C94.3786 52.1583 94.3674 52.1583 94.3565 52.156L91.6631 50.6574C91.6557 50.6533 91.6493 50.6477 91.6442 50.6411C91.639 50.6344 91.6353 50.6268 91.6331 50.6187C91.6309 50.6106 91.6303 50.6021 91.6314 50.5938C91.6325 50.5854 91.6352 50.5774 91.6394 50.5701C91.6474 50.5556 91.6608 50.5447 91.6767 50.5399C91.6925 50.535 91.7097 50.5366 91.7244 50.5442L94.4226 52.0404C94.43 52.0441 94.4367 52.0493 94.442 52.0557C94.4473 52.0621 94.4512 52.0696 94.4534 52.0776C94.4557 52.0856 94.4562 52.094 94.4549 52.1022C94.4537 52.1105 94.4507 52.1184 94.4462 52.1254C94.4403 52.135 94.432 52.143 94.422 52.1484C94.412 52.1538 94.4008 52.1564 94.3895 52.156Z" fill="#CFB58F"/>
<path d="M91.611 53.1448C91.6003 53.145 91.5897 53.1425 91.5802 53.1376C91.5707 53.1326 91.5627 53.1254 91.5567 53.1165L90.3764 51.2709C90.3716 51.2638 90.3683 51.2559 90.3667 51.2475C90.365 51.2391 90.3651 51.2305 90.3668 51.2221C90.3686 51.2137 90.372 51.2058 90.3769 51.1988C90.3818 51.1918 90.3881 51.1858 90.3953 51.1812C90.4094 51.1723 90.4265 51.1693 90.4428 51.1728C90.4592 51.1764 90.4735 51.1862 90.4827 51.2001L91.6747 53.0457C91.6812 53.0553 91.6849 53.0666 91.6854 53.0783C91.6859 53.0899 91.6833 53.1015 91.6777 53.1117C91.6721 53.1219 91.6638 53.1304 91.6537 53.1362C91.6436 53.1421 91.6321 53.145 91.6205 53.1448H91.611Z" fill="#CFB58F"/>
<path d="M92.9826 55.7573L99.5921 58.3014C99.7285 58.355 99.8449 58.4497 99.9253 58.5723C100.006 58.6949 100.046 58.8393 100.041 58.9858C100.035 59.2674 99.9604 59.5433 99.8243 59.79C99.6882 60.0366 99.4943 60.2465 99.2593 60.4018C99.1955 61.5252 98.6007 62.0184 98.2206 62.0538C98.0861 62.6792 97.6281 63.3872 96.9082 63.3164C96.7947 63.6501 96.5537 63.9253 96.2379 64.0818C95.922 64.2384 95.5571 64.2635 95.2227 64.1518C94.9867 64.6238 94.21 64.7064 93.6553 64.5601C93.5477 64.5298 93.4489 64.4744 93.3668 64.3985C93.2848 64.3226 93.2218 64.2284 93.1832 64.1235L90.2419 56.0618L92.9826 55.7573Z" fill="white"/>
<path d="M92.2436 55.7839L92.1743 55.8909L99.2313 60.4569L99.3006 60.3499L92.2436 55.7839Z" fill="#CFB58F"/>
<path d="M98.1804 62.0987L91.644 55.9462L91.7337 55.8518L98.2678 62.0067L98.1804 62.0987Z" fill="#CFB58F"/>
<path d="M96.8608 63.3518L91.2144 55.9839L91.3159 55.906L96.9623 63.2739L96.8608 63.3518Z" fill="#CFB58F"/>
<path d="M95.1707 64.1803L90.7588 56.0264L90.8721 55.9651L95.284 64.1189L95.1707 64.1803Z" fill="#CFB58F"/>
<path d="M92.6897 55.9485C92.6897 55.9485 92.2837 56.5951 90.7658 57.5084L90.2371 56.0594L92.6897 55.9485Z" fill="#CFB58F"/>
<path d="M87.4589 50.0933L92.9779 55.7714C92.9779 55.7714 89.1018 57.9096 86.5194 54.9147C84.5129 52.5878 87.4636 50.0933 87.4636 50.0933" fill="white"/>
<path d="M87.6406 51.5896H88.9082L92.9778 55.7786C92.4547 56.045 91.8993 56.2425 91.3254 56.3662C91.1197 56.2214 90.9312 56.0535 90.7636 55.8659C89.7321 56.0217 87.4919 54.4004 87.6406 51.5967" fill="#EBD9BE"/>
<path d="M85.4522 50.0131C85.4887 50.3376 85.6206 50.644 85.8312 50.8937C86.0418 51.1433 86.3217 51.3249 86.6356 51.4156C86.9494 51.5062 87.283 51.5019 87.5944 51.4031C87.9057 51.3042 88.1807 51.1154 88.3848 50.8603C88.5888 50.6053 88.7126 50.2955 88.7406 49.9701C88.7686 49.6447 88.6995 49.3184 88.5421 49.0322C88.3846 48.7461 88.1459 48.513 87.856 48.3625C87.5661 48.212 87.2381 48.1507 86.9134 48.1864C86.6974 48.2102 86.4882 48.2764 86.2978 48.3811C86.1074 48.4858 85.9396 48.6271 85.8038 48.7967C85.6681 48.9664 85.5672 49.1612 85.5068 49.3699C85.4465 49.5786 85.428 49.7972 85.4522 50.0131Z" fill="white"/>
<path d="M85.5444 49.2507L84.0737 49.4136L85.4476 50.013C85.4476 50.013 85.9504 49.836 85.5444 49.2507Z" fill="#EBC386"/>
<path d="M86.3517 49.4892C86.3591 49.5531 86.3851 49.6133 86.4266 49.6624C86.4681 49.7115 86.5232 49.7472 86.5849 49.765C86.6466 49.7829 86.7123 49.782 86.7735 49.7627C86.8348 49.7433 86.889 49.7063 86.9293 49.6562C86.9695 49.6061 86.9941 49.5453 86.9998 49.4813C87.0056 49.4173 86.9923 49.353 86.9616 49.2966C86.9309 49.2401 86.8842 49.194 86.8273 49.1641C86.7705 49.1341 86.706 49.1216 86.6421 49.1282C86.556 49.1383 86.4773 49.1818 86.423 49.2493C86.3687 49.3168 86.3431 49.403 86.3517 49.4892Z" fill="#394A4D"/>
<path d="M99.6157 50.0911C99.6157 50.0911 100.366 51.8799 98.8438 52.9561C99.0421 54.1361 98.1639 54.9928 97.0214 54.7568C96.8444 55.6772 95.6971 56.1728 94.557 55.7574C93.7922 56.8619 91.9863 56.1374 91.2522 55.4577C90.2442 55.7362 87.8294 54.391 87.6453 51.5897L99.6157 50.0911Z" fill="white"/>
<path d="M98.6714 52.9585C98.6637 52.9607 98.6555 52.9607 98.6478 52.9585L95.2934 51.5826C95.2776 51.5758 95.2651 51.5632 95.2585 51.5473C95.2519 51.5315 95.2517 51.5136 95.258 51.4977C95.2643 51.482 95.2765 51.4695 95.292 51.4629C95.3075 51.4563 95.325 51.456 95.3406 51.4623L98.695 52.8405C98.7106 52.8468 98.7231 52.859 98.7297 52.8745C98.7364 52.89 98.7366 52.9074 98.7304 52.9231C98.7252 52.9342 98.7169 52.9435 98.7063 52.9498C98.6958 52.9562 98.6836 52.9592 98.6714 52.9585Z" fill="#EBD9BE"/>
<path d="M96.8397 54.752C96.8251 54.752 96.8109 54.747 96.7996 54.7379L93.8087 52.2056C93.7969 52.1937 93.7903 52.1775 93.7903 52.1608C93.7903 52.144 93.7969 52.1278 93.8087 52.1159C93.8145 52.1098 93.8214 52.1049 93.8291 52.1015C93.8368 52.0982 93.8452 52.0964 93.8536 52.0964C93.862 52.0964 93.8703 52.0982 93.878 52.1015C93.8857 52.1049 93.8927 52.1098 93.8984 52.1159L96.8893 54.6553C96.9012 54.6676 96.9079 54.6841 96.9079 54.7013C96.9079 54.7185 96.9012 54.735 96.8893 54.7473C96.8817 54.7514 96.8735 54.7539 96.865 54.7547C96.8564 54.7555 96.8478 54.7546 96.8397 54.752Z" fill="#EBD9BE"/>
<path d="M94.4224 55.677C94.412 55.6771 94.4018 55.6745 94.3928 55.6695C94.3837 55.6646 94.376 55.6574 94.3704 55.6487L92.2979 52.779C92.2911 52.7649 92.2895 52.7489 92.2933 52.7338C92.2972 52.7186 92.3063 52.7054 92.319 52.6963C92.3318 52.6873 92.3473 52.683 92.3629 52.6843C92.3784 52.6856 92.393 52.6924 92.4041 52.7034L94.4696 55.5756C94.4746 55.5823 94.4782 55.5901 94.4802 55.5983C94.4822 55.6065 94.4826 55.615 94.4813 55.6234C94.48 55.6317 94.477 55.6397 94.4725 55.6469C94.4681 55.6541 94.4623 55.6603 94.4554 55.6652C94.4456 55.6719 94.4342 55.6759 94.4224 55.677Z" fill="#EBD9BE"/>
<path d="M91.0587 55.3467C91.0431 55.3463 91.0281 55.3404 91.0164 55.33C91.0048 55.3197 90.9972 55.3055 90.9949 55.2901L90.6597 52.7932C90.6584 52.7848 90.6587 52.7763 90.6608 52.768C90.6628 52.7598 90.6664 52.752 90.6715 52.7452C90.6765 52.7384 90.6829 52.7326 90.6902 52.7283C90.6975 52.724 90.7056 52.7212 90.714 52.72C90.7224 52.7187 90.731 52.719 90.7392 52.7211C90.7475 52.7231 90.7552 52.7267 90.762 52.7318C90.7688 52.7368 90.7746 52.7432 90.7789 52.7505C90.7832 52.7578 90.786 52.7659 90.7872 52.7743L91.1177 55.2736C91.119 55.2818 91.1186 55.2902 91.1166 55.2983C91.1146 55.3064 91.1109 55.314 91.1058 55.3206C91.1007 55.3273 91.0943 55.3328 91.087 55.3369C91.0797 55.341 91.0717 55.3435 91.0634 55.3444L91.0587 55.3467Z" fill="#EBD9BE"/>
<path d="M16.8519 29.4246C16.8519 29.4246 15.5961 30.5574 16.3987 31.971C15.8062 32.8277 16.1816 33.8307 17.1683 34.069C16.9676 34.8596 17.6852 35.6809 18.7428 35.7706C18.9363 36.9246 20.6312 37.0214 21.4598 36.7571C22.1514 37.3494 24.5568 37.1842 25.7371 35.0414L16.8519 29.4246Z" fill="#EBD9BE"/>
<path d="M19.7179 32.2093C19.7262 32.2096 19.7344 32.2082 19.7421 32.2053C19.7498 32.2024 19.7569 32.1979 19.7628 32.1922C19.7688 32.1864 19.7735 32.1796 19.7767 32.172C19.78 32.1644 19.7816 32.1562 19.7816 32.1479C19.7823 32.1314 19.7765 32.1153 19.7655 32.1029C19.7545 32.0906 19.7391 32.083 19.7226 32.0818L16.5642 31.9261C16.5477 31.9254 16.5315 31.9312 16.5192 31.9422C16.5069 31.9532 16.4993 31.9686 16.4981 31.9851C16.4974 32.0022 16.5035 32.0189 16.5149 32.0317C16.5264 32.0445 16.5424 32.0523 16.5595 32.0535L19.7155 32.2093H19.7179Z" fill="#CFB58F"/>
<path d="M17.3289 34.1492H17.3478L20.6526 33.2524C20.6688 33.2479 20.6827 33.2373 20.6911 33.2227C20.6995 33.2081 20.7018 33.1908 20.6974 33.1745C20.6925 33.1581 20.6813 33.1442 20.6664 33.1358C20.6514 33.1275 20.6337 33.1253 20.6172 33.1297L17.3124 34.0265C17.2961 34.0309 17.2823 34.0415 17.2739 34.0561C17.2655 34.0707 17.2632 34.0881 17.2675 34.1043C17.2722 34.117 17.2805 34.1281 17.2914 34.1361C17.3023 34.144 17.3154 34.1486 17.3289 34.1492Z" fill="#CFB58F"/>
<path d="M18.8964 35.7658C18.9065 35.7682 18.917 35.7682 18.9271 35.7658L21.6228 34.2672C21.6347 34.2574 21.6427 34.2436 21.6455 34.2284C21.6483 34.2132 21.6457 34.1975 21.6381 34.1841C21.6306 34.1706 21.6185 34.1602 21.6041 34.1547C21.5896 34.1492 21.5737 34.149 21.5591 34.154L18.8657 35.636C18.8584 35.6402 18.852 35.6458 18.8468 35.6524C18.8417 35.6591 18.8379 35.6667 18.8357 35.6748C18.8335 35.6829 18.8329 35.6914 18.834 35.6997C18.8351 35.708 18.8379 35.7161 18.8421 35.7234C18.8455 35.7352 18.8526 35.7457 18.8624 35.7534C18.8721 35.761 18.884 35.7653 18.8964 35.7658Z" fill="#CFB58F"/>
<path d="M21.6747 36.7523C21.6854 36.7523 21.6959 36.7497 21.7053 36.7448C21.7148 36.7399 21.7229 36.7327 21.729 36.724L22.9093 34.8761C22.9159 34.8621 22.9172 34.8462 22.9129 34.8314C22.9087 34.8165 22.8992 34.8037 22.8862 34.7953C22.8732 34.7869 22.8576 34.7836 22.8423 34.7858C22.827 34.7881 22.8131 34.7959 22.8031 34.8076L21.6228 36.6532C21.618 36.6602 21.6147 36.6682 21.613 36.6766C21.6114 36.685 21.6114 36.6936 21.6132 36.702C21.6149 36.7104 21.6184 36.7183 21.6233 36.7253C21.6282 36.7323 21.6344 36.7383 21.6417 36.7428C21.6516 36.7488 21.663 36.7521 21.6747 36.7523Z" fill="#CFB58F"/>
<path d="M20.3008 39.3647L13.6913 41.9088C13.5553 41.9628 13.4394 42.0577 13.3595 42.1802C13.2796 42.3028 13.2397 42.447 13.2451 42.5932C13.2511 42.8746 13.325 43.1503 13.4607 43.3969C13.5963 43.6434 13.7896 43.8535 14.0241 44.0092C14.0902 45.1326 14.6827 45.6258 15.0651 45.6612C15.1973 46.2866 15.6576 46.9946 16.3776 46.9215C16.4906 47.2556 16.7314 47.5313 17.0473 47.6883C17.3631 47.8454 17.7284 47.8709 18.063 47.7593C18.2991 48.2313 19.0757 48.3139 19.6304 48.1675C19.738 48.1372 19.8369 48.0818 19.9189 48.0059C20.001 47.93 20.0639 47.8358 20.1026 47.7309L23.0438 39.6692L20.3008 39.3647Z" fill="white"/>
<path d="M21.036 39.3978L13.979 43.9639L14.0483 44.0709L21.1053 39.5048L21.036 39.3978Z" fill="#CFB58F"/>
<path d="M15.103 45.7061L21.6394 39.5536L21.5497 39.4592L15.0156 45.6141L15.103 45.7061Z" fill="#CFB58F"/>
<path d="M16.4225 46.9592L22.069 39.5913L21.9675 39.5134L16.321 46.8813L16.4225 46.9592Z" fill="#CFB58F"/>
<path d="M18.1126 47.7877L22.5245 39.6339L22.4112 39.5725L17.9993 47.7263L18.1126 47.7877Z" fill="#CFB58F"/>
<path d="M20.5959 39.5559C20.5959 39.5559 21.002 40.2002 22.5198 41.1159L23.0486 39.6668L20.5959 39.5559Z" fill="#CFB58F"/>
<path d="M25.8245 33.7007L20.3008 39.3788C20.3008 39.3788 24.1768 41.517 26.7569 38.5222C28.7658 36.1952 25.8127 33.7007 25.8127 33.7007" fill="white"/>
<path d="M25.6427 35.197H24.3775L20.3008 39.3789C20.8239 39.6453 21.3793 39.8429 21.9532 39.9666C22.1586 39.8223 22.3464 39.6544 22.5126 39.4663C23.5466 39.622 25.7867 37.9983 25.6356 35.197" fill="#EBD9BE"/>
<path d="M27.8381 33.6205C27.8016 33.945 27.6698 34.2515 27.4591 34.5011C27.2485 34.7507 26.9686 34.9323 26.6548 35.023C26.341 35.1137 26.0074 35.1093 25.696 35.0105C25.3847 34.9116 25.1096 34.7228 24.9056 34.4677C24.7016 34.2127 24.5778 33.9029 24.5498 33.5775C24.5218 33.2522 24.5909 32.9258 24.7483 32.6397C24.9058 32.3535 25.1445 32.1205 25.4344 31.9699C25.7243 31.8194 26.0523 31.7581 26.377 31.7939C26.593 31.8176 26.8022 31.8838 26.9926 31.9885C27.183 32.0932 27.3508 32.2345 27.4866 32.4041C27.6223 32.5738 27.7232 32.7686 27.7835 32.9773C27.8439 33.186 27.8624 33.4046 27.8381 33.6205Z" fill="white"/>
<path d="M27.7414 32.8582L29.212 33.021L27.8382 33.6204C27.8382 33.6204 27.3354 33.4434 27.7414 32.8582Z" fill="#EBC386"/>
<path d="M26.9316 33.0967C26.9242 33.1606 26.8981 33.2209 26.8564 33.27C26.8148 33.319 26.7596 33.3547 26.6977 33.3724C26.6359 33.3901 26.5701 33.3891 26.5088 33.3696C26.4475 33.35 26.3934 33.3127 26.3533 33.2624C26.3132 33.2121 26.2888 33.151 26.2834 33.0869C26.2779 33.0228 26.2916 32.9585 26.3227 32.9022C26.3537 32.8458 26.4008 32.7999 26.4579 32.7703C26.515 32.7406 26.5796 32.7286 26.6436 32.7356C26.6863 32.7403 26.7276 32.7534 26.7652 32.7741C26.8028 32.7948 26.8359 32.8227 26.8627 32.8563C26.8894 32.8898 26.9093 32.9283 26.9211 32.9696C26.933 33.0109 26.9365 33.054 26.9316 33.0967Z" fill="#394A4D"/>
<path d="M13.6748 33.696C13.6748 33.696 12.9241 35.4873 14.4467 36.5611C14.2484 37.7411 15.1265 38.6001 16.269 38.3641C16.4437 39.2845 17.591 39.7801 18.7335 39.3648C19.4983 40.4692 21.3041 39.7447 22.0382 39.065C23.0462 39.3435 25.4634 37.9983 25.6452 35.197L13.6748 33.696Z" fill="white"/>
<path d="M14.6354 36.5659H14.6591L18.0134 35.1877C18.0213 35.1848 18.0286 35.1804 18.0348 35.1746C18.0409 35.1688 18.0458 35.1618 18.0491 35.1541C18.0524 35.1463 18.0541 35.138 18.0541 35.1296C18.054 35.1211 18.0522 35.1128 18.0488 35.1051C18.0425 35.0895 18.0303 35.077 18.0148 35.0703C17.9993 35.0637 17.9819 35.0635 17.9662 35.0697L14.6095 36.4479C14.5939 36.4542 14.5814 36.4664 14.5747 36.4819C14.5681 36.4974 14.5679 36.5149 14.5741 36.5305C14.5799 36.5416 14.5887 36.5509 14.5996 36.5571C14.6105 36.5634 14.6229 36.5664 14.6354 36.5659Z" fill="#EBD9BE"/>
<path d="M16.4436 38.3689C16.4515 38.3692 16.4593 38.3679 16.4666 38.3651C16.4739 38.3622 16.4806 38.3579 16.4861 38.3524L19.4746 35.813C19.4815 35.8078 19.4873 35.8012 19.4916 35.7936C19.4959 35.7861 19.4986 35.7777 19.4995 35.7691C19.5004 35.7604 19.4996 35.7517 19.497 35.7434C19.4945 35.7351 19.4902 35.7274 19.4846 35.7208C19.479 35.7142 19.472 35.7089 19.4642 35.705C19.4564 35.7012 19.448 35.699 19.4393 35.6986C19.4306 35.6981 19.4219 35.6995 19.4138 35.7025C19.4057 35.7056 19.3982 35.7102 19.392 35.7162L16.4035 38.2556C16.3974 38.2614 16.3925 38.2683 16.3891 38.276C16.3858 38.2837 16.384 38.292 16.384 38.3004C16.384 38.3089 16.3858 38.3172 16.3891 38.3249C16.3925 38.3326 16.3974 38.3395 16.4035 38.3453C16.4082 38.3517 16.4143 38.3572 16.4211 38.3612C16.428 38.3653 16.4357 38.3679 16.4436 38.3689Z" fill="#EBD9BE"/>
<path d="M18.8609 39.2845C18.8711 39.2841 18.8812 39.2813 18.8902 39.2764C18.8992 39.2715 18.9069 39.2646 18.9128 39.2561L20.9783 36.3864C20.9832 36.3796 20.9868 36.3718 20.9888 36.3636C20.9908 36.3554 20.9911 36.3469 20.9898 36.3386C20.9885 36.3303 20.9855 36.3223 20.9811 36.3151C20.9767 36.3079 20.9709 36.3017 20.9641 36.2967C20.9573 36.2917 20.9496 36.2882 20.9414 36.2862C20.9332 36.2842 20.9247 36.2839 20.9163 36.2852C20.908 36.2865 20.9 36.2895 20.8928 36.2939C20.8856 36.2983 20.8794 36.304 20.8744 36.3109L18.8089 39.1759C18.804 39.1825 18.8004 39.19 18.7984 39.1981C18.7964 39.2061 18.7961 39.2144 18.7974 39.2226C18.7987 39.2307 18.8017 39.2385 18.8061 39.2455C18.8105 39.2525 18.8163 39.2585 18.8231 39.2632C18.8325 39.2748 18.846 39.2824 18.8609 39.2845Z" fill="#EBD9BE"/>
<path d="M22.2271 38.9517C22.2424 38.9524 22.2573 38.9471 22.2688 38.937C22.2802 38.9268 22.2873 38.9127 22.2885 38.8974L22.626 36.3982C22.6282 36.3813 22.6236 36.3642 22.6132 36.3507C22.6028 36.3372 22.5875 36.3284 22.5706 36.3262C22.5537 36.324 22.5366 36.3286 22.5231 36.339C22.5096 36.3494 22.5008 36.3648 22.4986 36.3817L22.1634 38.8809C22.1621 38.8892 22.1624 38.8976 22.1645 38.9057C22.1665 38.9138 22.1702 38.9214 22.1753 38.928C22.1803 38.9346 22.1867 38.9402 22.194 38.9442C22.2013 38.9483 22.2094 38.9509 22.2177 38.9517H22.2271Z" fill="#EBD9BE"/>
<path d="M14.5647 50.9761C14.5311 50.976 14.4978 50.9712 14.4655 50.9619C14.3828 50.9348 14.314 50.8764 14.2739 50.7992C14.2337 50.722 14.2254 50.6321 14.2507 50.5489C14.3994 50.0769 14.5552 49.6592 14.7228 49.2839C14.7397 49.2443 14.7643 49.2083 14.7951 49.1781C14.8259 49.1479 14.8623 49.1241 14.9023 49.108C14.9423 49.0919 14.9851 49.0838 15.0282 49.0842C15.0713 49.0847 15.114 49.0936 15.1536 49.1105C15.1933 49.1274 15.2293 49.1519 15.2595 49.1827C15.2897 49.2135 15.3135 49.2499 15.3296 49.2899C15.3457 49.3299 15.3538 49.3727 15.3534 49.4158C15.3529 49.4589 15.344 49.5015 15.3271 49.5412C15.1784 49.8952 15.0297 50.3035 14.8881 50.7471C14.8665 50.8153 14.8232 50.8746 14.7648 50.9159C14.7065 50.9572 14.6362 50.9784 14.5647 50.9761Z" fill="white"/>
<path d="M25.6357 104.213C25.5748 104.213 25.5152 104.195 25.4634 104.163C24.7062 103.694 23.9814 103.175 23.294 102.608C23.2267 102.553 23.1842 102.473 23.1758 102.386C23.1674 102.299 23.1938 102.213 23.2492 102.145C23.3046 102.078 23.3845 102.036 23.4712 102.027C23.558 102.019 23.6446 102.045 23.7119 102.101C24.3768 102.648 25.0779 103.151 25.8104 103.604C25.8722 103.641 25.9199 103.698 25.9463 103.765C25.9727 103.832 25.9762 103.906 25.9563 103.975C25.9364 104.045 25.8942 104.105 25.8363 104.148C25.7783 104.191 25.7078 104.214 25.6357 104.213ZM21.5944 100.881C21.5499 100.88 21.5059 100.87 21.4653 100.852C21.4247 100.834 21.3883 100.807 21.3584 100.774C20.7532 100.123 20.1909 99.4334 19.6753 98.7093C19.6502 98.6743 19.6322 98.6347 19.6224 98.5927C19.6126 98.5508 19.6112 98.5073 19.6182 98.4648C19.6252 98.4222 19.6406 98.3815 19.6633 98.3449C19.6861 98.3083 19.7158 98.2766 19.7508 98.2515C19.7859 98.2264 19.8255 98.2084 19.8675 98.1986C19.9094 98.1888 19.9529 98.1874 19.9955 98.1944C20.038 98.2014 20.0787 98.2167 20.1153 98.2395C20.1519 98.2622 20.1837 98.292 20.2088 98.327C20.7105 99.0273 21.2552 99.6956 21.8399 100.328C21.8835 100.375 21.9125 100.433 21.9236 100.496C21.9346 100.558 21.9272 100.623 21.9022 100.681C21.8771 100.74 21.8356 100.79 21.7826 100.825C21.7297 100.861 21.6676 100.88 21.6039 100.881H21.5944ZM18.5257 96.6325C18.4669 96.6324 18.4093 96.6165 18.3586 96.5867C18.308 96.5568 18.2663 96.514 18.2377 96.4626C17.8097 95.6849 17.4243 94.8845 17.0834 94.0648C17.0664 94.0252 17.0574 93.9826 17.057 93.9395C17.0565 93.8963 17.0647 93.8535 17.0809 93.8136C17.0972 93.7736 17.1212 93.7373 17.1516 93.7067C17.182 93.6761 17.2182 93.6518 17.2581 93.6353C17.3389 93.6016 17.4297 93.6013 17.5107 93.6345C17.5917 93.6677 17.6562 93.7316 17.6901 93.8123C18.0232 94.6088 18.3982 95.3872 18.8137 96.144C18.8561 96.2204 18.8664 96.3105 18.8425 96.3945C18.8187 96.4785 18.7625 96.5497 18.6862 96.5924C18.6396 96.6139 18.5889 96.6252 18.5375 96.6254L18.5257 96.6325ZM16.4933 91.7969C16.4227 91.7959 16.3542 91.7725 16.2978 91.7301C16.2413 91.6877 16.1998 91.6284 16.1793 91.5609C15.9244 90.7278 15.7072 89.8617 15.5184 88.9885C15.5095 88.9462 15.5091 88.9025 15.5171 88.8601C15.5252 88.8176 15.5415 88.7772 15.5652 88.741C15.5888 88.7048 15.6194 88.6737 15.6551 88.6493C15.6908 88.625 15.731 88.6079 15.7733 88.5991C15.8156 88.5903 15.8593 88.5898 15.9017 88.5979C15.9442 88.6059 15.9847 88.6222 16.0208 88.6459C16.057 88.6695 16.0882 88.7001 16.1125 88.7358C16.1369 88.7715 16.154 88.8117 16.1628 88.854C16.3398 89.7083 16.5594 90.5532 16.8096 91.3697C16.8248 91.419 16.8282 91.4712 16.8194 91.5221C16.8107 91.5729 16.7901 91.621 16.7593 91.6624C16.7284 91.7038 16.6883 91.7373 16.6421 91.7603C16.5959 91.7832 16.5449 91.795 16.4933 91.7945V91.7969ZM15.4121 86.6615C15.3363 86.6562 15.2645 86.6249 15.2091 86.5729C15.1536 86.5209 15.1178 86.4513 15.1076 86.376C15.0014 85.5028 14.9329 84.6107 14.8999 83.7304C14.8967 83.6432 14.9282 83.5582 14.9874 83.4941C15.0467 83.4299 15.129 83.3919 15.2162 83.3882C15.2594 83.3863 15.3025 83.393 15.343 83.4079C15.3836 83.4229 15.4208 83.4457 15.4524 83.4751C15.484 83.5046 15.5095 83.54 15.5273 83.5794C15.5451 83.6187 15.5549 83.6613 15.5561 83.7044C15.5892 84.5682 15.6576 85.4414 15.7615 86.3004C15.7668 86.3434 15.7635 86.387 15.7518 86.4286C15.7402 86.4703 15.7204 86.5093 15.6936 86.5433C15.6669 86.5773 15.6336 86.6056 15.5959 86.6267C15.5581 86.6478 15.5165 86.6613 15.4735 86.6662L15.4121 86.6615ZM15.2209 81.4129H15.2068C15.1635 81.4111 15.1209 81.4007 15.0817 81.3824C15.0424 81.364 15.0071 81.3381 14.9779 81.306C14.9487 81.274 14.9262 81.2365 14.9116 81.1957C14.897 81.1549 14.8906 81.1116 14.8928 81.0683C14.9353 80.1739 15.0179 79.2842 15.1289 78.4228C15.1417 78.3368 15.1877 78.2594 15.257 78.2069C15.3262 78.1544 15.4133 78.1311 15.4995 78.1419C15.5425 78.1477 15.584 78.162 15.6215 78.1839C15.659 78.2058 15.6917 78.235 15.7179 78.2697C15.744 78.3044 15.763 78.3439 15.7737 78.386C15.7844 78.4281 15.7867 78.4718 15.7804 78.5148C15.6624 79.355 15.5821 80.2258 15.5443 81.1108C15.5365 81.1892 15.5007 81.2621 15.4435 81.3163C15.3862 81.3705 15.3114 81.4022 15.2327 81.4058L15.2209 81.4129ZM15.9598 76.2209C15.9331 76.2243 15.9062 76.2243 15.8795 76.2209C15.7957 76.1987 15.724 76.1444 15.6798 76.0698C15.6357 75.9952 15.6226 75.9062 15.6435 75.822C15.8555 74.9572 16.1244 74.1074 16.4484 73.278C16.4691 73.2282 16.5012 73.1841 16.5423 73.1492C16.5833 73.1143 16.632 73.0897 16.6845 73.0774C16.6942 73.063 16.7052 73.0495 16.7175 73.0372C16.7472 73.0047 16.783 72.9785 16.823 72.96C16.8629 72.9416 16.9061 72.9313 16.9501 72.9297C16.9941 72.9282 17.0379 72.9354 17.0791 72.9511C17.1202 72.9667 17.1578 72.9904 17.1896 73.0207C17.8003 73.5823 18.5071 74.0292 19.2764 74.34C19.3164 74.3564 19.3527 74.3805 19.3834 74.411C19.414 74.4415 19.4384 74.4777 19.455 74.5176C19.4717 74.5575 19.4803 74.6002 19.4805 74.6435C19.4806 74.6867 19.4722 74.7295 19.4558 74.7695C19.4393 74.8095 19.4152 74.8458 19.3847 74.8765C19.3542 74.9071 19.318 74.9315 19.2781 74.9481C19.2382 74.9648 19.1954 74.9734 19.1522 74.9735C19.109 74.9737 19.0661 74.9653 19.0262 74.9488C18.2844 74.6425 17.5959 74.2203 16.9866 73.698C16.7086 74.437 16.4753 75.192 16.2879 75.9589C16.2706 76.0299 16.23 76.093 16.1727 76.1383C16.1154 76.1836 16.0446 76.2085 15.9716 76.2091L15.9598 76.2209ZM22.2908 75.5837H22.1445C21.9839 75.5837 21.8234 75.5837 21.6723 75.5648C21.5853 75.5592 21.5041 75.5192 21.4465 75.4537C21.389 75.3882 21.3598 75.3025 21.3655 75.2155C21.3711 75.1285 21.4111 75.0473 21.4766 74.9898C21.5421 74.9322 21.6278 74.9031 21.7148 74.9087C21.8612 74.9087 22.0099 74.9229 22.161 74.9252C22.8464 74.9503 23.5309 74.8561 24.184 74.6468C24.2249 74.633 24.2681 74.6274 24.3112 74.6303C24.3543 74.6332 24.3964 74.6446 24.4351 74.6637C24.4738 74.6829 24.5083 74.7095 24.5367 74.742C24.5651 74.7746 24.5868 74.8124 24.6006 74.8533C24.6144 74.8942 24.62 74.9374 24.6171 74.9805C24.6142 75.0235 24.6028 75.0656 24.5836 75.1043C24.5645 75.143 24.5378 75.1775 24.5053 75.2059C24.4728 75.2343 24.435 75.256 24.3941 75.2698C23.7178 75.4829 23.0115 75.5849 22.3026 75.5719L22.2908 75.5837ZM26.2754 73.6768C26.2227 73.6769 26.1708 73.6639 26.1244 73.639C26.0471 73.5992 25.9888 73.5304 25.9622 73.4477C25.9357 73.3649 25.9431 73.275 25.9827 73.1977C26.17 72.8326 26.2671 72.428 26.266 72.0177C26.2651 71.6456 26.193 71.2771 26.0535 70.9321C26.0371 70.892 26.0289 70.8491 26.0293 70.8058C26.0297 70.7625 26.0387 70.7197 26.0559 70.6799C26.073 70.6401 26.0979 70.6041 26.1291 70.5741C26.1604 70.5441 26.1973 70.5206 26.2377 70.505C26.3188 70.4731 26.4092 70.4746 26.4892 70.5091C26.5692 70.5436 26.6324 70.6082 26.6649 70.689C26.8353 71.1114 26.9234 71.5623 26.9246 72.0177C26.9268 72.5355 26.8046 73.0462 26.5681 73.5069C26.5386 73.5549 26.4972 73.5946 26.4481 73.6222C26.399 73.6499 26.3436 73.6646 26.2872 73.665L26.2754 73.6768ZM15.3437 71.508C15.2863 71.5079 15.23 71.4929 15.1803 71.4643C15.1306 71.4357 15.0893 71.3946 15.0604 71.3451C14.6122 70.5662 14.2422 69.7448 13.9557 68.8931C13.9285 68.8104 13.9348 68.7204 13.9731 68.6424C14.0115 68.5643 14.079 68.5043 14.161 68.4754C14.2019 68.4613 14.2452 68.4554 14.2884 68.4581C14.3316 68.4608 14.3738 68.472 14.4127 68.4911C14.4515 68.5102 14.4862 68.5368 14.5147 68.5693C14.5432 68.6018 14.565 68.6397 14.5789 68.6807C14.8499 69.4908 15.201 70.2719 15.6269 71.0124C15.649 71.0493 15.6636 71.0903 15.6697 71.1329C15.6758 71.1756 15.6735 71.219 15.6627 71.2607C15.652 71.3024 15.633 71.3416 15.607 71.3759C15.581 71.4102 15.5485 71.4391 15.5113 71.4608C15.4605 71.4908 15.4027 71.507 15.3437 71.508ZM17.9403 71.3569C17.8775 71.3573 17.8159 71.3393 17.7633 71.305C17.6899 71.2576 17.6382 71.1831 17.6196 71.0977C17.6011 71.0124 17.6171 70.9231 17.6641 70.8495C18.1477 70.0705 18.7664 69.384 19.4912 68.8223C19.561 68.7703 19.6486 68.7482 19.7347 68.7608C19.8208 68.7735 19.8983 68.8198 19.9503 68.8895C20.0023 68.9593 20.0244 69.0469 20.0118 69.133C19.9991 69.2191 19.9528 69.2966 19.883 69.3486C19.2229 69.8652 18.6588 70.4939 18.2165 71.2059C18.1879 71.2535 18.1474 71.2929 18.099 71.3202C18.0506 71.3475 17.9959 71.3618 17.9403 71.3616V71.3569ZM24.6443 69.1975C24.588 69.1971 24.5328 69.1825 24.4838 69.155C23.7586 68.7652 22.9465 68.5655 22.1232 68.5745C22.0407 68.5675 21.9638 68.5298 21.9078 68.4688C21.8517 68.4078 21.8206 68.3281 21.8206 68.2453C21.8206 68.1625 21.8517 68.0827 21.9078 68.0217C21.9638 67.9607 22.0407 67.923 22.1232 67.916C23.0592 67.9058 23.9823 68.1349 24.8048 68.5816C24.869 68.6166 24.9197 68.6721 24.9488 68.7393C24.9778 68.8065 24.9836 68.8814 24.9651 68.9522C24.9467 69.023 24.9051 69.0856 24.8469 69.1301C24.7888 69.1745 24.7175 69.1983 24.6443 69.1975ZM13.5969 66.5732C13.5224 66.5728 13.4504 66.5471 13.3924 66.5004C13.3345 66.4537 13.2942 66.3886 13.2782 66.316C13.1126 65.444 12.992 64.5642 12.917 63.6798C12.9125 63.6362 12.9167 63.592 12.9296 63.5501C12.9424 63.5081 12.9635 63.4691 12.9917 63.4354C13.0199 63.4017 13.0545 63.3741 13.0936 63.354C13.1327 63.334 13.1754 63.322 13.2192 63.3188C13.3058 63.3115 13.3917 63.3387 13.4584 63.3943C13.5251 63.45 13.5672 63.5297 13.5756 63.6161C13.6495 64.4782 13.7669 65.3359 13.9273 66.1862C13.944 66.2719 13.926 66.3607 13.8774 66.4333C13.8287 66.5058 13.7533 66.5561 13.6677 66.5732H13.5969ZM13.1247 61.3434C13.0377 61.3434 12.9543 61.3089 12.8927 61.2474C12.8312 61.1858 12.7966 61.1024 12.7966 61.0154V60.8408C12.7966 60.0313 12.825 59.2006 12.8793 58.3675C12.8849 58.2805 12.9249 58.1993 12.9904 58.1417C13.0559 58.0842 13.1416 58.0551 13.2286 58.0607C13.3156 58.0663 13.3969 58.1063 13.4544 58.1718C13.512 58.2373 13.5411 58.323 13.5355 58.41C13.4812 59.2289 13.4529 60.0454 13.4529 60.8408V61.013C13.4529 61.1003 13.4184 61.1839 13.3569 61.2458C13.2954 61.3077 13.212 61.3428 13.1247 61.3434ZM13.467 56.1042H13.4222C13.3795 56.0987 13.3383 56.0848 13.301 56.0633C13.2637 56.0417 13.231 56.013 13.2049 55.9788C13.1788 55.9445 13.1597 55.9055 13.1488 55.8638C13.1378 55.8221 13.1353 55.7787 13.1413 55.7361C13.2593 54.8369 13.4104 53.9566 13.5827 53.1212C13.6005 53.0358 13.6516 52.9609 13.7246 52.9131C13.7977 52.8653 13.8867 52.8485 13.9722 52.8663C14.0576 52.8842 14.1325 52.9352 14.1803 53.0082C14.2281 53.0813 14.245 53.1703 14.2271 53.2557C14.0572 54.0746 13.9108 54.9384 13.7928 55.8234C13.782 55.9018 13.7435 55.9738 13.6841 56.0262C13.6248 56.0786 13.5486 56.108 13.4694 56.109L13.467 56.1042Z" fill="white"/>
<path d="M29.2119 105.964C29.1723 105.964 29.1331 105.957 29.0962 105.943C28.6808 105.789 28.2629 105.617 27.8593 105.438C27.7854 105.398 27.7293 105.332 27.7022 105.253C27.6751 105.174 27.679 105.088 27.7131 105.011C27.7473 104.935 27.8091 104.874 27.8862 104.842C27.9632 104.809 28.0498 104.807 28.1284 104.836C28.5202 105.01 28.9239 105.178 29.3252 105.327C29.4071 105.357 29.4736 105.419 29.5098 105.499C29.5461 105.579 29.5493 105.669 29.5188 105.751C29.4952 105.814 29.4533 105.868 29.3985 105.906C29.3436 105.943 29.2786 105.964 29.2119 105.964Z" fill="white"/>
<path d="M79.6289 102.766C78.7626 102.74 77.8726 102.681 76.9803 102.589C76.9375 102.585 76.8959 102.572 76.8579 102.552C76.8199 102.532 76.7864 102.504 76.7591 102.471C76.7319 102.437 76.7116 102.399 76.6993 102.358C76.687 102.317 76.6831 102.273 76.6876 102.23C76.6966 102.144 76.7396 102.064 76.8073 102.008C76.875 101.953 76.9618 101.927 77.0488 101.935C77.9246 102.025 78.798 102.084 79.6454 102.108C79.7279 102.115 79.8048 102.152 79.8609 102.213C79.9169 102.274 79.948 102.354 79.948 102.437C79.948 102.52 79.9169 102.6 79.8609 102.66C79.8048 102.721 79.7279 102.759 79.6454 102.766H79.6289ZM82.2586 102.733C82.1715 102.735 82.0872 102.703 82.0241 102.643C81.961 102.583 81.9244 102.5 81.9222 102.413C81.92 102.326 81.9524 102.242 82.0124 102.179C82.0724 102.116 82.155 102.079 82.242 102.077C83.1178 102.03 83.9865 101.945 84.8386 101.822C84.925 101.81 85.0129 101.832 85.0828 101.884C85.1528 101.936 85.1991 102.014 85.2116 102.101C85.2241 102.187 85.2018 102.275 85.1496 102.345C85.0973 102.415 85.0195 102.461 84.9331 102.474C84.0738 102.599 83.1839 102.686 82.2869 102.733H82.2586ZM87.4518 101.976C87.3782 101.976 87.3067 101.951 87.2488 101.906C87.1909 101.861 87.1502 101.797 87.1331 101.725C87.1116 101.641 87.1244 101.552 87.1686 101.477C87.2129 101.402 87.285 101.348 87.3692 101.327C88.2089 101.121 89.0371 100.87 89.8501 100.576C89.9321 100.546 90.0226 100.55 90.1016 100.587C90.1806 100.624 90.2417 100.691 90.2715 100.773C90.3012 100.855 90.2972 100.946 90.2602 101.025C90.2232 101.104 90.1564 101.165 90.0744 101.194C89.2385 101.496 88.3875 101.753 87.525 101.966C87.5018 101.972 87.4781 101.975 87.4542 101.976H87.4518ZM92.3854 100.182C92.3241 100.182 92.2638 100.166 92.2116 100.134C92.1594 100.101 92.1174 100.055 92.0903 100C92.0518 99.922 92.0458 99.8316 92.0737 99.7489C92.1015 99.6663 92.161 99.5979 92.239 99.5589C93.0125 99.1752 93.7629 98.7465 94.4863 98.2751C94.5224 98.2471 94.5639 98.2269 94.6083 98.2158C94.6526 98.2047 94.6988 98.2029 94.7439 98.2105C94.7889 98.2181 94.8319 98.235 94.8701 98.2601C94.9083 98.2852 94.9409 98.318 94.9658 98.3563C94.9907 98.3946 95.0074 98.4377 95.0148 98.4828C95.0222 98.5279 95.0201 98.574 95.0088 98.6183C94.9974 98.6625 94.977 98.704 94.9489 98.74C94.9207 98.7759 94.8853 98.8057 94.8451 98.8273C94.0994 99.3123 93.3262 99.7536 92.5294 100.149C92.485 100.17 92.4367 100.181 92.3877 100.182H92.3854ZM96.7831 97.3146C96.7153 97.3152 96.649 97.2948 96.5933 97.2563C96.5376 97.2177 96.4952 97.1629 96.4719 97.0992C96.4486 97.0356 96.4456 96.9664 96.4633 96.901C96.481 96.8356 96.5185 96.7772 96.5706 96.734C97.2353 96.1785 97.8659 95.5835 98.4591 94.9522C98.4867 94.9148 98.522 94.8836 98.5625 94.8609C98.6031 94.8381 98.648 94.8243 98.6944 94.8202C98.7407 94.8161 98.7874 94.8219 98.8313 94.8373C98.8752 94.8526 98.9154 94.8771 98.9491 94.9091C98.9828 94.9412 99.0094 94.98 99.0269 95.0231C99.0445 95.0661 99.0527 95.1124 99.051 95.1589C99.0493 95.2054 99.0378 95.251 99.0171 95.2926C98.9964 95.3343 98.9672 95.3711 98.9312 95.4006C98.3245 96.052 97.6781 96.6652 96.9955 97.2367C96.9363 97.2872 96.8609 97.3148 96.7831 97.3146ZM100.362 93.4796C100.292 93.4797 100.224 93.4574 100.168 93.4158C100.098 93.3644 100.05 93.2871 100.037 93.2008C100.023 93.1146 100.044 93.0264 100.095 92.9556C100.604 92.2579 101.07 91.5305 101.492 90.7774C101.535 90.7013 101.607 90.6454 101.691 90.622C101.775 90.5985 101.865 90.6094 101.941 90.6523C102.017 90.6952 102.073 90.7665 102.096 90.8506C102.12 90.9347 102.109 91.0246 102.066 91.1007C101.631 91.8761 101.15 92.6248 100.626 93.3427C100.596 93.3853 100.556 93.4201 100.51 93.4439C100.463 93.4677 100.412 93.48 100.359 93.4796H100.362ZM102.921 88.9059C102.867 88.9053 102.814 88.8915 102.766 88.8657C102.719 88.84 102.679 88.803 102.649 88.7581C102.619 88.7132 102.601 88.6617 102.595 88.608C102.59 88.5544 102.598 88.5003 102.618 88.4504C102.952 87.6523 103.239 86.836 103.48 86.0054C103.509 85.9277 103.567 85.864 103.642 85.8269C103.716 85.7898 103.802 85.7822 103.881 85.8054C103.961 85.8286 104.029 85.881 104.072 85.9522C104.115 86.0234 104.129 86.1081 104.113 86.1895C103.864 87.0431 103.567 87.8822 103.225 88.7029C103.2 88.763 103.158 88.8143 103.103 88.8504C103.049 88.8865 102.986 88.9058 102.921 88.9059ZM104.394 83.8649H104.337C104.294 83.8578 104.253 83.8423 104.217 83.8192C104.18 83.7962 104.149 83.7662 104.124 83.7308C104.099 83.6954 104.082 83.6555 104.072 83.6133C104.063 83.5711 104.062 83.5275 104.07 83.485C104.219 82.632 104.323 81.7717 104.382 80.9078C104.384 80.8647 104.395 80.8225 104.414 80.7837C104.433 80.7449 104.46 80.7103 104.492 80.6819C104.525 80.6535 104.563 80.632 104.604 80.6185C104.645 80.605 104.688 80.5999 104.731 80.6034C104.774 80.6052 104.817 80.6156 104.856 80.6339C104.895 80.6523 104.931 80.6782 104.96 80.7102C104.989 80.7423 105.012 80.7798 105.026 80.8206C105.041 80.8614 105.047 80.9047 105.045 80.948C104.986 81.8349 104.879 82.7181 104.724 83.5935C104.71 83.6694 104.67 83.738 104.611 83.7876C104.552 83.8372 104.478 83.8645 104.401 83.8649H104.394ZM104.75 78.6234C104.665 78.6228 104.584 78.5897 104.523 78.5308C104.462 78.472 104.425 78.3919 104.422 78.3071C104.388 77.4383 104.309 76.5718 104.186 75.7111C104.174 75.6247 104.197 75.5372 104.25 75.4677C104.302 75.3982 104.38 75.3525 104.467 75.3406C104.553 75.3287 104.641 75.3516 104.71 75.4043C104.78 75.457 104.825 75.5351 104.837 75.6214C104.961 76.5011 105.039 77.3865 105.073 78.2741C105.076 78.3613 105.044 78.446 104.984 78.5097C104.924 78.5734 104.842 78.6108 104.755 78.6139L104.75 78.6234ZM104.025 73.4314C103.952 73.4313 103.88 73.4067 103.823 73.3613C103.765 73.316 103.724 73.2525 103.707 73.1812C103.504 72.3458 103.253 71.508 102.968 70.6914C102.939 70.6091 102.944 70.5187 102.982 70.4402C103.02 70.3616 103.087 70.3013 103.17 70.2725C103.252 70.2437 103.342 70.2488 103.421 70.2866C103.499 70.3245 103.56 70.392 103.589 70.4743C103.881 71.3097 104.136 72.1688 104.346 73.0254C104.367 73.1093 104.354 73.198 104.31 73.2722C104.266 73.3464 104.194 73.4002 104.11 73.4219C104.084 73.4252 104.058 73.4252 104.032 73.4219L104.025 73.4314ZM102.283 68.4754C102.221 68.4752 102.159 68.4571 102.107 68.4233C102.054 68.3894 102.012 68.3411 101.986 68.2842C101.622 67.5054 101.214 66.7337 100.775 65.9856C100.731 65.9105 100.718 65.8209 100.74 65.7366C100.762 65.6523 100.817 65.5801 100.892 65.536C100.967 65.4919 101.056 65.4794 101.141 65.5013C101.225 65.5232 101.297 65.5777 101.341 65.6528C101.792 66.4174 102.21 67.2104 102.581 68.0128C102.599 68.0518 102.61 68.0941 102.612 68.1373C102.614 68.1804 102.608 68.2236 102.593 68.2642C102.578 68.3049 102.556 68.3422 102.526 68.374C102.497 68.4057 102.462 68.4314 102.422 68.4494C102.38 68.4648 102.335 68.4712 102.29 68.4683L102.283 68.4754Z" fill="white"/>
</g>
</svg>
