<svg width="64" height="64" viewBox="0 0 64 64" fill="none" xmlns="http://www.w3.org/2000/svg">
<path d="M32 64C49.6731 64 64 49.6731 64 32C64 14.3269 49.6731 0 32 0C14.3269 0 0 14.3269 0 32C0 49.6731 14.3269 64 32 64Z" fill="url(#paint0_linear_2_3738)"/>
<path d="M32 64C49.6731 64 64 49.6731 64 32C64 14.3269 49.6731 0 32 0C14.3269 0 0 14.3269 0 32C0 49.6731 14.3269 64 32 64Z" fill="url(#paint1_radial_2_3738)"/>
<path d="M19.8125 9.26645C17.7448 9.38183 16.0047 11.1841 15.9407 13.2501C15.5718 25.7501 15.5718 38.2501 15.9407 50.7501C16.0047 52.816 17.7448 54.6182 19.8125 54.7337C22.3125 54.8686 24.8125 54.9621 27.3125 55.014C27.1562 39.6715 27.1562 24.3288 27.3125 8.98633C24.8125 9.0382 22.3125 9.13158 19.8125 9.26645Z" fill="url(#paint2_linear_2_3738)"/>
<path d="M44.1875 9.26646C42.9375 9.19896 41.6875 9.14184 40.4375 9.09521C40.7188 24.3651 40.7188 39.635 40.4375 54.905C41.6875 54.8582 42.9375 54.8011 44.1875 54.7337C46.2551 54.6183 47.9952 52.816 48.0592 50.7501C48.4281 38.2501 48.4281 25.7501 48.0592 13.2501C47.9952 11.1842 46.2551 9.38184 44.1875 9.26646Z" fill="url(#paint3_linear_2_3738)"/>
<path d="M44.2806 50.9446C44.5627 38.3149 44.5627 25.6851 44.2806 13.0554C44.231 10.9669 42.5051 9.17525 40.4375 9.09512C36.0625 8.93162 31.6875 8.89537 27.3125 8.98612C25.2448 9.03062 23.5334 10.8071 23.498 12.9126C23.3027 25.6375 23.3027 38.3625 23.498 51.0874C23.5333 53.1929 25.2448 54.9692 27.3125 55.0139C31.6875 55.1047 36.0625 55.0684 40.4375 54.9049C42.5051 54.8249 44.231 53.0331 44.2806 50.9446Z" fill="url(#paint4_linear_2_3738)"/>
<path d="M38.5887 10.9469C37.3337 10.9135 36.0787 10.8897 34.8237 10.8755C34.8756 20.1575 34.8934 29.4395 34.8769 38.7215C36.7947 38.7146 38.7126 38.701 40.6305 38.6806C40.6766 30.0914 40.6337 21.502 40.502 12.9126C40.4851 11.8592 39.6276 10.9749 38.5887 10.9469Z" fill="url(#paint5_linear_2_3738)"/>
<path d="M34.8236 10.8755C31.6861 10.8397 28.5486 10.8636 25.4113 10.9468C24.3724 10.9748 23.5149 11.8592 23.498 12.9127C23.3661 21.502 23.3234 30.0913 23.3695 38.6807C27.8446 38.7285 32.3196 38.739 36.7948 38.7125C36.8204 30.0822 36.7966 21.4521 36.7234 12.8218C36.7135 11.7632 35.8625 10.8875 34.8236 10.8755Z" fill="url(#paint6_linear_2_3738)"/>
<path d="M19.5336 38.6306C19.5609 42.1184 21.08 45.3118 23.4497 47.6328C26.2622 44.7204 29.1231 41.7311 31.9999 38.7265C29.123 35.7219 26.2301 32.702 23.3535 29.7283C20.9804 31.9984 19.505 35.1419 19.5336 38.6306Z" fill="url(#paint7_linear_2_3738)"/>
<path d="M32 26.2344C28.6495 26.2335 25.6026 27.5807 23.3536 29.7284C23.3428 35.6965 23.3748 41.6646 23.4498 47.6328C25.6979 49.8285 28.7021 51.2202 31.9999 51.2188C38.7513 51.2 44.3928 45.3879 44.4661 38.6306C44.5191 31.8701 38.8776 26.2563 32 26.2344Z" fill="url(#paint8_linear_2_3738)"/>
<path d="M40.6303 38.6806C40.5967 43.4095 36.7127 47.369 31.9998 47.375C27.2869 47.369 23.4029 43.4095 23.3693 38.6806C23.3424 33.95 27.2264 30.0858 31.9998 30.0781C36.7732 30.0856 40.6572 33.95 40.6303 38.6806Z" fill="url(#paint9_linear_2_3738)"/>
<path d="M40.6303 38.6806C40.5967 43.4095 36.7127 47.369 31.9998 47.375C27.2869 47.369 23.4029 43.4095 23.3693 38.6806C23.3424 33.95 27.2264 30.0858 31.9998 30.0781C36.7732 30.0856 40.6572 33.95 40.6303 38.6806Z" fill="url(#paint10_linear_2_3738)"/>
<path d="M33.4309 44.49C28.6983 44.5013 24.816 40.5671 24.7976 35.8257C24.7956 35.0122 24.91 34.2268 25.1211 33.481C24.0133 34.9272 23.3585 36.7246 23.3693 38.6808C23.4029 43.4097 27.2869 47.3691 31.9998 47.3751C35.9098 47.3743 39.2361 44.6427 40.289 41.0257C38.6991 43.1053 36.2158 44.4812 33.4309 44.49Z" fill="url(#paint11_linear_2_3738)"/>
<path d="M40.6303 38.6806C40.5967 43.4095 36.7127 47.369 31.9998 47.375C27.2869 47.369 23.4029 43.4095 23.3693 38.6806C23.3424 33.95 27.2264 30.0858 31.9998 30.0781C36.7732 30.0856 40.6572 33.95 40.6303 38.6806Z" fill="url(#paint12_radial_2_3738)"/>
<path d="M35.8356 38.7174C35.8293 40.8359 34.1102 42.5698 31.9998 42.5703C29.8895 42.5698 28.1703 40.8361 28.1641 38.7174C28.1583 36.5986 29.8775 34.8836 31.9998 34.8828C34.1222 34.8836 35.8413 36.5984 35.8356 38.7174Z" fill="url(#paint13_linear_2_3738)"/>
<path d="M32.9576 40.6478C30.8433 40.6509 29.1238 38.9213 29.1202 36.8012C29.1199 36.5662 29.1419 36.3363 29.1821 36.1128C28.5482 36.7967 28.1617 37.7108 28.1641 38.7175C28.1703 40.836 29.8894 42.5699 31.9998 42.5704C33.8767 42.5703 35.4417 41.1985 35.7712 39.4059C35.0689 40.1667 34.0683 40.646 32.9576 40.6478Z" fill="url(#paint14_linear_2_3738)"/>
<path d="M36.765 18.5753C36.7831 21.2213 34.6463 23.3499 32.0002 23.3516C29.3541 23.3499 27.2173 21.2213 27.2355 18.5753C27.2547 15.9301 29.3915 13.7429 32.0002 13.7422C34.6091 13.7429 36.7457 15.9303 36.765 18.5753Z" fill="url(#paint15_linear_2_3738)"/>
<path d="M36.765 18.5753C36.7831 21.2213 34.6463 23.3499 32.0002 23.3516C29.3541 23.3499 27.2173 21.2213 27.2355 18.5753C27.2547 15.9301 29.3915 13.7429 32.0002 13.7422C34.6091 13.7429 36.7457 15.9303 36.765 18.5753Z" fill="url(#paint16_radial_2_3738)"/>
<path d="M33.906 18.5514C33.909 19.6124 33.0555 20.4686 32.0001 20.4688C30.9447 20.4685 30.0912 19.6125 30.0942 18.5514C30.0972 17.4906 30.9507 16.625 32.0001 16.625C33.0495 16.625 33.903 17.4906 33.906 18.5514Z" fill="url(#paint17_linear_2_3738)"/>
<defs>
<linearGradient id="paint0_linear_2_3738" x1="9.37263" y1="54.6274" x2="54.6275" y2="9.3725" gradientUnits="userSpaceOnUse">
<stop stop-color="#230BE0"/>
<stop offset="1" stop-color="#DDA2FC"/>
</linearGradient>
<radialGradient id="paint1_radial_2_3738" cx="0" cy="0" r="1" gradientUnits="userSpaceOnUse" gradientTransform="translate(32.0001 32) scale(32)">
<stop stop-color="#230BE0" stop-opacity="0.6"/>
<stop offset="0.0361" stop-color="#2C13E1" stop-opacity="0.578"/>
<stop offset="0.2912" stop-color="#6B45EB" stop-opacity="0.425"/>
<stop offset="0.5241" stop-color="#9C6DF2" stop-opacity="0.286"/>
<stop offset="0.7273" stop-color="#BF8AF8" stop-opacity="0.164"/>
<stop offset="0.8928" stop-color="#D59CFB" stop-opacity="0.064"/>
<stop offset="1" stop-color="#DDA2FC" stop-opacity="0"/>
</radialGradient>
<linearGradient id="paint2_linear_2_3738" x1="-6.98153" y1="61.9705" x2="68.293" y2="-13.304" gradientUnits="userSpaceOnUse">
<stop stop-color="#170794"/>
<stop offset="0.5" stop-color="#230BE0"/>
<stop offset="1" stop-color="#F2D5FF"/>
</linearGradient>
<linearGradient id="paint3_linear_2_3738" x1="-48.5911" y1="123.532" x2="102.857" y2="-27.9158" gradientUnits="userSpaceOnUse">
<stop stop-color="#170794"/>
<stop offset="0.5" stop-color="#230BE0"/>
<stop offset="1" stop-color="#F2D5FF"/>
</linearGradient>
<linearGradient id="paint4_linear_2_3738" x1="-33.6346" y1="99.4414" x2="98.8215" y2="-33.0148" gradientUnits="userSpaceOnUse">
<stop stop-color="#170794"/>
<stop offset="0.5" stop-color="#230BE0"/>
<stop offset="1" stop-color="#F2D5FF"/>
</linearGradient>
<linearGradient id="paint5_linear_2_3738" x1="8.04235" y1="54.4629" x2="58.9514" y2="3.55385" gradientUnits="userSpaceOnUse">
<stop stop-color="#DDA2FC"/>
<stop offset="0.1867" stop-color="#E1ADFC"/>
<stop offset="0.511" stop-color="#EBC9FD"/>
<stop offset="0.9317" stop-color="#FCF7FF"/>
<stop offset="1" stop-color="white"/>
</linearGradient>
<linearGradient id="paint6_linear_2_3738" x1="4.15389" y1="51.4077" x2="83.3096" y2="-27.7479" gradientUnits="userSpaceOnUse">
<stop stop-color="#DDA2FC"/>
<stop offset="0.1867" stop-color="#E1ADFC"/>
<stop offset="0.511" stop-color="#EBC9FD"/>
<stop offset="0.9317" stop-color="#FCF7FF"/>
<stop offset="1" stop-color="white"/>
</linearGradient>
<linearGradient id="paint7_linear_2_3738" x1="-0.160763" y1="62.2406" x2="49.5131" y2="12.5668" gradientUnits="userSpaceOnUse">
<stop stop-color="#DDA2FC"/>
<stop offset="0.1867" stop-color="#E1ADFC"/>
<stop offset="0.511" stop-color="#EBC9FD"/>
<stop offset="0.9317" stop-color="#FCF7FF"/>
<stop offset="1" stop-color="white"/>
</linearGradient>
<linearGradient id="paint8_linear_2_3738" x1="-16.4684" y1="87.1041" x2="46.9301" y2="23.7056" gradientUnits="userSpaceOnUse">
<stop stop-color="#DDA2FC"/>
<stop offset="0.1867" stop-color="#E1ADFC"/>
<stop offset="0.511" stop-color="#EBC9FD"/>
<stop offset="0.9317" stop-color="#FCF7FF"/>
<stop offset="1" stop-color="white"/>
</linearGradient>
<linearGradient id="paint9_linear_2_3738" x1="-24.8818" y1="95.5625" x2="54.5007" y2="16.18" gradientUnits="userSpaceOnUse">
<stop stop-color="#170794"/>
<stop offset="0.5" stop-color="#230BE0"/>
<stop offset="1" stop-color="#F2D5FF"/>
</linearGradient>
<linearGradient id="paint10_linear_2_3738" x1="-24.8818" y1="95.5625" x2="54.5007" y2="16.18" gradientUnits="userSpaceOnUse">
<stop stop-color="#170794"/>
<stop offset="0.5" stop-color="#230BE0"/>
<stop offset="1" stop-color="#F2D5FF"/>
</linearGradient>
<linearGradient id="paint11_linear_2_3738" x1="-9.42998" y1="80.1637" x2="49.6202" y2="21.1136" gradientUnits="userSpaceOnUse">
<stop stop-color="#170794"/>
<stop offset="0.5" stop-color="#230BE0"/>
<stop offset="1" stop-color="#F2D5FF"/>
</linearGradient>
<radialGradient id="paint12_radial_2_3738" cx="0" cy="0" r="1" gradientUnits="userSpaceOnUse" gradientTransform="translate(31.9998 38.7266) scale(12.562)">
<stop stop-color="#DDA2FC" stop-opacity="0"/>
<stop offset="0.1418" stop-color="#D99FFB" stop-opacity="0.099"/>
<stop offset="0.2886" stop-color="#CC95F9" stop-opacity="0.202"/>
<stop offset="0.4379" stop-color="#B884F6" stop-opacity="0.307"/>
<stop offset="0.5888" stop-color="#9B6CF2" stop-opacity="0.412"/>
<stop offset="0.741" stop-color="#754EEC" stop-opacity="0.519"/>
<stop offset="0.8921" stop-color="#4829E6" stop-opacity="0.625"/>
<stop offset="1" stop-color="#230BE0" stop-opacity="0.7"/>
</radialGradient>
<linearGradient id="paint13_linear_2_3738" x1="19.0631" y1="51.6543" x2="54.4137" y2="16.3037" gradientUnits="userSpaceOnUse">
<stop stop-color="#170794"/>
<stop offset="0.5" stop-color="#230BE0"/>
<stop offset="1" stop-color="#F2D5FF"/>
</linearGradient>
<linearGradient id="paint14_linear_2_3738" x1="26.9961" y1="43.7234" x2="43.7736" y2="26.9459" gradientUnits="userSpaceOnUse">
<stop stop-color="#170794"/>
<stop offset="0.5" stop-color="#230BE0"/>
<stop offset="1" stop-color="#F2D5FF"/>
</linearGradient>
<linearGradient id="paint15_linear_2_3738" x1="-10.1187" y1="60.6938" x2="49.5768" y2="0.998431" gradientUnits="userSpaceOnUse">
<stop stop-color="#170794"/>
<stop offset="0.5" stop-color="#230BE0"/>
<stop offset="1" stop-color="#F2D5FF"/>
</linearGradient>
<radialGradient id="paint16_radial_2_3738" cx="0" cy="0" r="1" gradientUnits="userSpaceOnUse" gradientTransform="translate(32.0002 18.5469) scale(7.86463)">
<stop stop-color="#DDA2FC" stop-opacity="0"/>
<stop offset="0.1364" stop-color="#D99EFB" stop-opacity="0.096"/>
<stop offset="0.2833" stop-color="#CC94F9" stop-opacity="0.198"/>
<stop offset="0.4353" stop-color="#B682F6" stop-opacity="0.305"/>
<stop offset="0.5908" stop-color="#986AF2" stop-opacity="0.414"/>
<stop offset="0.7489" stop-color="#714AEC" stop-opacity="0.524"/>
<stop offset="0.907" stop-color="#4224E5" stop-opacity="0.635"/>
<stop offset="1" stop-color="#230BE0" stop-opacity="0.7"/>
</radialGradient>
<linearGradient id="paint17_linear_2_3738" x1="25.5495" y1="25.002" x2="43.1762" y2="7.37525" gradientUnits="userSpaceOnUse">
<stop stop-color="#170794"/>
<stop offset="0.5" stop-color="#230BE0"/>
<stop offset="1" stop-color="#F2D5FF"/>
</linearGradient>
</defs>
</svg>
