<svg width="64" height="64" viewBox="0 0 64 64" fill="none" xmlns="http://www.w3.org/2000/svg">
<circle cx="32" cy="32" r="32" fill="#E7D3FF"/>
<path d="M38.6667 38.6667C38.6667 36.8853 37.972 35.212 36.7133 33.9533C35.4547 32.6933 33.78 32 32 32C30.22 32 28.544 32.6947 27.2867 33.9533C26.028 35.2107 25.3333 36.8853 25.3333 38.6667C25.3333 40.448 26.028 42.1227 27.2973 43.3907L32 47.9907L36.7133 43.38C37.972 42.1227 38.6667 40.448 38.6667 38.6667ZM32 40.6667C30.896 40.6667 30 39.7707 30 38.6667C30 37.5627 30.896 36.6667 32 36.6667C33.104 36.6667 34 37.5627 34 38.6667C34 39.7707 33.104 40.6667 32 40.6667ZM40 24C40 19.588 36.412 16 32 16C27.588 16 24 19.588 24 24H16V44C16 46.2053 17.7947 48 20 48H28.196L25.432 45.2973C23.6413 43.5093 22.6667 41.1613 22.6667 38.6667C22.6667 36.172 23.6387 33.828 25.4027 32.0667C27.1613 30.3053 29.5053 29.3333 32 29.3333C34.4947 29.3333 36.8373 30.3053 38.6 32.068C40.3613 33.8307 41.3333 36.1747 41.3333 38.6667C41.3333 41.1587 40.3613 43.5053 38.5973 45.2667L35.804 48H44C46.2053 48 48 46.2053 48 44V24H40ZM26.6667 24C26.6667 21.0587 29.0587 18.6667 32 18.6667C34.9413 18.6667 37.3333 21.0587 37.3333 24H26.6667Z" fill="#C34B9B"/>
</svg>
