<svg width="24" height="24" viewBox="0 0 24 24" fill="none" xmlns="http://www.w3.org/2000/svg">
<path d="M21.768 9H19.418C19.021 9.983 18.429 10.886 17.656 11.658L17.306 12H19.232L19.739 15H16.881L16.682 12.611L12.001 17.189L7.32 12.611L7.121 15H4.262L4.769 12H6.695L6.372 11.684C5.587 10.9 4.988 9.988 4.586 9H2.232L0.021 22.092L0 24H24V22.5L21.768 9ZM6.62 21H3.248L3.755 18H6.87L6.62 21ZM9.63 21L9.88 18H14.12L14.37 21H9.63ZM17.38 21L17.13 18H20.245L20.752 21H17.381H17.38ZM12 14.392L16.242 10.243C17.376 9.11 18 7.603 18 6C18 4.397 17.376 2.89 16.242 1.757C15.108 0.624 13.601 0 12 0C10.399 0 8.89 0.624 7.758 1.757C6.624 2.89 6 4.397 6 6C6 7.603 6.624 9.11 7.77 10.254L12 14.392ZM12 4C13.105 4 14 4.895 14 6C14 7.105 13.105 8 12 8C10.895 8 10 7.105 10 6C10 4.895 10.895 4 12 4Z" fill="#D7DEF1"/>
</svg>
