<svg width="20" height="20" viewBox="0 0 20 20" fill="none" xmlns="http://www.w3.org/2000/svg">
<rect opacity="0.1" width="20" height="20" rx="4" fill="#0031A1"/>
<path d="M5.75281 5.89464C4.85316 6.82946 4.3 8.10013 4.3 9.5C4.3 12.3719 6.62812 14.7 9.5 14.7C10.2025 14.7 10.8725 14.5607 11.4839 14.3082C11.5586 13.8204 11.3946 13.3523 11.3275 13.1885C11.1783 12.8247 10.6857 12.2028 9.86328 11.34C9.64378 11.1093 9.65788 10.9323 9.73634 10.4063L9.74537 10.3469C9.79867 9.98659 9.88811 9.77358 11.1004 9.58112C11.7163 9.48349 11.8783 9.72964 12.1028 10.0705C12.1276 10.1083 12.1525 10.1453 12.1779 10.1824C12.3911 10.4943 12.5492 10.5656 12.7878 10.6742C12.8948 10.7227 13.0282 10.7838 13.207 10.8854C13.6308 11.1276 13.6308 11.4011 13.6308 12.0007V12.0687C13.6308 12.3232 13.6059 12.5467 13.5668 12.7408C14.2761 11.852 14.7 10.7255 14.7 9.5C14.7 7.35558 13.4019 5.51433 11.5487 4.71913C11.1892 4.96178 10.6959 5.30572 10.5237 5.5415C10.4357 5.662 10.3113 6.27708 9.9067 6.32784C9.80069 6.34115 9.65847 6.33183 9.5078 6.32213C9.10382 6.29588 8.55113 6.26044 8.3742 6.74072C8.26188 7.04508 8.24212 7.87139 8.60554 8.30029C8.66371 8.3688 8.67495 8.49555 8.63543 8.63777C8.5835 8.82452 8.47859 8.93814 8.44589 8.9616C8.38323 8.92559 8.25824 8.78052 8.1736 8.68178C7.9696 8.44473 7.71513 8.14951 7.38618 8.05814C7.26657 8.02504 7.13508 7.99764 7.00756 7.97078C6.65066 7.89598 6.24638 7.81087 6.15245 7.61046C6.08387 7.46368 6.08417 7.26154 6.08444 7.04797C6.08444 6.77728 6.08444 6.47119 5.95184 6.17366C5.9006 6.05852 5.83198 5.9669 5.75281 5.89464ZM9.5 16C5.91015 16 3 13.0898 3 9.5C3 5.91015 5.91015 3 9.5 3C13.0898 3 16 5.91015 16 9.5C16 13.0898 13.0898 16 9.5 16Z" fill="#0E3386"/>
</svg>
