<svg width="64" height="64" viewBox="0 0 64 64" fill="none" xmlns="http://www.w3.org/2000/svg">
<path d="M9.80762 28C9.80762 28 7.80762 26 7.80762 21L10.8076 22C10.8076 22 10.8076 17 16.8076 15V19C16.8076 19 20.8076 18 24.8076 19C24.8076 19 23.8076 24 20.8076 26L24.8076 28C24.8076 28 21.8076 33 15.8076 29V33C15.8076 33 11.8076 31 9.80762 28Z" fill="#818A55"/>
<path d="M50 54V38C50 36 53 33 53 33H43C43 33 46 36 46 38V54C46 58 38 61 38 61H58C58 61 50 58 50 54Z" fill="#E8EDF1"/>
<path d="M35.8076 61C38.569 61 40.8076 58.7614 40.8076 56C40.8076 53.2386 38.569 51 35.8076 51C33.0462 51 30.8076 53.2386 30.8076 56C30.8076 58.7614 33.0462 61 35.8076 61Z" fill="#931237"/>
<path d="M10.8076 52C13.569 52 15.8076 49.7614 15.8076 47C15.8076 44.2386 13.569 42 10.8076 42C8.04619 42 5.80762 44.2386 5.80762 47C5.80762 49.7614 8.04619 52 10.8076 52Z" fill="#720E2A"/>
<path d="M25.8076 61C28.569 61 30.8076 58.7614 30.8076 56C30.8076 53.2386 28.569 51 25.8076 51C23.0462 51 20.8076 53.2386 20.8076 56C20.8076 58.7614 23.0462 61 25.8076 61Z" fill="#931237"/>
<path d="M15.8076 61C18.569 61 20.8076 58.7614 20.8076 56C20.8076 53.2386 18.569 51 15.8076 51C13.0462 51 10.8076 53.2386 10.8076 56C10.8076 58.7614 13.0462 61 15.8076 61Z" fill="#931237"/>
<path d="M20.8076 52C23.569 52 25.8076 49.7614 25.8076 47C25.8076 44.2386 23.569 42 20.8076 42C18.0462 42 15.8076 44.2386 15.8076 47C15.8076 49.7614 18.0462 52 20.8076 52Z" fill="#720E2A"/>
<path d="M30.8076 52C33.569 52 35.8076 49.7614 35.8076 47C35.8076 44.2386 33.569 42 30.8076 42C28.0462 42 25.8076 44.2386 25.8076 47C25.8076 49.7614 28.0462 52 30.8076 52Z" fill="#720E2A"/>
<path d="M25.8076 43C28.569 43 30.8076 40.7614 30.8076 38C30.8076 35.2386 28.569 33 25.8076 33C23.0462 33 20.8076 35.2386 20.8076 38C20.8076 40.7614 23.0462 43 25.8076 43Z" fill="#931237"/>
<path d="M15.8076 43C18.569 43 20.8076 40.7614 20.8076 38C20.8076 35.2386 18.569 33 15.8076 33C13.0462 33 10.8076 35.2386 10.8076 38C10.8076 40.7614 13.0462 43 15.8076 43Z" fill="#931237"/>
<path d="M36 23C36 26.1826 37.2643 29.2348 39.5147 31.4853C41.7652 33.7357 44.8174 35 48 35C51.1826 35 54.2348 33.7357 56.4853 31.4853C58.7357 29.2348 60 26.1826 60 23C60 16 55 5 55 5H41C41 5 36 16 36 23Z" fill="#E8EDF1"/>
<path d="M60 23C60 26.1826 58.7357 29.2348 56.4853 31.4853C54.2348 33.7357 51.1826 35 48 35C44.8174 35 41.7652 33.7357 39.5147 31.4853C37.2643 29.2348 36 26.1826 36 23C36.0108 21.9283 36.1031 20.8589 36.2762 19.8013C37.2312 19.1325 40.4713 17 43 17C46 17 50 22 53 22C55.5725 22 58.88 20.53 59.77 20.1112C59.9152 21.0675 59.9921 22.0328 60 23Z" fill="#931237"/>
<path d="M3.96267 35.9875C6.23279 35.6326 8.24004 35.8875 9.94192 36.7412C9.62894 38.1967 9.87007 39.7166 10.6182 41.0037C9.06099 41.053 7.58408 41.7062 6.5 42.8252C5.41591 43.9441 4.80973 45.4409 4.80973 46.9989C4.80973 48.5568 5.41591 50.0537 6.5 51.1726C7.58408 52.2915 9.06099 52.9447 10.6182 52.994C9.83635 54.3435 9.61098 55.9444 9.98987 57.4573C10.3688 58.9702 11.3221 60.2759 12.6477 61.0976C13.9733 61.9193 15.5668 62.1923 17.0903 61.8586C18.6138 61.525 19.9473 60.611 20.8082 59.3105C21.3545 60.1369 22.0972 60.815 22.9697 61.2841C23.8423 61.7533 24.8175 61.9988 25.8082 61.9988C26.7988 61.9988 27.7741 61.7533 28.6466 61.2841C29.5192 60.815 30.2618 60.1369 30.8082 59.3105C31.5038 60.3637 32.5144 61.1703 33.6956 61.6151C34.8768 62.0599 36.1684 62.1202 37.3859 61.7875C37.5612 61.925 37.7774 61.9998 38.0002 62H58.0002C58.2344 62 58.4611 61.9177 58.6409 61.7676C58.8207 61.6175 58.9421 61.4091 58.9839 61.1786C59.0258 60.9482 58.9854 60.7104 58.8698 60.5067C58.7543 60.3029 58.5709 60.1462 58.3517 60.0639C56.4445 59.3465 51.0002 56.6929 51.0002 54V38C51.0002 37.7062 51.14 36.8639 52.385 35.2383C54.9053 34.3319 57.0847 32.6705 58.6264 30.4804C60.1681 28.2904 60.997 25.6782 61.0002 23C61.0002 15.8654 56.1183 5.04337 55.9105 4.58612C55.8311 4.41134 55.703 4.26313 55.5415 4.15919C55.3801 4.05526 55.1922 3.99999 55.0002 4H41.0002C40.8082 3.99999 40.6202 4.05526 40.4588 4.15919C40.2974 4.26313 40.1693 4.41134 40.0898 4.58612C39.882 5.04337 35.0002 15.8654 35.0002 23C35.0034 25.6782 35.8323 28.2904 37.3739 30.4804C38.9156 32.6705 41.0951 34.3319 43.6153 35.2383C44.8603 36.8643 45.0002 37.7064 45.0002 38V54C45.0002 55.5257 43.2525 57.0386 41.3909 58.194C41.7433 57.2995 41.8754 56.3334 41.7761 55.3772C41.6767 54.4209 41.3488 53.5026 40.8201 52.6997C40.2914 51.8968 39.5772 51.2328 38.738 50.7638C37.8988 50.2948 36.9591 50.0345 35.9982 50.0049C36.5191 49.1074 36.7981 48.09 36.8079 47.0523C36.8176 46.0146 36.5578 44.9922 36.0539 44.085C35.5499 43.1779 34.819 42.4171 33.9328 41.8772C33.0466 41.3373 32.0354 41.0367 30.9982 41.0049C31.78 39.6554 32.0054 38.0544 31.6265 36.5416C31.2476 35.0287 30.2942 33.723 28.9687 32.9013C27.6431 32.0796 26.0496 31.8066 24.5261 32.1402C23.0026 32.4739 21.669 33.3879 20.8082 34.6884C20.3546 34.0043 19.7656 33.4203 19.0777 32.9725C18.3897 32.5248 17.6174 32.2227 16.8082 32.0849V30.7206C18.4752 31.5114 20.078 31.7401 21.5913 31.3999C24.269 30.7978 25.6099 28.6074 25.6663 28.5145C25.7372 28.3964 25.7829 28.2648 25.8005 28.1282C25.8182 27.9916 25.8074 27.8527 25.7689 27.7205C25.7304 27.5882 25.6649 27.4653 25.5767 27.3595C25.4884 27.2537 25.3793 27.1672 25.256 27.1056L22.5998 25.7775C24.9454 23.2938 25.7513 19.3866 25.7894 19.1961C25.8398 18.9441 25.7913 18.6824 25.6538 18.4652C25.5164 18.2481 25.3006 18.0922 25.0513 18.0299C22.1939 17.3155 19.3722 17.5549 17.8088 17.7924V15C17.8088 14.8416 17.7711 14.6854 17.6989 14.5443C17.6267 14.4033 17.522 14.2814 17.3935 14.1888C17.2649 14.0961 17.1162 14.0354 16.9596 14.0115C16.8029 13.9876 16.6429 14.0013 16.4925 14.0514C11.8033 15.6139 10.4035 18.8442 9.98604 20.6716L8.12504 20.0514C7.97469 20.0011 7.81455 19.9874 7.65783 20.0112C7.50111 20.035 7.3523 20.0958 7.22367 20.1884C7.09505 20.2811 6.99029 20.403 6.91805 20.5441C6.84581 20.6852 6.80815 20.8415 6.80817 21C6.80817 25.1521 8.13079 27.4424 8.76817 28.3053C8.38574 28.8706 8.05224 29.4676 7.77129 30.0896C7.22847 31.2845 6.90187 32.5661 6.80667 33.875C5.75388 33.7993 4.69587 33.8455 3.65367 34.0125C3.52075 34.0291 3.39251 34.0722 3.27657 34.1392C3.16063 34.2063 3.05934 34.296 2.97873 34.403C2.89811 34.51 2.83981 34.632 2.80728 34.762C2.77475 34.8919 2.76866 35.0271 2.78936 35.1594C2.81007 35.2917 2.85715 35.4186 2.92781 35.5324C2.99847 35.6462 3.09128 35.7446 3.20071 35.8218C3.31015 35.8991 3.43399 35.9535 3.56488 35.982C3.69577 36.0104 3.83104 36.0123 3.96267 35.9875ZM20.8082 51C20.017 51 19.2437 50.7654 18.5859 50.3259C17.9281 49.8864 17.4154 49.2616 17.1127 48.5307C16.8099 47.7998 16.7307 46.9956 16.885 46.2196C17.0394 45.4437 17.4203 44.731 17.9797 44.1716C18.5392 43.6122 19.2519 43.2312 20.0278 43.0769C20.8037 42.9225 21.608 43.0017 22.3389 43.3045C23.0698 43.6072 23.6945 44.1199 24.134 44.7777C24.5736 45.4355 24.8082 46.2089 24.8082 47C24.807 48.0605 24.3852 49.0772 23.6353 49.8271C22.8854 50.577 21.8687 50.9988 20.8082 51ZM6.80817 47C6.80817 46.2089 7.04277 45.4355 7.48229 44.7777C7.92182 44.1199 8.54653 43.6072 9.27744 43.3045C10.0083 43.0017 10.8126 42.9225 11.5885 43.0769C12.3645 43.2312 13.0772 43.6122 13.6366 44.1716C14.196 44.731 14.577 45.4437 14.7313 46.2196C14.8857 46.9956 14.8064 47.7998 14.5037 48.5307C14.2009 49.2616 13.6882 49.8864 13.0305 50.3259C12.3727 50.7654 11.5993 51 10.8082 51C9.74767 50.9988 8.73095 50.577 7.98106 49.8271C7.23117 49.0772 6.80936 48.0605 6.80817 47ZM15.8082 60C15.017 60 14.2437 59.7654 13.5859 59.3259C12.9281 58.8864 12.4154 58.2616 12.1127 57.5307C11.8099 56.7998 11.7307 55.9956 11.885 55.2196C12.0394 54.4437 12.4203 53.731 12.9797 53.1716C13.5392 52.6122 14.2519 52.2312 15.0278 52.0769C15.8037 51.9225 16.608 52.0017 17.3389 52.3045C18.0698 52.6072 18.6945 53.1199 19.134 53.7777C19.5736 54.4355 19.8082 55.2089 19.8082 56C19.807 57.0605 19.3852 58.0772 18.6353 58.8271C17.8854 59.577 16.8687 59.9988 15.8082 60ZM25.8082 60C25.017 60 24.2437 59.7654 23.5859 59.3259C22.9281 58.8864 22.4154 58.2616 22.1127 57.5307C21.8099 56.7998 21.7307 55.9956 21.885 55.2196C22.0394 54.4437 22.4203 53.731 22.9797 53.1716C23.5392 52.6122 24.2519 52.2312 25.0278 52.0769C25.8037 51.9225 26.608 52.0017 27.3389 52.3045C28.0698 52.6072 28.6945 53.1199 29.134 53.7777C29.5736 54.4355 29.8082 55.2089 29.8082 56C29.807 57.0605 29.3852 58.0772 28.6353 58.8271C27.8854 59.577 26.8687 59.9988 25.8082 60ZM41.6534 6H54.3469C55.1703 7.91025 57.7372 14.1341 58.6629 19.5112C57.371 20.0679 54.9213 21 53.0002 21C51.8205 21 50.1739 19.8238 48.5814 18.6863C46.7324 17.3656 44.8205 16 43.0002 16C41.5868 16 39.8697 16.5458 37.8963 17.6221C37.8274 17.6596 37.7603 17.6971 37.6933 17.7346C38.8002 12.8322 40.9195 7.70263 41.6534 6ZM37.0002 23C37.0071 22.1221 37.0745 21.2457 37.2019 20.3771C38.5717 19.4606 41.1463 18 43.0002 18C44.1798 18 45.8264 19.1762 47.4189 20.3137C49.2679 21.6344 51.1798 23 53.0002 23C55.0338 23 57.4202 22.1844 58.9344 21.5676C58.9772 22.0611 59.0002 22.5403 59.0002 23C59.0002 25.9174 57.8412 28.7153 55.7783 30.7782C53.7154 32.8411 50.9176 34 48.0002 34C45.0828 34 42.2849 32.8411 40.222 30.7782C38.1591 28.7153 37.0002 25.9174 37.0002 23ZM42.5302 59.848C45.4963 57.9943 47.0002 56.0266 47.0002 54V38C47.0002 37.3821 46.8015 36.6805 46.4105 35.9026C47.4663 36.0325 48.534 36.0325 49.5898 35.9026C49.1988 36.6804 49.0002 37.3821 49.0002 38V54C49.0002 56.0266 50.504 57.9943 53.4702 59.848C53.5525 59.8995 53.6348 59.9502 53.717 60H42.2833C42.3655 59.95 42.4478 59.8993 42.5302 59.848ZM39.8082 56C39.8082 56.7911 39.5736 57.5645 39.134 58.2223C38.6945 58.8801 38.0698 59.3928 37.3389 59.6955C36.608 59.9983 35.8037 60.0775 35.0278 59.9231C34.2519 59.7688 33.5392 59.3878 32.9797 58.8284C32.4203 58.269 32.0394 57.5563 31.885 56.7804C31.7307 56.0044 31.8099 55.2002 32.1126 54.4693C32.4154 53.7384 32.9281 53.1136 33.5859 52.6741C34.2437 52.2346 35.017 52 35.8082 52C36.8687 52.0012 37.8854 52.423 38.6352 53.1729C39.3851 53.9228 39.8069 54.9395 39.8082 56ZM34.8082 47C34.8082 47.7911 34.5736 48.5645 34.134 49.2223C33.6945 49.8801 33.0698 50.3928 32.3389 50.6955C31.608 50.9983 30.8037 51.0775 30.0278 50.9231C29.2519 50.7688 28.5392 50.3878 27.9797 49.8284C27.4203 49.269 27.0394 48.5563 26.885 47.7804C26.7307 47.0044 26.8099 46.2002 27.1127 45.4693C27.4154 44.7384 27.9281 44.1136 28.5859 43.6741C29.2437 43.2346 30.017 43 30.8082 43C31.8687 43.0012 32.8854 43.423 33.6352 44.1729C34.3851 44.9228 34.8069 45.9395 34.8082 47ZM25.8082 34C26.5993 34 27.3727 34.2346 28.0305 34.6741C28.6882 35.1136 29.2009 35.7384 29.5037 36.4693C29.8064 37.2002 29.8857 38.0044 29.7313 38.7804C29.577 39.5563 29.196 40.269 28.6366 40.8284C28.0772 41.3878 27.3645 41.7688 26.5885 41.9231C25.8126 42.0775 25.0083 41.9983 24.2774 41.6955C23.5465 41.3928 22.9218 40.8801 22.4823 40.2223C22.0428 39.5645 21.8082 38.7911 21.8082 38C21.8094 36.9395 22.2312 35.9228 22.9811 35.1729C23.731 34.423 24.7477 34.0012 25.8082 34ZM19.8082 38C19.8082 38.7911 19.5736 39.5645 19.134 40.2223C18.6945 40.8801 18.0698 41.3928 17.3389 41.6955C16.608 41.9983 15.8037 42.0775 15.0278 41.9231C14.2519 41.7688 13.5392 41.3878 12.9797 40.8284C12.4203 40.269 12.0394 39.5563 11.885 38.7804C11.7307 38.0044 11.8099 37.2002 12.1127 36.4693C12.4154 35.7384 12.9281 35.1136 13.5859 34.6741C14.2437 34.2346 15.017 34 15.8082 34C16.8687 34.0012 17.8854 34.423 18.6352 35.1729C19.3851 35.9228 19.8069 36.9395 19.8082 38ZM9.67067 25.851C9.36217 25.126 9.00704 23.9897 8.86804 22.4074L10.4919 22.9486C10.6417 22.9994 10.8015 23.0138 10.958 22.9906C11.1145 22.9674 11.2632 22.9072 11.3918 22.8151C11.5205 22.723 11.6253 22.6016 11.6977 22.461C11.7701 22.3203 11.808 22.1644 11.8082 22.0063C11.8102 21.8468 11.9033 18.4156 15.8082 16.4865V19C15.8083 19.1518 15.843 19.3017 15.9096 19.4381C15.9762 19.5745 16.073 19.694 16.1926 19.7876C16.3122 19.8811 16.4516 19.9461 16.6 19.9778C16.7485 20.0095 16.9023 20.0069 17.0497 19.9704C17.084 19.9619 20.2247 19.2022 23.5768 19.7647C23.1463 21.2137 22.1268 23.919 20.2534 25.168C20.1077 25.2652 19.9901 25.3989 19.9123 25.5558C19.8345 25.7127 19.7993 25.8873 19.8101 26.0621C19.821 26.2369 19.8776 26.4058 19.9743 26.5519C20.071 26.6979 20.2043 26.816 20.3609 26.8944L23.2234 28.3256C22.638 28.8815 21.9148 29.271 21.1285 29.4539C19.7112 29.7636 18.1077 29.3311 16.3628 28.168C16.2122 28.0676 16.0372 28.01 15.8564 28.0013C15.6756 27.9925 15.4959 28.033 15.3363 28.1184C15.1767 28.2038 15.0433 28.3309 14.9503 28.4862C14.8573 28.6414 14.8082 28.819 14.8082 29V31.2599C13.7685 30.5919 12.367 29.5619 11.2875 28.2959C12.8764 26.4823 15.1723 25.0225 18.15 23.9399C18.3993 23.8492 18.6024 23.6633 18.7145 23.4229C18.8267 23.1825 18.8388 22.9075 18.7481 22.6582C18.6575 22.4089 18.4715 22.2059 18.2311 22.0937C17.9908 21.9816 17.7157 21.9695 17.4664 22.0601C15.1289 22.9101 12.2673 24.3405 10.0789 26.6676C9.92544 26.4045 9.78908 26.1317 9.67067 25.851ZM9.64254 30.8066C9.77713 30.5164 9.9255 30.2327 10.0877 29.9556C11.0242 30.9491 12.0689 31.8347 13.2022 32.5961C12.1615 33.1011 11.2876 33.8942 10.6844 34.8812C10.0774 34.5924 9.44365 34.3636 8.79217 34.1979C8.85306 33.023 9.14188 31.8712 9.64254 30.8066Z" fill="black"/>
</svg>
