<svg width="20" height="20" viewBox="0 0 20 20" fill="none" xmlns="http://www.w3.org/2000/svg">
<rect opacity="0.1" width="20" height="20" rx="4" fill="#0031A1"/>
<path d="M17.1643 5.52933L17.1642 5.529C17.0071 4.85741 16.5545 4.36875 16.0313 4.20887L16.0312 4.20883C15.7645 4.12725 15.2458 4.05543 14.5705 3.9992C13.9108 3.94428 13.1466 3.90736 12.4177 3.88265C11.6897 3.85796 11.0015 3.84561 10.4949 3.83942C10.2417 3.83634 10.0342 3.83479 9.89015 3.83402L9.72393 3.83335L9.68072 3.83326L9.66982 3.83325L9.66714 3.83325L9.6665 3.83325H9.66636L9.66634 3.33325L9.66632 3.83325H9.66618L9.66554 3.83325L9.66286 3.83325L9.65196 3.83326L9.60875 3.83335L9.44253 3.83402C9.29847 3.83479 9.09096 3.83634 8.83778 3.83942C8.33121 3.84561 7.64291 3.85796 6.91488 3.88265C6.18593 3.90736 5.42172 3.94428 4.76192 3.9992C4.08653 4.05542 3.56774 4.12723 3.30079 4.20883L17.1643 5.52933ZM17.1643 5.52933C17.3267 6.22163 17.413 7.32508 17.4566 8.28731C17.4781 8.76174 17.4889 9.19073 17.4943 9.50115C17.497 9.65625 17.4983 9.78151 17.499 9.86774L17.4996 9.9666L17.4997 9.99188L17.4997 9.99811L17.4997 9.99957V9.9999V9.99995V10.0003L17.4997 10.0017L17.4997 10.008L17.4996 10.0332L17.499 10.1321C17.4983 10.2183 17.497 10.3436 17.4943 10.4987C17.4889 10.8091 17.4782 11.2381 17.4567 11.7126C17.4131 12.6748 17.3271 13.7783 17.1649 14.4707C17.0072 15.1431 16.5545 15.6311 16.032 15.791M17.1643 5.52933L16.032 15.791M1.83301 9.9999V9.99989L1.83301 9.99957L1.83301 9.99811L1.83302 9.99188L1.83309 9.9666L1.83367 9.86774C1.83434 9.78151 1.83569 9.65625 1.83838 9.50115C1.84377 9.19073 1.85455 8.76174 1.87607 8.28731C1.91973 7.32508 2.00595 6.22163 2.1684 5.52933L2.1685 5.52889C2.32559 4.85673 2.77808 4.36876 3.30072 4.20885L1.83301 9.9999ZM1.83301 9.9999V9.99994V9.99995L1.83301 10.0003L1.83301 10.0017L1.83302 10.008L1.83309 10.0332L1.83367 10.1321C1.83434 10.2183 1.83569 10.3436 1.83838 10.4987C1.84377 10.8091 1.85455 11.2381 1.87607 11.7125C1.91973 12.6748 2.00595 13.7782 2.1684 14.4705L2.16848 14.4708C2.32558 15.1424 2.77818 15.6311 3.30136 15.791L3.30149 15.791C3.56819 15.8726 4.08684 15.9444 4.76222 16.0006C5.42192 16.0556 6.18607 16.0925 6.91497 16.1172C7.64296 16.1419 8.33123 16.1542 8.8378 16.1604C9.09096 16.1635 9.29847 16.165 9.44253 16.1658L9.60875 16.1665L9.65196 16.1666L9.66286 16.1666L9.66554 16.1666H9.66618H9.66632L9.66634 16.6666M1.83301 9.9999L9.66634 16.6666M9.66634 16.6666L9.66636 16.1666M9.66634 16.6666L9.66636 16.1666M16.032 15.791C15.765 15.8726 15.2462 15.9444 14.5708 16.0006M16.032 15.791L14.5708 16.0006M14.5708 16.0006C13.911 16.0556 13.1467 16.0925 12.4178 16.1172M14.5708 16.0006L12.4178 16.1172M12.4178 16.1172C11.6898 16.1419 11.0015 16.1542 10.4949 16.1604M12.4178 16.1172L10.4949 16.1604M10.4949 16.1604C10.2417 16.1635 10.0342 16.165 9.89015 16.1658M10.4949 16.1604L9.89015 16.1658M9.89015 16.1658L9.72393 16.1665M9.89015 16.1658L9.72393 16.1665M9.72393 16.1665L9.68072 16.1666M9.72393 16.1665L9.68072 16.1666M9.68072 16.1666L9.66982 16.1666M9.68072 16.1666L9.66982 16.1666M9.66982 16.1666L9.66714 16.1666M9.66982 16.1666L9.66714 16.1666M9.66714 16.1666H9.6665M9.66714 16.1666H9.6665M9.6665 16.1666H9.66636M9.6665 16.1666H9.66636M7.46217 12.8144V13.7328L8.23354 13.2343L12.5891 10.4199L13.239 9.99992L12.5891 9.57996L8.23354 6.76552L7.46217 6.26708V7.18547V12.8144Z" stroke="#0031A1"/>
</svg>
